<svg width="40" height="40" viewBox="0 0 40 40" fill="none" xmlns="http://www.w3.org/2000/svg">
<mask id="mask0_235_1014" style="mask-type:alpha" maskUnits="userSpaceOnUse" x="0" y="0" width="40" height="40">
<rect width="40" height="40" fill="#D9D9D9"/>
</mask>
<g mask="url(#mask0_235_1014)">
<path d="M24.833 32.5C21.361 32.5 18.4097 31.2917 15.979 28.875C13.5483 26.4583 12.333 23.5 12.333 20C12.333 16.528 13.5483 13.5767 15.979 11.146C18.4097 8.71533 21.361 7.5 24.833 7.5C28.3057 7.5 31.2573 8.71533 33.688 11.146C36.118 13.5767 37.333 16.528 37.333 20C37.333 23.5 36.118 26.4583 33.688 28.875C31.2573 31.2917 28.3057 32.5 24.833 32.5ZM25.917 19.583L25.875 14.625C25.875 14.347 25.7777 14.104 25.583 13.896C25.389 13.6873 25.139 13.583 24.833 13.583C24.5277 13.583 24.2777 13.6803 24.083 13.875C23.889 14.0697 23.792 14.3197 23.792 14.625V19.917C23.792 20.0837 23.8267 20.2433 23.896 20.396C23.9653 20.5487 24.0557 20.6943 24.167 20.833L28.292 24.917C28.486 25.139 28.722 25.25 29 25.25C29.278 25.25 29.528 25.139 29.75 24.917C29.972 24.6943 30.083 24.4443 30.083 24.167C30.083 23.889 29.972 23.639 29.75 23.417L25.917 19.583ZM5.37499 14.375C5.06966 14.375 4.81966 14.2777 4.62499 14.083C4.43033 13.889 4.33299 13.639 4.33299 13.333C4.33299 13.0277 4.43033 12.7777 4.62499 12.583C4.81966 12.389 5.06966 12.292 5.37499 12.292H9.62499C9.93033 12.292 10.1803 12.389 10.375 12.583C10.5697 12.7777 10.667 13.0277 10.667 13.333C10.667 13.639 10.5697 13.889 10.375 14.083C10.1803 14.2777 9.93033 14.375 9.62499 14.375H5.37499ZM3.70799 21.042C3.40266 21.042 3.15266 20.9447 2.95799 20.75C2.76399 20.5553 2.66699 20.3053 2.66699 20C2.66699 19.6947 2.76399 19.4447 2.95799 19.25C3.15266 19.0553 3.40266 18.958 3.70799 18.958H9.62499C9.93033 18.958 10.1803 19.0553 10.375 19.25C10.5697 19.4447 10.667 19.6947 10.667 20C10.667 20.3053 10.5697 20.5553 10.375 20.75C10.1803 20.9447 9.93033 21.042 9.62499 21.042H3.70799ZM5.37499 27.708C5.06966 27.708 4.81966 27.611 4.62499 27.417C4.43033 27.2223 4.33299 26.9723 4.33299 26.667C4.33299 26.361 4.43033 26.111 4.62499 25.917C4.81966 25.7223 5.06966 25.625 5.37499 25.625H9.62499C9.93033 25.625 10.1803 25.7223 10.375 25.917C10.5697 26.111 10.667 26.361 10.667 26.667C10.667 26.9723 10.5697 27.2223 10.375 27.417C10.1803 27.611 9.93033 27.708 9.62499 27.708H5.37499Z" fill="#FFECE8"/>
</g>
</svg>
