<svg width="24" height="24" viewBox="0 0 24 24" fill="none" xmlns="http://www.w3.org/2000/svg">
<mask id="mask0_220_1687" style="mask-type:alpha" maskUnits="userSpaceOnUse" x="0" y="0" width="24" height="24">
<rect width="24" height="24" fill="#D9D9D9"/>
</mask>
<g mask="url(#mask0_220_1687)">
<path d="M11.1 19.1L4.65 12.625C4.55 12.5417 4.47933 12.4457 4.438 12.337C4.396 12.229 4.375 12.1167 4.375 12C4.375 11.8833 4.396 11.7707 4.438 11.662C4.47933 11.554 4.55 11.4583 4.65 11.375L11.1 4.89999C11.25 4.76666 11.425 4.69566 11.625 4.68699C11.825 4.67899 12 4.74999 12.15 4.89999C12.3 5.04999 12.379 5.22499 12.387 5.42499C12.3957 5.62499 12.325 5.80833 12.175 5.97499L6.875 11.25H18.5C18.7 11.25 18.875 11.3207 19.025 11.462C19.175 11.604 19.25 11.7833 19.25 12C19.25 12.2167 19.175 12.3957 19.025 12.537C18.875 12.679 18.7 12.75 18.5 12.75H6.875L12.175 18.05C12.3083 18.1833 12.379 18.354 12.387 18.562C12.3957 18.7707 12.325 18.95 12.175 19.1C12.025 19.25 11.846 19.325 11.638 19.325C11.4293 19.325 11.25 19.25 11.1 19.1Z" fill="#21262A"/>
</g>
</svg>
