<svg width="24" height="25" viewBox="0 0 24 25" fill="none" xmlns="http://www.w3.org/2000/svg">
<mask id="mask0_207_1828" style="mask-type:alpha" maskUnits="userSpaceOnUse" x="0" y="0" width="24" height="25">
<rect y="0.663208" width="24" height="24" fill="#D9D9D9"/>
</mask>
<g mask="url(#mask0_207_1828)">
<path d="M12.5748 22.6634L12.3252 19.838H11.5752C9.2084 19.838 7.1876 19.0006 5.5128 17.3258C3.8376 15.6506 3 13.6214 3 11.2382C3 8.87136 3.8376 6.85056 5.5128 5.17576C7.1876 3.50056 9.225 2.66296 11.625 2.66296C12.8082 2.66296 13.904 2.87976 14.9124 3.31336C15.9208 3.74656 16.8042 4.34656 17.5626 5.11336C18.321 5.87976 18.9168 6.77976 19.35 7.81336C19.7832 8.84656 19.9998 9.97156 19.9998 11.1884C19.9998 13.5216 19.329 15.7174 17.9874 17.7758C16.6458 19.8342 14.8416 21.4634 12.5748 22.6634ZM11.5998 16.9382C11.8834 16.9382 12.1168 16.8424 12.3 16.6508C12.4832 16.4592 12.5748 16.23 12.5748 15.9632C12.5748 15.6964 12.4832 15.4672 12.3 15.2756C12.1168 15.084 11.8834 14.9882 11.5998 14.9882C11.3334 14.9882 11.1044 15.084 10.9128 15.2756C10.7208 15.4672 10.6248 15.6964 10.6248 15.9632C10.6248 16.23 10.7208 16.4592 10.9128 16.6508C11.1044 16.8424 11.3334 16.9382 11.5998 16.9382ZM11.5752 13.613C11.7584 13.613 11.9166 13.5506 12.0498 13.4258C12.1834 13.3006 12.2668 13.138 12.3 12.938C12.35 12.7216 12.45 12.5092 12.6 12.3008C12.75 12.0924 13 11.8216 13.35 11.4884C13.75 11.0884 14.0458 10.705 14.2374 10.3382C14.429 9.97136 14.5248 9.57136 14.5248 9.13816C14.5248 8.35496 14.2582 7.73416 13.725 7.27576C13.1918 6.81736 12.5084 6.58816 11.6748 6.58816C11.0916 6.58816 10.5666 6.71736 10.0998 6.97576C9.6334 7.23416 9.2584 7.58836 8.9748 8.03836C8.8584 8.18836 8.8376 8.35076 8.9124 8.52556C8.9876 8.70076 9.1252 8.82996 9.3252 8.91316C9.4584 8.96316 9.6042 8.96316 9.7626 8.91316C9.921 8.86316 10.0584 8.76316 10.1748 8.61316C10.3416 8.36316 10.5458 8.17976 10.7874 8.06296C11.029 7.94656 11.3082 7.88836 11.625 7.88836C12.1082 7.88836 12.4832 8.00916 12.75 8.25076C13.0168 8.49236 13.1502 8.79656 13.1502 9.16336C13.1502 9.46336 13.0626 9.75916 12.8874 10.0508C12.7126 10.3424 12.4252 10.6882 12.0252 11.0882C11.6416 11.4714 11.3748 11.784 11.2248 12.026C11.0748 12.2676 10.9832 12.5716 10.95 12.938C10.9332 13.1216 10.9874 13.28 11.1126 13.4132C11.2374 13.5464 11.3916 13.613 11.5752 13.613Z" fill="#A7B4BE"/>
</g>
</svg>
