<svg width="40" height="40" viewBox="0 0 40 40" fill="none" xmlns="http://www.w3.org/2000/svg">
<mask id="mask0_235_987" style="mask-type:alpha" maskUnits="userSpaceOnUse" x="0" y="0" width="40" height="40">
<rect width="40" height="40" fill="#D9D9D9"/>
</mask>
<g mask="url(#mask0_235_987)">
<path d="M16.458 33.542V29.292C16.458 29.1253 16.4093 29.0003 16.312 28.917C16.2153 28.8337 16.0837 28.792 15.917 28.792H4.58301V26.667H15.917C16.639 26.667 17.257 26.924 17.771 27.438C18.285 27.9513 18.542 28.5693 18.542 29.292V33.542H16.458ZM21.458 33.542V29.292C21.458 28.5693 21.715 27.9513 22.229 27.438C22.743 26.924 23.361 26.667 24.083 26.667H35.417V28.792H24.083C23.9163 28.792 23.7847 28.8337 23.688 28.917C23.5907 29.0003 23.542 29.1253 23.542 29.292V33.542H21.458ZM10.208 23.958C8.98601 23.958 7.95134 23.5347 7.10401 22.688C6.25667 21.8407 5.83301 20.8057 5.83301 19.583V13.5H34.167V19.583C34.167 20.8057 33.7433 21.8407 32.896 22.688C32.0487 23.5347 31.014 23.958 29.792 23.958H10.208ZM5.83301 11.208V9.083H15.625V7.708C15.625 7.34733 15.75 7.042 16 6.792C16.25 6.542 16.5557 6.417 16.917 6.417H23.083C23.4443 6.417 23.75 6.542 24 6.792C24.25 7.042 24.375 7.34733 24.375 7.708V9.083H34.167V11.208H5.83301Z" fill="#FFECE8"/>
</g>
</svg>
