<svg width="85" height="35" viewBox="0 0 85 35" fill="none" xmlns="http://www.w3.org/2000/svg">
<path fill-rule="evenodd" clip-rule="evenodd" d="M38.9816 26.8943V16.8043H44.2326C46.3844 16.8043 48.2005 16.0892 49.6811 14.679L50.0364 14.3215C52.7409 11.4018 52.5632 6.85332 49.6811 4.15206C48.24 2.72198 46.2659 1.94736 44.2326 1.98708H35.8033V26.8943H38.9816ZM38.9819 13.7454V5.0458H44.3128C45.4579 5.0458 46.5439 5.48277 47.3534 6.27725C49.0711 7.94568 49.1106 10.7264 47.4521 12.4544C46.6426 13.3085 45.4974 13.7852 44.3128 13.7454H38.9819Z" fill="#3C4043"/>
<path fill-rule="evenodd" clip-rule="evenodd" d="M64.8618 11.1833C63.4997 9.93197 61.6441 9.29638 59.2949 9.29638C56.2746 9.29638 54.0044 10.4087 52.5041 12.6134L55.3073 14.3811C56.3338 12.8716 57.7354 12.1168 59.512 12.1168C60.6373 12.1168 61.723 12.5339 62.5719 13.2887C63.401 14.0037 63.8748 15.0365 63.8748 16.129V16.8639C62.6508 16.1886 61.111 15.831 59.2159 15.831C57.005 15.831 55.2283 16.3475 53.9057 17.4001C52.583 18.4528 51.9119 19.8432 51.9119 21.6109C51.8724 23.2198 52.5633 24.7492 53.7872 25.782C55.0309 26.8943 56.6102 27.4504 58.4658 27.4504C60.657 27.4504 62.3942 26.4772 63.7168 24.5307H63.855V26.8943H66.8951V16.3872C66.8951 14.1825 66.2239 12.4346 64.8618 11.1833ZM56.2357 23.756C55.5841 23.2793 55.1892 22.5047 55.1892 21.6705C55.1892 20.737 55.6236 19.9624 56.4726 19.3466C57.3413 18.7309 58.4272 18.4131 59.7106 18.4131C61.4875 18.3932 62.8696 18.7905 63.8568 19.585C63.8568 20.9356 63.3237 22.1075 62.2773 23.1006C61.3296 24.054 60.0462 24.5902 58.7036 24.5902C57.8152 24.6101 56.9464 24.3122 56.2357 23.756Z" fill="#3C4043"/>
<path d="M73.7255 34.3823L84.346 9.85253H80.8913L75.9759 22.0876H75.9167L70.8828 9.85253H67.4282L74.3966 25.8019L70.4485 34.3823H73.7255Z" fill="#3C4043"/>
<path d="M28.0091 14.6194C28.0091 13.6462 27.9301 12.6729 27.7722 11.7195H14.3682V17.2214H22.0473C21.7315 18.9891 20.705 20.5781 19.2047 21.5712V25.1464H23.7845C26.4693 22.6636 28.0091 18.9891 28.0091 14.6194Z" fill="#4285F4"/>
<path d="M14.3688 28.6024C18.1985 28.6024 21.4354 27.3312 23.7845 25.1464L19.2047 21.5712C17.9215 22.4451 16.2836 22.9417 14.3688 22.9417C10.6575 22.9417 7.51872 20.4192 6.3935 17.0426H1.67546V20.737C4.08383 25.5635 8.99928 28.6024 14.3688 28.6024Z" fill="#34A853"/>
<path d="M6.3935 17.0426C5.80118 15.2749 5.80171 13.3483 6.39403 11.5607V7.8862H1.67524C-0.358381 11.9182 -0.358381 16.6851 1.67524 20.7172L6.3935 17.0426Z" fill="#FBBC04"/>
<path d="M14.3688 5.66159C16.4021 5.62186 18.3564 6.39649 19.8172 7.8067L23.8838 3.71509C21.2978 1.29191 17.9024 -0.0388599 14.3688 0.000864422C8.99928 0.000864422 4.08361 3.05969 1.67524 7.8862L6.3935 11.5805C7.51872 8.18408 10.6575 5.66159 14.3688 5.66159Z" fill="#EA4335"/>
</svg>
