<svg width="16" height="16" viewBox="0 0 16 16" fill="none" xmlns="http://www.w3.org/2000/svg">
<mask id="mask0_523_5105" style="mask-type:alpha" maskUnits="userSpaceOnUse" x="0" y="0" width="16" height="16">
<rect width="16" height="16" fill="#D9D9D9"/>
</mask>
<g mask="url(#mask0_523_5105)">
<path d="M7.99646 11.2C8.16547 11.2 8.30831 11.1425 8.42498 11.0275C8.54164 10.9125 8.59998 10.77 8.59998 10.6V7.80001C8.59998 7.63001 8.54282 7.48751 8.42849 7.37251C8.31416 7.25751 8.17249 7.20001 8.00349 7.20001C7.83448 7.20001 7.69164 7.25751 7.57498 7.37251C7.45831 7.48751 7.39998 7.63001 7.39998 7.80001V10.6C7.39998 10.77 7.45714 10.9125 7.57146 11.0275C7.68579 11.1425 7.82746 11.2 7.99646 11.2ZM7.99646 6.00001C8.16547 6.00001 8.30831 5.94285 8.42498 5.82852C8.54164 5.71419 8.59998 5.57252 8.59998 5.40352C8.59998 5.23451 8.54282 5.09167 8.42849 4.97501C8.31416 4.85834 8.17249 4.80001 8.00349 4.80001C7.83448 4.80001 7.69164 4.85717 7.57498 4.97149C7.45831 5.08582 7.39998 5.22749 7.39998 5.39649C7.39998 5.5655 7.45714 5.70834 7.57146 5.82501C7.68579 5.94167 7.82746 6.00001 7.99646 6.00001ZM8.00458 14.4C7.12373 14.4 6.29442 14.2333 5.51664 13.9C4.73886 13.5667 4.05831 13.1083 3.47498 12.525C2.89164 11.9417 2.43331 11.2614 2.09998 10.484C1.76664 9.70672 1.59998 8.87616 1.59998 7.99237C1.59998 7.10857 1.76664 6.28056 2.09998 5.50834C2.43331 4.73612 2.89164 4.05834 3.47498 3.47501C4.05831 2.89167 4.73863 2.43334 5.51594 2.10001C6.29326 1.76667 7.12382 1.60001 8.00761 1.60001C8.89141 1.60001 9.71942 1.76667 10.4916 2.10001C11.2639 2.43334 11.9416 2.89167 12.525 3.47501C13.1083 4.05834 13.5666 4.73736 13.9 5.51207C14.2333 6.2868 14.4 7.11457 14.4 7.99541C14.4 8.87625 14.2333 9.70556 13.9 10.4833C13.5666 11.2611 13.1083 11.9417 12.525 12.525C11.9416 13.1083 11.2626 13.5667 10.4879 13.9C9.71319 14.2333 8.88541 14.4 8.00458 14.4ZM7.99998 13.2C9.44442 13.2 10.6722 12.6945 11.6833 11.6833C12.6944 10.6722 13.2 9.44445 13.2 8.00001C13.2 6.55556 12.6944 5.32778 11.6833 4.31667C10.6722 3.30556 9.44442 2.80001 7.99998 2.80001C6.55553 2.80001 5.32775 3.30556 4.31664 4.31667C3.30553 5.32778 2.79998 6.55556 2.79998 8.00001C2.79998 9.44445 3.30553 10.6722 4.31664 11.6833C5.32775 12.6945 6.55553 13.2 7.99998 13.2Z" fill="#FF6644"/>
</g>
</svg>
