<svg width="70" height="70" viewBox="0 0 70 70" fill="none" xmlns="http://www.w3.org/2000/svg">
<path d="M56.48 57.22H13.66C12.8757 57.22 12.24 57.8557 12.24 58.64V59.85C12.24 60.6342 12.8757 61.27 13.66 61.27H56.48C57.2642 61.27 57.9 60.6342 57.9 59.85V58.64C57.9 57.8557 57.2642 57.22 56.48 57.22Z" fill="#FF6644"/>
<path d="M8.8201 34.3401H61.3201C61.9901 34.3401 62.5301 34.8801 62.5301 35.5501V52.9701C62.5301 55.8901 60.1601 58.2701 57.2301 58.2701H11.9501C9.5501 58.2701 7.61011 56.3201 7.61011 53.9301V35.5501C7.61011 34.8801 8.1501 34.3401 8.8201 34.3401Z" fill="#3ADC86"/>
<path d="M35.07 31.8C37.7762 31.8 39.97 29.6062 39.97 26.9C39.97 24.1938 37.7762 22 35.07 22C32.3638 22 30.17 24.1938 30.17 26.9C30.17 29.6062 32.3638 31.8 35.07 31.8Z" fill="#3ADC86"/>
<path d="M61.46 29H8.67C7.1954 29 6 30.1954 6 31.67V31.68C6 33.1546 7.1954 34.35 8.67 34.35H61.46C62.9346 34.35 64.13 33.1546 64.13 31.68V31.67C64.13 30.1954 62.9346 29 61.46 29Z" fill="#FF6644"/>
<path d="M57.86 64.72C61.6487 64.72 64.72 61.6487 64.72 57.86C64.72 54.0713 61.6487 51 57.86 51C54.0713 51 51 54.0713 51 57.86C51 61.6487 54.0713 64.72 57.86 64.72Z" fill="#7E8B95"/>
<path d="M55.99 61.1501V54.5701H57.25V61.1501H55.99ZM56.68 61.1501V60.0501H60.14V61.1501H56.68Z" fill="#F3F6F9"/>
</svg>
