<svg width="16" height="16" viewBox="0 0 16 16" fill="none" xmlns="http://www.w3.org/2000/svg">
<mask id="mask0_220_1680" style="mask-type:alpha" maskUnits="userSpaceOnUse" x="0" y="0" width="16" height="16">
<rect width="16" height="16" fill="#D9D9D9"/>
</mask>
<g mask="url(#mask0_220_1680)">
<path d="M9.56642 13.4832L6.03362 12.2336L3.15042 13.3664C2.94988 13.4443 2.76375 13.4221 2.59202 13.3C2.41975 13.1779 2.33362 13.0112 2.33362 12.8V4.06641C2.33362 3.92188 2.37228 3.79708 2.44962 3.69201C2.52748 3.58641 2.62775 3.51121 2.75042 3.46641L5.61682 2.50001C5.76135 2.44454 5.90028 2.42241 6.03362 2.43361C6.16695 2.44428 6.30562 2.47201 6.44962 2.51681L9.98322 3.75041L12.8832 2.61681C13.0832 2.55014 13.2638 2.57228 13.4248 2.68321C13.5859 2.79414 13.6664 2.95521 13.6664 3.16641V11.9504C13.6664 12.0944 13.6278 12.2165 13.5504 12.3168C13.4726 12.4165 13.3723 12.4888 13.2496 12.5336L10.4 13.5168C10.2667 13.5723 10.1307 13.5917 9.99202 13.5752C9.85282 13.5587 9.71095 13.528 9.56642 13.4832ZM9.44962 12.3336V4.64961L6.56642 3.64961V11.3336L9.44962 12.3336ZM10.5168 12.3336L12.6 11.6168V3.86641L10.5168 4.64961V12.3336ZM3.40002 12.1168L5.50002 11.3336V3.64961L3.40002 4.36641V12.1168Z" fill="#7E8B95"/>
</g>
</svg>
