<svg width="70" height="70" viewBox="0 0 70 70" fill="none" xmlns="http://www.w3.org/2000/svg">
<path d="M53.1401 56.6799H16.7701C15.9859 56.6799 15.3501 57.3157 15.3501 58.0999V59.3099C15.3501 60.0942 15.9859 60.7299 16.7701 60.7299H53.1401C53.9243 60.7299 54.5601 60.0942 54.5601 59.3099V58.0999C54.5601 57.3157 53.9243 56.6799 53.1401 56.6799Z" fill="#3ADC86"/>
<path d="M12.5899 37.6101H57.3299C57.9999 37.6101 58.5399 38.1501 58.5399 38.8201V52.8601C58.5399 55.7801 56.1699 58.1601 53.2399 58.1601H15.7199C13.3199 58.1601 11.3799 56.2101 11.3799 53.8201V38.8201C11.3799 38.1501 11.9199 37.6101 12.5899 37.6101Z" fill="#418CFC"/>
<path d="M34.96 35.42C37.2851 35.42 39.17 33.5351 39.17 31.21C39.17 28.8849 37.2851 27 34.96 27C32.6349 27 30.75 28.8849 30.75 31.21C30.75 33.5351 32.6349 35.42 34.96 35.42Z" fill="#418CFC"/>
<path d="M57.62 33.02H12.3C11.0297 33.02 10 34.0475 10 35.315C10 36.5825 11.0297 37.61 12.3 37.61H57.62C58.8903 37.61 59.92 36.5825 59.92 35.315C59.92 34.0475 58.8903 33.02 57.62 33.02Z" fill="#3ADC86"/>
<path d="M57.86 64.72C61.6487 64.72 64.72 61.6487 64.72 57.86C64.72 54.0713 61.6487 51 57.86 51C54.0713 51 51 54.0713 51 57.86C51 61.6487 54.0713 64.72 57.86 64.72Z" fill="#7E8B95"/>
<path d="M56.31 59C56.47 59.35 56.7 59.63 56.99 59.83C57.28 60.03 57.62 60.13 58.01 60.13C58.4 60.13 58.71 60.06 58.92 59.93C59.13 59.8 59.24 59.61 59.24 59.36C59.24 59.14 59.18 58.97 59.05 58.84C58.92 58.71 58.71 58.61 58.41 58.53L57.46 58.27C56.93 58.13 56.5 57.91 56.15 57.62C55.8 57.33 55.63 56.91 55.63 56.37C55.63 55.98 55.73 55.64 55.93 55.35C56.13 55.06 56.41 54.84 56.76 54.68C57.11 54.53 57.51 54.45 57.94 54.45C58.54 54.45 59.05 54.6 59.49 54.9C59.93 55.2 60.24 55.58 60.43 56.03L59.39 56.56C59.24 56.27 59.04 56.04 58.8 55.86C58.55 55.68 58.27 55.59 57.94 55.59C57.59 55.59 57.32 55.6599 57.14 55.7999C56.96 55.9399 56.86 56.13 56.86 56.38C56.86 56.6 56.93 56.77 57.08 56.88C57.23 56.99 57.44 57.09 57.73 57.17L58.64 57.41C59.16 57.55 59.6 57.77 59.94 58.08C60.28 58.39 60.46 58.82 60.46 59.37C60.46 59.76 60.35 60.0999 60.14 60.3899C59.93 60.6799 59.63 60.8999 59.26 61.0499C58.89 61.1999 58.47 61.28 58 61.28C57.34 61.28 56.77 61.13 56.3 60.82C55.83 60.52 55.48 60.09 55.25 59.54L56.31 59.01V59Z" fill="#F3F6F9"/>
</svg>
