<svg width="28" height="25" viewBox="0 0 28 25" fill="none" xmlns="http://www.w3.org/2000/svg">
<path d="M14 20.708L7.12501 24.833C6.90301 24.9443 6.69468 24.993 6.50001 24.979C6.30535 24.965 6.12468 24.9023 5.95801 24.791C5.79135 24.6803 5.65935 24.5277 5.56201 24.333C5.46535 24.1383 5.45868 23.93 5.54201 23.708L7.33301 15.875L1.29201 10.583C1.09735 10.4163 0.979346 10.2357 0.938013 10.041C0.896013 9.847 0.902679 9.65267 0.958013 9.458C1.01401 9.26333 1.11835 9.10367 1.27101 8.979C1.42368 8.85367 1.62501 8.77733 1.87501 8.75L9.87501 8.041L13 0.625C13.1113 0.430333 13.2573 0.277334 13.438 0.166C13.618 0.0553337 13.8053 0 14 0C14.1947 0 14.382 0.0553337 14.562 0.166C14.7427 0.277334 14.8887 0.430333 15 0.625L18.125 8.041L26.125 8.75C26.375 8.77733 26.5763 8.85367 26.729 8.979C26.8817 9.10367 26.986 9.26333 27.042 9.458C27.0973 9.65267 27.104 9.847 27.062 10.041C27.0207 10.2357 26.9027 10.4163 26.708 10.583L20.667 15.875L22.5 23.708C22.5553 23.93 22.5347 24.1383 22.438 24.333C22.3407 24.5277 22.2087 24.6803 22.042 24.791C21.8753 24.9023 21.6947 24.965 21.5 24.979C21.3053 24.993 21.097 24.9443 20.875 24.833L14 20.708Z" fill="#FF6644"/>
</svg>
