<svg width="20" height="20" viewBox="0 0 20 20" fill="none" xmlns="http://www.w3.org/2000/svg">
<mask id="mask0_108_2406" style="mask-type:alpha" maskUnits="userSpaceOnUse" x="0" y="0" width="20" height="20">
<rect width="20" height="20" fill="#D9D9D9"/>
</mask>
<g mask="url(#mask0_108_2406)">
<path d="M9.50188 13.7767L5.60943 16.104C5.4626 16.1728 5.32811 16.2005 5.20598 16.1868C5.08383 16.1732 4.97143 16.1319 4.86877 16.063C4.76613 15.9942 4.69077 15.8905 4.64269 15.7522C4.5946 15.6138 4.59265 15.4777 4.63684 15.3438L5.65818 11.0187L2.22768 8.10663C2.11463 8.01048 2.04447 7.89646 2.01719 7.76458C1.98991 7.63268 1.9951 7.50502 2.03277 7.38158C2.07046 7.25813 2.14063 7.15612 2.24329 7.07556C2.34595 6.995 2.46939 6.94952 2.61362 6.93914L7.10641 6.53761L8.88987 2.41125C8.95484 2.27093 9.0406 2.1673 9.14714 2.10037C9.2537 2.03346 9.37195 2 9.50188 2C9.63182 2 9.75007 2.03346 9.85663 2.10037C9.96317 2.1673 10.0489 2.27093 10.1139 2.41125L11.8974 6.56295L16.3902 6.93914C16.5344 6.94952 16.6578 6.99922 16.7605 7.08823C16.8631 7.17724 16.9333 7.28347 16.971 7.40692C17.0087 7.53036 17.0096 7.6538 16.9739 7.77725C16.9382 7.90069 16.8638 8.01048 16.7508 8.10663L13.3456 11.0187L14.3669 15.3438C14.4111 15.4777 14.4092 15.6138 14.3611 15.7522C14.313 15.8905 14.2376 15.9942 14.135 16.063C14.0323 16.1319 13.9199 16.1732 13.7978 16.1868C13.6757 16.2005 13.5412 16.1728 13.3943 16.104L9.50188 13.7767Z" fill="#FF6644"/>
</g>
</svg>
