<svg width="28" height="26" viewBox="0 0 28 26" fill="none" xmlns="http://www.w3.org/2000/svg">
<path d="M14 4.49999V19.042L19.875 22.625L18.333 15.917L23.5 11.417L16.667 10.833L14 4.49999ZM14 21.5L7.12501 25.625C6.90301 25.7363 6.69468 25.785 6.50001 25.771C6.30535 25.757 6.12468 25.6943 5.95801 25.583C5.79135 25.4723 5.65935 25.3197 5.56201 25.125C5.46535 24.9303 5.45868 24.722 5.54201 24.5L7.33301 16.667L1.29201 11.375C1.09735 11.2083 0.979346 11.0277 0.938013 10.833C0.896013 10.639 0.902679 10.4447 0.958013 10.25C1.01401 10.0553 1.11835 9.89566 1.27101 9.77099C1.42368 9.64566 1.62501 9.56933 1.87501 9.54199L9.87501 8.83299L13 1.41699C13.1113 1.22233 13.2573 1.06933 13.438 0.957993C13.618 0.847326 13.8053 0.791992 14 0.791992C14.1947 0.791992 14.382 0.847326 14.562 0.957993C14.7427 1.06933 14.8887 1.22233 15 1.41699L18.125 8.83299L26.125 9.54199C26.375 9.56933 26.5763 9.64566 26.729 9.77099C26.8817 9.89566 26.986 10.0553 27.042 10.25C27.0973 10.4447 27.104 10.639 27.062 10.833C27.0207 11.0277 26.9027 11.2083 26.708 11.375L20.667 16.667L22.5 24.5C22.5553 24.722 22.5347 24.9303 22.438 25.125C22.3407 25.3197 22.2087 25.4723 22.042 25.583C21.8753 25.6943 21.6947 25.757 21.5 25.771C21.3053 25.785 21.097 25.7363 20.875 25.625L14 21.5Z" fill="#FF6644"/>
</svg>
