<svg width="70" height="70" viewBox="0 0 70 70" fill="none" xmlns="http://www.w3.org/2000/svg">
<path d="M41.54 11H27.75C26.2754 11 25.08 12.1954 25.08 13.67V13.68C25.08 15.1546 26.2754 16.35 27.75 16.35H41.54C43.0146 16.35 44.21 15.1546 44.21 13.68V13.67C44.21 12.1954 43.0146 11 41.54 11Z" fill="#FF6644"/>
<path d="M40.77 32.5899C39.66 32.5899 38.74 31.6799 38.74 30.5599C38.74 29.4399 39.65 28.5299 40.77 28.5299H48.31V28.0799C48.31 23.8399 44.84 20.3799 40.61 20.3799H28.7C24.46 20.3799 21 23.8499 21 28.0799V53.2599C21 57.4999 24.47 60.9599 28.7 60.9599H40.61C44.85 60.9599 48.31 57.4899 48.31 53.2599V32.5899H40.77Z" fill="#418CFC"/>
</svg>
