<svg width="20" height="20" viewBox="0 0 20 20" fill="none" xmlns="http://www.w3.org/2000/svg">
<mask id="mask0_288_889" style="mask-type:alpha" maskUnits="userSpaceOnUse" x="0" y="0" width="20" height="20">
<rect width="20" height="20" fill="#D9D9D9"/>
</mask>
<g mask="url(#mask0_288_889)">
<path d="M5.37825 12.0833C5.16351 12.0833 4.97735 12.0045 4.81977 11.8469C4.66217 11.6893 4.58337 11.5032 4.58337 11.2884V8.71156C4.58337 8.49683 4.66217 8.31067 4.81977 8.15308C4.97735 7.99549 5.16351 7.91669 5.37825 7.91669H7.55131L9.90704 5.64429C10.1581 5.39322 10.4447 5.33606 10.7668 5.47281C11.0889 5.60958 11.25 5.8537 11.25 6.20519V13.7948C11.25 14.1463 11.0889 14.3904 10.7668 14.5272C10.4447 14.6639 10.1581 14.6068 9.90704 14.3557L7.55131 12.0833H5.37825ZM13.3205 13.024V6.97598C13.86 7.29542 14.2748 7.71876 14.5649 8.246C14.855 8.77325 15 9.36486 15 10.0208C15 10.6768 14.855 11.2615 14.5649 11.7748C14.2748 12.2882 13.86 12.7046 13.3205 13.024Z" fill="#FF6644"/>
</g>
</svg>
