<svg width="44" height="44" viewBox="0 0 44 44" fill="none" xmlns="http://www.w3.org/2000/svg">
<path d="M22 5.5C17.9886 5.5 14.1415 7.09352 11.305 9.93001C8.46852 12.7665 6.875 16.6136 6.875 20.625C6.875 20.9897 7.01987 21.3394 7.27773 21.5973C7.53559 21.8551 7.88533 22 8.25 22H35.75C36.1147 22 36.4644 21.8551 36.7223 21.5973C36.9801 21.3394 37.125 20.9897 37.125 20.625C37.125 16.6136 35.5315 12.7665 32.695 9.93001C29.8585 7.09352 26.0114 5.5 22 5.5Z" fill="#FBFBFB"/>
<path d="M37.5513 26.125H26.125C25.7603 26.125 25.4106 25.9801 25.1527 25.7223C24.8949 25.4644 24.75 25.1147 24.75 24.75C24.75 24.3853 24.8949 24.0356 25.1527 23.7777C25.4106 23.5199 25.7603 23.375 26.125 23.375H38.2663C38.4208 22.4665 38.499 21.5466 38.5 20.625C38.5 20.2603 38.3551 19.9106 38.0973 19.6527C37.8394 19.3949 37.4897 19.25 37.125 19.25H6.875C6.51033 19.25 6.16059 19.3949 5.90273 19.6527C5.64487 19.9106 5.5 20.2603 5.5 20.625C5.50185 23.839 6.44232 26.9825 8.20593 29.6695C9.96953 32.3564 12.4795 34.4698 15.4275 35.75H15.125C14.7603 35.75 14.4106 35.8949 14.1527 36.1527C13.8949 36.4106 13.75 36.7603 13.75 37.125C13.75 37.4897 13.8949 37.8394 14.1527 38.0973C14.4106 38.3551 14.7603 38.5 15.125 38.5H28.875C29.2397 38.5 29.5894 38.3551 29.8473 38.0973C30.1051 37.8394 30.25 37.4897 30.25 37.125C30.25 36.7603 30.1051 36.4106 29.8473 36.1527C29.5894 35.8949 29.2397 35.75 28.875 35.75H28.5725C30.6464 34.8428 32.5128 33.5209 34.0569 31.8657C35.601 30.2105 36.7901 28.2568 37.5513 26.125Z" fill="#FF6644"/>
</svg>
