<svg width="44" height="44" viewBox="0 0 44 44" fill="none" xmlns="http://www.w3.org/2000/svg">
<path d="M33.825 12.4438L31.625 10.1751C31.0093 9.55685 30.2775 9.06632 29.4717 8.73161C28.6659 8.39691 27.8019 8.22461 26.9294 8.22461C26.0569 8.22461 25.1929 8.39691 24.3871 8.73161C23.5813 9.06632 22.8495 9.55685 22.2338 10.1751L10.175 22.1651C9.54643 22.782 9.0471 23.5181 8.70624 24.3302C8.36538 25.1423 8.18982 26.0143 8.18982 26.8951C8.18982 27.7758 8.36538 28.6478 8.70624 29.4599C9.0471 30.2721 9.54643 31.0081 10.175 31.6251L12.4438 33.8251C13.0595 34.4433 13.7913 34.9338 14.5971 35.2685C15.4029 35.6032 16.2669 35.7755 17.1394 35.7755C18.0119 35.7755 18.8759 35.6032 19.6817 35.2685C20.4875 34.9338 21.2193 34.4433 21.835 33.8251L33.825 21.8351C34.4432 21.2193 34.9338 20.4875 35.2685 19.6817C35.6032 18.8759 35.7755 18.012 35.7755 17.1394C35.7755 16.2669 35.6032 15.4029 35.2685 14.5971C34.9338 13.7913 34.4432 13.0596 33.825 12.4438Z" fill="#D2591E"/>
<path d="M27.5 20.625C27.1353 20.625 26.7856 20.4801 26.5277 20.2223C26.2699 19.9644 26.125 19.6147 26.125 19.25V13.75C26.125 13.3853 26.2699 13.0356 26.5277 12.7777C26.7856 12.5199 27.1353 12.375 27.5 12.375C27.8647 12.375 28.2144 12.5199 28.4723 12.7777C28.7301 13.0356 28.875 13.3853 28.875 13.75V19.25C28.875 19.6147 28.7301 19.9644 28.4723 20.2223C28.2144 20.4801 27.8647 20.625 27.5 20.625Z" fill="#BA4C19"/>
<path d="M22 26.125C21.6353 26.125 21.2856 25.9801 21.0277 25.7223C20.7699 25.4644 20.625 25.1147 20.625 24.75V19.25C20.625 18.8853 20.7699 18.5356 21.0277 18.2777C21.2856 18.0199 21.6353 17.875 22 17.875C22.3647 17.875 22.7144 18.0199 22.9723 18.2777C23.2301 18.5356 23.375 18.8853 23.375 19.25V24.75C23.375 25.1147 23.2301 25.4644 22.9723 25.7223C22.7144 25.9801 22.3647 26.125 22 26.125Z" fill="#BA4C19"/>
<path d="M16.5 31.625C16.1353 31.625 15.7856 31.4801 15.5277 31.2223C15.2699 30.9644 15.125 30.6147 15.125 30.25V24.75C15.125 24.3853 15.2699 24.0356 15.5277 23.7777C15.7856 23.5199 16.1353 23.375 16.5 23.375C16.8647 23.375 17.2144 23.5199 17.4723 23.7777C17.7301 24.0356 17.875 24.3853 17.875 24.75V30.25C17.875 30.6147 17.7301 30.9644 17.4723 31.2223C17.2144 31.4801 16.8647 31.625 16.5 31.625Z" fill="#BA4C19"/>
</svg>
