<svg width="44" height="44" viewBox="0 0 44 44" fill="none" xmlns="http://www.w3.org/2000/svg">
<path d="M33 28.875H11C10.6353 28.875 10.2856 29.0199 10.0277 29.2777C9.76987 29.5356 9.625 29.8853 9.625 30.25V32.5738C9.62863 33.7797 10.1093 34.9352 10.962 35.788C11.8148 36.6407 12.9703 37.1214 14.1763 37.125H29.8238C31.0297 37.1214 32.1852 36.6407 33.038 35.788C33.8907 34.9352 34.3714 33.7797 34.375 32.5738V30.25C34.375 29.8853 34.2301 29.5356 33.9723 29.2777C33.7144 29.0199 33.3647 28.875 33 28.875Z" fill="#FFDE9E"/>
<path d="M22 6.875C15.125 6.875 9.625 11.8113 9.625 17.875C9.625 18.2397 9.76987 18.5894 10.0277 18.8473C10.2856 19.1051 10.6353 19.25 11 19.25H33C33.3647 19.25 33.7144 19.1051 33.9723 18.8473C34.2301 18.5894 34.375 18.2397 34.375 17.875C34.375 11.8113 28.875 6.875 22 6.875Z" fill="#FFDE9E"/>
<path d="M33 28.1599C31.9648 28.1748 30.949 27.8778 30.085 27.3074C29.6471 27.0028 29.1265 26.8395 28.5931 26.8395C28.0597 26.8395 27.5391 27.0028 27.1012 27.3074C26.2333 27.8636 25.224 28.1592 24.1931 28.1592C23.1622 28.1592 22.153 27.8636 21.285 27.3074C20.8471 27.0028 20.3265 26.8395 19.7931 26.8395C19.2597 26.8395 18.7391 27.0028 18.3013 27.3074C17.4333 27.8636 16.424 28.1592 15.3931 28.1592C14.3622 28.1592 13.353 27.8636 12.485 27.3074C12.056 26.9904 11.5333 26.8258 11 26.8399C10.6353 26.8399 10.2856 26.695 10.0277 26.4372C9.76987 26.1793 9.625 25.8296 9.625 25.4649C9.625 25.1002 9.76987 24.7505 10.0277 24.4926C10.2856 24.2348 10.6353 24.0899 11 24.0899C12.0314 24.0717 13.0437 24.3691 13.9012 24.9424C14.3355 25.2595 14.8625 25.4239 15.4 25.4099C15.9333 25.424 16.456 25.2594 16.885 24.9424C17.753 24.3862 18.7622 24.0906 19.7931 24.0906C20.824 24.0906 21.8333 24.3862 22.7013 24.9424C23.1391 25.247 23.6597 25.4103 24.1931 25.4103C24.7265 25.4103 25.2471 25.247 25.685 24.9424C26.553 24.3862 27.5622 24.0906 28.5931 24.0906C29.624 24.0906 30.6333 24.3862 31.5012 24.9424C31.9355 25.2595 32.4625 25.4239 33 25.4099C33.3647 25.4099 33.7144 25.5548 33.9723 25.8126C34.2301 26.0705 34.375 26.4202 34.375 26.7849C34.375 27.1496 34.2301 27.4993 33.9723 27.7572C33.7144 28.015 33.3647 28.1599 33 28.1599Z" fill="#3ADC86"/>
<path d="M33 24.0349C31.9648 24.0498 30.949 23.7528 30.085 23.1824C29.6471 22.8778 29.1265 22.7145 28.5931 22.7145C28.0597 22.7145 27.5391 22.8778 27.1012 23.1824C26.2333 23.7386 25.224 24.0342 24.1931 24.0342C23.1622 24.0342 22.153 23.7386 21.285 23.1824C20.8471 22.8778 20.3265 22.7145 19.7931 22.7145C19.2597 22.7145 18.7391 22.8778 18.3013 23.1824C17.4333 23.7386 16.424 24.0342 15.3931 24.0342C14.3622 24.0342 13.353 23.7386 12.485 23.1824C12.056 22.8654 11.5333 22.7008 11 22.7149C10.6353 22.7149 10.2856 22.57 10.0277 22.3122C9.76987 22.0543 9.625 21.7046 9.625 21.3399C9.625 20.9752 9.76987 20.6255 10.0277 20.3676C10.2856 20.1098 10.6353 19.9649 11 19.9649C12.0314 19.9467 13.0437 20.2442 13.9012 20.8174C14.3355 21.1345 14.8625 21.2989 15.4 21.2849C15.9333 21.299 16.456 21.1344 16.885 20.8174C17.753 20.2612 18.7622 19.9656 19.7931 19.9656C20.824 19.9656 21.8333 20.2612 22.7013 20.8174C23.1391 21.122 23.6597 21.2853 24.1931 21.2853C24.7265 21.2853 25.2471 21.122 25.685 20.8174C26.553 20.2612 27.5622 19.9656 28.5931 19.9656C29.624 19.9656 30.6333 20.2612 31.5012 20.8174C31.9355 21.1345 32.4625 21.2989 33 21.2849C33.3647 21.2849 33.7144 21.4298 33.9723 21.6876C34.2301 21.9455 34.375 22.2952 34.375 22.6599C34.375 23.0246 34.2301 23.3743 33.9723 23.6322C33.7144 23.89 33.3647 24.0349 33 24.0349V24.0349Z" fill="#FF6644"/>
</svg>
