<svg width="44" height="44" viewBox="0 0 44 44" fill="none" xmlns="http://www.w3.org/2000/svg">
<path d="M31.4049 13.75C31.5615 13.3089 31.6361 12.8429 31.6249 12.375C31.6249 11.281 31.1903 10.2318 30.4168 9.45818C29.6432 8.6846 28.594 8.25 27.4999 8.25C26.4842 8.25229 25.505 8.62928 24.7499 9.30875C23.9761 8.6694 23.0037 8.31966 21.9999 8.31966C20.9962 8.31966 20.0238 8.6694 19.2499 9.30875C18.6569 8.77835 17.9232 8.43076 17.1372 8.30785C16.3511 8.18495 15.5463 8.29198 14.8197 8.61604C14.0931 8.94011 13.4757 9.46738 13.042 10.1343C12.6082 10.8013 12.3766 11.5794 12.3749 12.375C12.373 12.8187 12.4426 13.2598 12.5812 13.6812C8.82101 17.6181 6.76984 22.882 6.87494 28.325C6.87494 33.2612 13.5162 37.125 21.9999 37.125C30.4837 37.125 37.1249 33.2612 37.1249 28.325C37.2082 22.9037 35.1533 17.6676 31.4049 13.75Z" fill="#FFDE9E"/>
<path d="M22 19.25C21.6353 19.25 21.2856 19.1051 21.0277 18.8473C20.7699 18.5894 20.625 18.2397 20.625 17.875V15.125C20.625 14.7603 20.7699 14.4106 21.0277 14.1527C21.2856 13.8949 21.6353 13.75 22 13.75C22.3647 13.75 22.7144 13.8949 22.9723 14.1527C23.2301 14.4106 23.375 14.7603 23.375 15.125V17.875C23.375 18.2397 23.2301 18.5894 22.9723 18.8473C22.7144 19.1051 22.3647 19.25 22 19.25Z" fill="#FFC773"/>
<path d="M17.875 19.25C17.5103 19.25 17.1606 19.1051 16.9027 18.8473C16.6449 18.5894 16.5 18.2397 16.5 17.875V15.125C16.5 14.7603 16.6449 14.4106 16.9027 14.1527C17.1606 13.8949 17.5103 13.75 17.875 13.75C18.2397 13.75 18.5894 13.8949 18.8473 14.1527C19.1051 14.4106 19.25 14.7603 19.25 15.125V17.875C19.25 18.2397 19.1051 18.5894 18.8473 18.8473C18.5894 19.1051 18.2397 19.25 17.875 19.25Z" fill="#FFC773"/>
<path d="M26.125 19.25C25.7603 19.25 25.4106 19.1051 25.1527 18.8473C24.8949 18.5894 24.75 18.2397 24.75 17.875V15.125C24.75 14.7603 24.8949 14.4106 25.1527 14.1527C25.4106 13.8949 25.7603 13.75 26.125 13.75C26.4897 13.75 26.8394 13.8949 27.0973 14.1527C27.3551 14.4106 27.5 14.7603 27.5 15.125V17.875C27.5 18.2397 27.3551 18.5894 27.0973 18.8473C26.8394 19.1051 26.4897 19.25 26.125 19.25Z" fill="#FFC773"/>
</svg>
