<svg width="44" height="46" viewBox="0 0 44 46" fill="none" xmlns="http://www.w3.org/2000/svg">
<g filter="url(#filter0_d_258_1358)">
<path d="M22 5.5C12.8975 5.5 5.5 15.125 5.5 27.0875C5.5 32.7113 12.7463 37.125 22 37.125C31.2537 37.125 38.5 32.7113 38.5 27.0875C38.5 15.125 31.1025 5.5 22 5.5Z" fill="#FBFBFB"/>
<path d="M26.125 23.375H17.875C17.1156 23.375 16.5 23.9906 16.5 24.75V35.75C16.5 36.5094 17.1156 37.125 17.875 37.125H26.125C26.8844 37.125 27.5 36.5094 27.5 35.75V24.75C27.5 23.9906 26.8844 23.375 26.125 23.375Z" fill="#353A40"/>
</g>
<defs>
<filter id="filter0_d_258_1358" x="-4" y="0" width="52" height="52" filterUnits="userSpaceOnUse" color-interpolation-filters="sRGB">
<feFlood flood-opacity="0" result="BackgroundImageFix"/>
<feColorMatrix in="SourceAlpha" type="matrix" values="0 0 0 0 0 0 0 0 0 0 0 0 0 0 0 0 0 0 127 0" result="hardAlpha"/>
<feOffset dy="4"/>
<feGaussianBlur stdDeviation="2"/>
<feComposite in2="hardAlpha" operator="out"/>
<feColorMatrix type="matrix" values="0 0 0 0 0 0 0 0 0 0 0 0 0 0 0 0 0 0 0.25 0"/>
<feBlend mode="normal" in2="BackgroundImageFix" result="effect1_dropShadow_258_1358"/>
<feBlend mode="normal" in="SourceGraphic" in2="effect1_dropShadow_258_1358" result="shape"/>
</filter>
</defs>
</svg>
