<svg width="44" height="44" viewBox="0 0 44 44" fill="none" xmlns="http://www.w3.org/2000/svg">
<path d="M10.8212 12.8838C10.6402 12.8849 10.4608 12.8502 10.2933 12.7817C10.1258 12.7133 9.97342 12.6125 9.84494 12.4851L7.90619 10.5326C7.68093 10.2695 7.56322 9.93117 7.57659 9.58511C7.58995 9.23906 7.73341 8.91079 7.97829 8.66591C8.22317 8.42103 8.55144 8.27758 8.89749 8.26421C9.24355 8.25084 9.5819 8.36855 9.84494 8.59381L11.7974 10.5326C11.9263 10.6604 12.0286 10.8125 12.0984 10.98C12.1682 11.1476 12.2042 11.3273 12.2042 11.5088C12.2042 11.6903 12.1682 11.87 12.0984 12.0376C12.0286 12.2052 11.9263 12.3572 11.7974 12.4851C11.669 12.6125 11.5166 12.7133 11.3491 12.7817C11.1815 12.8502 11.0021 12.8849 10.8212 12.8838Z" fill="#418CFC"/>
<path d="M35.1312 37.1938C34.9492 37.1931 34.7693 37.1562 34.6017 37.0854C34.4341 37.0146 34.2823 36.9112 34.1549 36.7813L28.3249 30.9513C28.1727 30.8313 28.0477 30.6805 27.9578 30.5088C27.868 30.3371 27.8155 30.1483 27.8038 29.9549C27.7921 29.7615 27.8213 29.5678 27.8897 29.3864C27.9581 29.2051 28.064 29.0403 28.2005 28.9028C28.3371 28.7653 28.5011 28.6582 28.682 28.5885C28.8628 28.5188 29.0563 28.4882 29.2498 28.4986C29.4433 28.5089 29.6325 28.5601 29.8048 28.6487C29.9772 28.7372 30.1288 28.8613 30.2499 29.0126L36.0799 34.8426C36.336 35.1002 36.4798 35.4487 36.4798 35.8119C36.4798 36.1752 36.336 36.5237 36.0799 36.7813C35.8294 37.0371 35.4891 37.1851 35.1312 37.1938Z" fill="#418CFC"/>
<path d="M30.4661 22.5133C29.9046 21.971 29.2341 21.5544 28.4992 21.2913C27.7642 21.0281 26.9817 20.9244 26.2036 20.9871C26.2036 20.8496 26.2036 20.7121 26.2036 20.5746C26.2041 19.8521 26.0624 19.1366 25.7863 18.4689C25.5103 17.8012 25.1054 17.1945 24.5948 16.6833C23.882 15.9876 22.9971 15.4937 22.0308 15.2521C21.0644 15.0105 20.0512 15.0299 19.0948 15.3083C19.3866 14.3531 19.4128 13.3365 19.1706 12.3675C18.9283 11.3986 18.4268 10.5138 17.7198 9.80834C16.6712 8.80806 15.2777 8.25 13.8286 8.25C12.3794 8.25 10.9859 8.80806 9.93732 9.80834C9.13338 10.5815 8.58351 11.5808 8.36066 12.6737C8.1378 13.7666 8.2525 14.9014 8.68953 15.9276C9.12656 16.9538 9.86527 17.8229 10.8076 18.4195C11.75 19.0162 12.8516 19.3122 13.9661 19.2683C14.4926 19.2543 15.015 19.1711 15.5198 19.0208C15.3608 19.5236 15.2774 20.0473 15.2723 20.5746C15.2723 22.0333 15.8518 23.4322 16.8832 24.4637C17.9147 25.4951 19.3136 26.0746 20.7723 26.0746C20.896 26.0813 21.0199 26.0813 21.1436 26.0746C21.0797 26.9961 21.2489 27.919 21.6357 28.7579C22.0224 29.5968 22.6143 30.3247 23.3566 30.8746C24.0988 31.4245 24.9677 31.7785 25.8829 31.9041C26.7981 32.0296 27.7301 31.9226 28.5931 31.593C29.456 31.2633 30.2221 30.7216 30.8205 30.0179C31.4188 29.3141 31.8304 28.471 32.017 27.5663C32.2036 26.6615 32.1594 25.7244 31.8883 24.8413C31.6172 23.9582 31.1281 23.1576 30.4661 22.5133Z" fill="#FBFBFB"/>
<path d="M30.4663 22.5133C29.9048 21.971 29.2343 21.5544 28.4994 21.2913C27.7645 21.0281 26.9819 20.9244 26.2038 20.9871C26.2038 20.8496 26.2038 20.7121 26.2038 20.5746C26.2044 19.8521 26.0626 19.1366 25.7866 18.4689C25.5105 17.8012 25.1057 17.1945 24.5951 16.6833C23.8822 15.9876 22.9974 15.4937 22.031 15.2521C21.0646 15.0105 20.0515 15.0299 19.0951 15.3083C19.3869 14.3531 19.4131 13.3365 19.1708 12.3675C18.9286 11.3986 18.427 10.5138 17.7201 9.80834C16.6715 8.80806 15.278 8.25 13.8288 8.25C12.3797 8.25 10.9861 8.80806 9.93757 9.80834C9.13363 10.5815 8.58376 11.5808 8.3609 12.6737C8.13805 13.7666 8.25274 14.9014 8.68977 15.9276C9.1268 16.9538 9.86551 17.8229 10.8079 18.4195C11.7503 19.0162 12.8518 19.3122 13.9663 19.2683C14.4928 19.2543 15.0152 19.1711 15.5201 19.0208C15.361 19.5236 15.2776 20.0473 15.2726 20.5746C15.2726 22.0333 15.852 23.4322 16.8835 24.4637C17.9149 25.4951 19.3139 26.0746 20.7726 26.0746C20.8962 26.0813 21.0202 26.0813 21.1438 26.0746C21.0799 26.9961 21.2491 27.919 21.6359 28.7579C22.0227 29.5968 22.6145 30.3247 23.3568 30.8746C24.0991 31.4245 24.9679 31.7785 25.8831 31.9041C26.7983 32.0296 27.7304 31.9226 28.5933 31.593C29.4563 31.2633 30.2223 30.7216 30.8207 30.0179C31.4191 29.3141 31.8306 28.471 32.0172 27.5663C32.2039 26.6615 32.1596 25.7244 31.8885 24.8413C31.6175 23.9582 31.1284 23.1576 30.4663 22.5133Z" fill="#FF6644"/>
</svg>
