<svg width="44" height="44" viewBox="0 0 44 44" fill="none" xmlns="http://www.w3.org/2000/svg">
<path d="M27.5 27.5H16.5C15.7406 27.5 15.125 28.1156 15.125 28.875V33C15.125 33.7594 15.7406 34.375 16.5 34.375H27.5C28.2594 34.375 28.875 33.7594 28.875 33V28.875C28.875 28.1156 28.2594 27.5 27.5 27.5Z" fill="#7E8B95"/>
<path d="M26.125 19.25C25.7603 19.25 25.4106 19.1051 25.1527 18.8473C24.8949 18.5894 24.75 18.2397 24.75 17.875C24.75 17.5103 24.8949 17.1606 25.1527 16.9027C25.4106 16.6449 25.7603 16.5 26.125 16.5H38.2525C38.4117 15.5919 38.4945 14.672 38.5 13.75C38.5 13.3853 38.3551 13.0356 38.0973 12.7777C37.8394 12.5199 37.4897 12.375 37.125 12.375H6.875C6.51033 12.375 6.16059 12.5199 5.90273 12.7777C5.64487 13.0356 5.5 13.3853 5.5 13.75C5.51242 17.6329 6.89384 21.387 9.40119 24.3519C11.9085 27.3167 15.3812 29.3023 19.2081 29.9593C23.0351 30.6163 26.9711 29.9026 30.3238 27.9437C33.6764 25.9849 36.2308 22.9064 37.5375 19.25H26.125Z" fill="#A7B4BE"/>
</svg>
