<svg width="44" height="44" viewBox="0 0 44 44" fill="none" xmlns="http://www.w3.org/2000/svg">
<path d="M10.3125 17.0913C12.327 17.0346 14.3084 17.6118 15.9775 18.7413C16.7108 17.4092 17.865 16.3578 19.2595 15.7517C20.654 15.1455 22.2101 15.0187 23.6843 15.3912C25.1586 15.7637 26.4677 16.6144 27.4069 17.8102C28.3461 19.0061 28.8624 20.4795 28.875 22C28.875 22.88 30.745 24.1588 33.6875 24.1588C36.63 24.1588 38.5 22.88 38.5 22C38.5013 17.9831 37.0373 14.1035 34.3823 11.089C31.7274 8.07452 28.0639 6.13206 24.0789 5.62592C20.094 5.11979 16.0613 6.08475 12.737 8.33984C9.41276 10.5949 7.02534 13.9853 6.02246 17.875C7.38314 17.3208 8.84372 17.054 10.3125 17.0913Z" fill="#D2591E"/>
<path d="M33.6875 26.9088C31.673 26.9654 29.6915 26.3883 28.0225 25.2588C27.2892 26.5909 26.135 27.6423 24.7405 28.2484C23.346 28.8546 21.7899 28.9814 20.3156 28.6089C18.8414 28.2364 17.5322 27.3857 16.593 26.1898C15.6538 24.994 15.1375 23.5206 15.125 22.0001C15.125 21.1201 13.255 19.8413 10.3125 19.8413C7.37 19.8413 5.5 21.1201 5.5 22.0001C5.49864 26.017 6.96271 29.8965 9.61766 32.911C12.2726 35.9256 15.9361 37.868 19.921 38.3742C23.906 38.8803 27.9387 37.9153 31.263 35.6602C34.5872 33.4051 36.9746 30.0148 37.9775 26.1251C36.6168 26.6793 35.1562 26.9461 33.6875 26.9088Z" fill="#FFDE9E"/>
<path d="M19.25 11H17.875C17.5103 11 17.1606 10.8551 16.9027 10.5973C16.6449 10.3394 16.5 9.98967 16.5 9.625C16.5 9.26033 16.6449 8.91059 16.9027 8.65273C17.1606 8.39487 17.5103 8.25 17.875 8.25H19.25C19.6147 8.25 19.9644 8.39487 20.2223 8.65273C20.4801 8.91059 20.625 9.26033 20.625 9.625C20.625 9.98967 20.4801 10.3394 20.2223 10.5973C19.9644 10.8551 19.6147 11 19.25 11Z" fill="#3ADC86"/>
<path d="M24.75 12.375C24.3853 12.375 24.0356 12.2301 23.7777 11.9723C23.5199 11.7144 23.375 11.3647 23.375 11V9.625C23.375 9.26033 23.5199 8.91059 23.7777 8.65273C24.0356 8.39487 24.3853 8.25 24.75 8.25C25.1147 8.25 25.4644 8.39487 25.7223 8.65273C25.9801 8.91059 26.125 9.26033 26.125 9.625V11C26.125 11.3647 25.9801 11.7144 25.7223 11.9723C25.4644 12.2301 25.1147 12.375 24.75 12.375Z" fill="#418CFC"/>
<path d="M28.875 15.125C28.5103 15.125 28.1606 14.9801 27.9027 14.7223C27.6449 14.4644 27.5 14.1147 27.5 13.75V12.375C27.5 12.0103 27.6449 11.6606 27.9027 11.4027C28.1606 11.1449 28.5103 11 28.875 11C29.2397 11 29.5894 11.1449 29.8473 11.4027C30.1051 11.6606 30.25 12.0103 30.25 12.375V13.75C30.25 14.1147 30.1051 14.4644 29.8473 14.7223C29.5894 14.9801 29.2397 15.125 28.875 15.125Z" fill="#FFDE9E"/>
<path d="M33 19.25H31.625C31.2603 19.25 30.9106 19.1051 30.6527 18.8473C30.3949 18.5894 30.25 18.2397 30.25 17.875C30.25 17.5103 30.3949 17.1606 30.6527 16.9027C30.9106 16.6449 31.2603 16.5 31.625 16.5H33C33.3647 16.5 33.7144 16.6449 33.9723 16.9027C34.2301 17.1606 34.375 17.5103 34.375 17.875C34.375 18.2397 34.2301 18.5894 33.9723 18.8473C33.7144 19.1051 33.3647 19.25 33 19.25Z" fill="#3ADC86"/>
<path d="M13.75 15.125C13.3853 15.125 13.0356 14.9801 12.7777 14.7223C12.5199 14.4644 12.375 14.1147 12.375 13.75V12.375C12.375 12.0103 12.5199 11.6606 12.7777 11.4027C13.0356 11.1449 13.3853 11 13.75 11C14.1147 11 14.4644 11.1449 14.7223 11.4027C14.9801 11.6606 15.125 12.0103 15.125 12.375V13.75C15.125 14.1147 14.9801 14.4644 14.7223 14.7223C14.4644 14.9801 14.1147 15.125 13.75 15.125Z" fill="#FFDE9E"/>
</svg>
