<svg width="1556" height="1817" viewBox="0 0 1556 1817" fill="none" xmlns="http://www.w3.org/2000/svg">
<path d="M1226.84 1119.76C1322.78 1194.16 1405.44 1194.16 1444.14 1190.56C1511.63 1184.3 1561.23 1124.71 1554.89 1057.51C1549.26 997.383 1496.94 964.873 1452.43 952.364C1424.46 944.517 1383.4 947.29 1340.61 922.981" fill="#FF6644"/>
<path d="M870.042 730.986C1037.03 785.21 1204.67 1231.8 1152.47 1516.73C1341.09 1679.52 1213.98 1836.7 956.144 1785.54C598.461 1749.55 796.502 1474.6 747.259 1227.73C720 1115.98 664.356 1075.5 629.631 1049.54C418.494 897.197 664.653 571.56 870.101 730.927L870.042 730.986Z" fill="#FF6644"/>
<path d="M1050.48 1802.71C1141.98 1802.71 1211.96 1772.39 1239.04 1717.4C1268.44 1657.63 1239.81 1583.64 1160.53 1513.89C1183.81 1380.55 1161.47 1201.89 1100.44 1034.79C1039.34 867.4 954.603 751.578 873.597 724.377C814.102 678.709 745.658 668.443 680.771 695.584C607.349 726.207 551.884 799.724 542.758 878.375C534.64 948.352 563.972 1011.31 625.305 1055.56L626.312 1056.33C661.097 1082.29 713.718 1121.53 740.088 1229.5C755.377 1306.03 746.488 1384.74 737.896 1460.79C726.814 1559.21 716.326 1652.14 767.11 1714.86C802.132 1758.11 863.642 1783.6 955.077 1792.86C988.677 1799.47 1020.74 1802.71 1050.48 1802.71ZM752.71 695.584C791.643 695.584 830.22 709.509 865.479 736.827L866.486 737.594L867.731 738.007C1034.36 792.113 1195.13 1242.6 1145.18 1515.43L1144.41 1519.56L1147.61 1522.33C1223.81 1588.12 1252.32 1656.92 1225.71 1710.96C1192.88 1777.7 1087.7 1804.13 957.625 1778.35L956.914 1778.23C869.39 1769.44 811.08 1745.66 778.606 1705.59C731.673 1647.71 741.333 1561.86 752.592 1462.44C761.303 1385.21 770.31 1305.38 754.547 1226.31C726.873 1112.85 669.511 1070.08 635.201 1044.53L634.075 1043.7C577.128 1002.63 549.987 944.517 557.454 880.086C565.987 806.509 617.838 737.83 686.519 709.155C708.326 700.068 730.607 695.525 752.769 695.525L752.71 695.584Z" fill="#F56140"/>
<path d="M712.356 723.552C856.827 822.972 889.538 1298.59 757.866 1556.85C891.968 1766.49 725.155 1880.95 492.685 1758.76C160.187 1622.64 428.805 1415.36 452.33 1164.83C458.197 1049.96 416.538 995.378 390.642 960.626C231.948 754.647 561.188 512.499 712.415 723.552H712.356Z" fill="#FF6644"/>
<path d="M669.038 1816.34C716.978 1816.34 756.918 1802.24 783.229 1773.8C828.562 1724.89 822.339 1645.77 766.281 1556.44C826.843 1435.3 856.591 1257.7 845.983 1080.17C835.376 902.39 787.377 767.273 717.571 718.183C673.66 657.528 610.965 628.263 540.981 635.756C461.812 644.252 387.62 698.948 356.273 771.757C328.421 836.543 338.495 905.163 384.598 965.051L385.369 966.113C411.264 1000.87 450.434 1053.44 444.745 1164.42C437.457 1242.13 406.405 1315 376.361 1385.51C337.488 1476.66 300.807 1562.75 331.562 1637.27C352.776 1688.66 404.39 1730.55 489.367 1765.42C553.899 1799.29 616.239 1816.34 668.92 1816.34H669.038ZM562.255 649.386C619.143 649.386 669.749 676.763 706.312 727.8L707.082 728.862L708.149 729.57C852.383 828.813 877.331 1306.21 751.229 1553.49L749.333 1557.26L751.585 1560.8C805.806 1645.53 813.332 1719.52 772.385 1763.77C721.837 1818.41 613.335 1813.87 496.122 1752.21L495.471 1751.91C414.109 1718.64 365.043 1679.28 345.369 1631.66C316.984 1562.81 350.88 1483.33 390.109 1391.23C420.568 1319.72 452.093 1245.73 459.678 1165.48C465.664 1048.89 422.938 991.602 397.398 957.321L396.568 956.2C353.784 900.679 344.362 837.251 370.021 777.599C399.294 709.509 468.686 658.413 542.699 650.448C549.336 649.74 555.855 649.386 562.314 649.386H562.255Z" fill="#F56140"/>
<path d="M1216.94 370.479C1244.44 337.083 1239.52 287.816 1205.98 260.439C1172.44 233.061 1122.96 237.958 1095.46 271.354L1053.86 237.84C1100.08 181.67 1183.28 173.468 1239.7 219.491C1296.11 265.513 1304.35 348.353 1258.12 404.523L1216.94 370.479Z" fill="#FF6644"/>
<path d="M173.935 831.998C173.935 1191.27 496.122 1453.77 856.946 1453.77C1217.77 1453.77 1480.64 1191.33 1480.64 831.998C1480.64 472.671 1188.14 181.433 827.257 181.433C466.374 181.433 173.875 472.671 173.875 831.998H173.935Z" fill="#FF6644"/>
<path d="M736.772 694.003C725.411 598.574 771.345 514.705 839.367 506.677C907.389 498.648 971.742 569.501 983.103 664.93C994.463 760.359 948.53 844.228 880.507 852.256C812.485 860.284 748.132 789.432 736.772 694.003Z" fill="white"/>
<path d="M990.287 664.061C978.926 568.632 1024.86 484.764 1092.88 476.735C1160.9 468.707 1225.26 539.559 1236.62 634.989C1247.98 730.418 1202.04 814.287 1134.02 822.315C1066 830.343 1001.65 759.491 990.287 664.061Z" fill="white"/>
<path d="M1021.6 650.005C1015.71 600.527 1041.21 556.844 1078.55 552.437C1115.89 548.03 1150.94 584.567 1156.83 634.045C1162.72 683.523 1137.22 727.206 1099.88 731.613C1062.54 736.02 1027.49 699.483 1021.6 650.005Z" fill="#353A40"/>
<path d="M759.718 674.997C753.827 625.518 779.324 581.836 816.667 577.428C854.009 573.021 889.056 609.558 894.947 659.036C900.837 708.515 875.34 752.197 837.997 756.605C800.655 761.012 765.608 724.475 759.718 674.997Z" fill="#353A40"/>
<path d="M778.845 46.4942C765.95 46.4942 755.497 36.0862 755.497 23.2471C755.497 10.4081 765.95 0 778.845 0C791.739 0 802.192 10.4081 802.192 23.2471C802.192 36.0862 791.739 46.4942 778.845 46.4942Z" fill="#FFC773"/>
<path d="M970.782 220.73C987.433 219.55 999.167 203.855 995.433 187.629C973.982 93.6376 887.82 26.6104 790.044 33.4547C692.268 40.2991 616.358 118.655 608.358 214.711C606.995 231.291 620.802 245.216 637.454 244.036L970.782 220.73Z" fill="#FFC773"/>
<path d="M518.877 298.201C490.611 265.454 441.071 261.678 408.123 289.822C375.235 317.967 371.442 367.293 399.708 400.099L359.353 435.087C311.828 380.038 318.169 297.021 373.457 249.7C428.745 202.38 512.121 208.693 559.646 263.743L518.818 298.201H518.877Z" fill="#FF6644"/>
<path d="M206.054 921.211C89.8479 885.455 42.5599 818.015 23.3602 784.324C-10.0615 725.617 10.6196 651.037 69.5816 617.759C122.322 587.963 179.032 612.095 214.765 641.243C237.223 659.593 258.438 694.699 302.941 715.704" fill="#FF6644"/>
<path d="M206.052 928.587C209.193 928.587 212.156 926.581 213.104 923.395C214.289 919.501 212.096 915.371 208.185 914.191C125.816 888.878 65.7875 843.918 29.7584 780.726C14.5883 754.057 10.6773 723.08 18.9142 693.52C27.1511 663.96 46.4101 639.355 73.1949 624.192C132.927 590.442 193.074 633.101 210.081 646.967C216.837 652.454 223.77 659.888 231.118 667.795C247.592 685.437 268.095 707.445 299.799 722.431C303.473 724.142 307.917 722.608 309.695 718.95C311.413 715.292 309.873 710.867 306.198 709.097C277.103 695.349 258.496 675.406 242.022 657.764C234.318 649.504 227.03 641.715 219.504 635.579C200.66 620.179 133.875 573.036 65.9654 611.388C35.7436 628.44 13.9957 656.23 4.7514 689.626C-4.4929 722.962 -0.166997 757.951 17.0179 788.042C54.9432 854.657 117.876 901.859 203.978 928.351C204.689 928.587 205.459 928.705 206.171 928.705L206.052 928.587Z" fill="#F56140"/>
<path d="M872.888 919.087C879.881 977.795 940.68 1018.86 1008.71 1010.84C1076.74 1002.81 1126.22 948.707 1119.23 889.999C1112.23 831.291 1065.42 878.611 997.39 886.636C929.361 894.66 865.955 860.38 872.948 919.087H872.888Z" fill="#FFECE8"/>
</svg>
