<svg width="430" height="430" viewBox="0 0 430 430" fill="none" xmlns="http://www.w3.org/2000/svg">
<rect width="430" height="430" fill="white"/>
<path d="M215.5 377C305.246 377 378 304.246 378 214.5C378 124.754 305.246 52 215.5 52C125.754 52 53 124.754 53 214.5C53 304.246 125.754 377 215.5 377Z" fill="#FF6644"/>
<path d="M131.642 140.969L106.744 149.411L112.669 166.883L137.566 158.442L131.642 140.969Z" fill="#3ADC86"/>
<path d="M126.429 131.64L105.187 138.842C102.588 139.723 101.195 142.545 102.076 145.145L104.369 151.907C105.25 154.506 108.072 155.899 110.672 155.018L131.914 147.815C134.513 146.934 135.906 144.112 135.025 141.512L132.732 134.75C131.851 132.151 129.029 130.758 126.429 131.64Z" fill="#FFF8CC"/>
<path d="M118.098 158.141L127.928 154.808C145.221 148.944 164.015 158.221 169.879 175.514L207.949 287.795C209.304 291.792 207.164 296.129 203.167 297.484L145.151 317.155C141.155 318.51 136.818 316.369 135.463 312.373L97.3921 200.091C91.5286 182.798 100.805 164.004 118.098 158.141Z" fill="#3ADC86"/>
<path d="M343.991 189.663L199.647 155.595C193.197 154.073 186.733 158.067 185.211 164.517C183.689 170.968 187.683 177.431 194.134 178.953L338.478 213.021C344.928 214.544 351.391 210.549 352.913 204.099C354.436 197.649 350.441 191.186 343.991 189.663Z" fill="#F2F5F8"/>
<path d="M286.11 292.8L205.29 273.72C188.08 269.66 177.31 252.28 181.36 235.11L191.91 173.54L342.87 209.18L324.77 268.97C320.72 286.14 303.32 296.87 286.1 292.81L286.11 292.8Z" fill="#DCE2EC"/>
<path d="M220.433 201.803C221.154 198.75 219.265 195.691 216.215 194.971C213.164 194.251 210.107 196.142 209.387 199.195L196.355 254.408C195.635 257.462 197.524 260.52 200.574 261.24C203.624 261.96 206.681 260.069 207.402 257.016L220.433 201.803Z" fill="#F2F5F8"/>
<path d="M252.492 208.128C253.213 205.075 251.324 202.016 248.273 201.296C245.223 200.576 242.166 202.468 241.445 205.521L228.414 260.734C227.693 263.787 229.582 266.845 232.633 267.565C235.683 268.285 238.74 266.394 239.461 263.341L252.492 208.128Z" fill="#F2F5F8"/>
<path d="M284.553 214.453C285.274 211.4 283.385 208.342 280.334 207.622C277.284 206.902 274.227 208.793 273.506 211.846L260.475 267.059C259.754 270.112 261.643 273.171 264.693 273.891C267.744 274.611 270.801 272.72 271.522 269.666L284.553 214.453Z" fill="#F2F5F8"/>
<path d="M316.612 220.779C317.332 217.726 315.443 214.667 312.393 213.947C309.343 213.227 306.286 215.118 305.565 218.171L292.534 273.384C291.813 276.438 293.702 279.496 296.752 280.216C299.803 280.936 302.86 279.045 303.58 275.992L316.612 220.779Z" fill="#F2F5F8"/>
<mask id="mask0_578_6340" style="mask-type:luminance" maskUnits="userSpaceOnUse" x="53" y="52" width="325" height="325">
<path d="M215.5 377C305.246 377 378 304.246 378 214.5C378 124.754 305.246 52 215.5 52C125.754 52 53 124.754 53 214.5C53 304.246 125.754 377 215.5 377Z" fill="white"/>
</mask>
<g mask="url(#mask0_578_6340)">
<path d="M485.99 253.76C475.54 253.76 467.08 245.34 467.08 234.95C467.08 224.56 458.61 216.14 448.17 216.14C437.73 216.14 429.26 224.56 429.26 234.95C429.26 245.34 420.79 253.76 410.35 253.76C399.91 253.76 391.44 245.34 391.44 234.95H391.35C391.35 224.56 382.88 216.14 372.44 216.14C362 216.14 353.53 224.56 353.53 234.95C353.53 245.34 345.06 253.76 334.62 253.76C324.18 253.76 315.71 245.34 315.71 234.95C315.71 224.56 307.24 216.14 296.8 216.14C286.36 216.14 277.89 224.56 277.89 234.95C277.89 245.34 269.42 253.76 258.98 253.76C248.54 253.76 240.07 245.34 240.07 234.95H239.98C239.98 224.56 231.51 216.14 221.07 216.14C210.63 216.14 202.16 224.56 202.16 234.95C202.16 245.34 193.69 253.76 183.25 253.76C172.81 253.76 164.34 245.34 164.34 234.95C164.34 224.56 155.87 216.14 145.43 216.14C134.99 216.14 126.52 224.56 126.52 234.95C126.52 245.34 118.05 253.76 107.61 253.76C97.17 253.76 88.7 245.34 88.7 234.95H88.61C88.61 224.56 80.14 216.14 69.7 216.14C59.26 216.14 50.79 224.56 50.79 234.95C50.79 245.34 42.32 253.76 31.88 253.76C21.44 253.76 12.97 245.34 12.97 234.95C12.97 224.56 4.49999 216.14 -5.94001 216.14C-16.38 216.14 -24.85 224.56 -24.85 234.95C-24.85 245.34 -33.32 253.76 -43.76 253.76C-54.2 253.76 -62.67 245.34 -62.67 234.95H-62.76C-62.76 224.56 -71.23 216.14 -81.67 216.14C-92.11 216.14 -100.7 224.57 -100.7 234.95V463.33H504.91V234.95C504.91 245.34 496.44 253.76 486 253.76H485.99Z" fill="#418CFC"/>
</g>
</svg>
