<svg width="430" height="430" viewBox="0 0 430 430" fill="none" xmlns="http://www.w3.org/2000/svg">
<rect width="430" height="430" fill="white"/>
<path d="M215.5 377C305.246 377 378 304.246 378 214.5C378 124.754 305.246 52 215.5 52C125.754 52 53 124.754 53 214.5C53 304.246 125.754 377 215.5 377Z" fill="#353A40"/>
<path d="M165 229C185.987 229 203 211.987 203 191C203 170.013 185.987 153 165 153C144.013 153 127 170.013 127 191C127 211.987 144.013 229 165 229Z" fill="#21262A"/>
<path d="M322 298C342.987 298 360 280.987 360 260C360 239.013 342.987 222 322 222C301.013 222 284 239.013 284 260C284 280.987 301.013 298 322 298Z" fill="#21262A"/>
<mask id="mask0_578_6837" style="mask-type:luminance" maskUnits="userSpaceOnUse" x="53" y="52" width="325" height="325">
<path d="M215.5 377C305.246 377 378 304.246 378 214.5C378 124.754 305.246 52 215.5 52C125.754 52 53 124.754 53 214.5C53 304.246 125.754 377 215.5 377Z" fill="white"/>
</mask>
<g mask="url(#mask0_578_6837)">
<mask id="mask1_578_6837" style="mask-type:luminance" maskUnits="userSpaceOnUse" x="-491" y="37" width="1225" height="383">
<path d="M733.09 37.3401H-490.05V419.89H733.09V37.3401Z" fill="white"/>
</mask>
<g mask="url(#mask1_578_6837)">
<path d="M80.9299 69.6201H48.3299C46.9878 69.6201 45.8999 70.7081 45.8999 72.0501C45.8999 73.3922 46.9878 74.4801 48.3299 74.4801H80.9299C82.2719 74.4801 83.3599 73.3922 83.3599 72.0501C83.3599 70.7081 82.2719 69.6201 80.9299 69.6201Z" fill="#3ADC86"/>
<path d="M25.3099 68.6301H59.1699C60.0799 68.6301 60.8199 69.3701 60.8199 70.2801V71.4701C60.8199 76.0801 57.0799 79.8201 52.4699 79.8201H31.9999C27.3899 79.8201 23.6499 76.0801 23.6499 71.4701V70.2801C23.6499 69.3701 24.3899 68.6301 25.2999 68.6301H25.3099Z" fill="#FF6644"/>
<path d="M59.0799 64.5801H25.6899C24.5687 64.5801 23.6599 65.4867 23.6599 66.6051C23.6599 67.7235 24.5687 68.6301 25.6899 68.6301H59.0799C60.201 68.6301 61.1099 67.7235 61.1099 66.6051C61.1099 65.4867 60.201 64.5801 59.0799 64.5801Z" fill="#FFDE9E"/>
<path d="M275.73 76.4099H247.56C246.776 76.4099 246.14 77.0457 246.14 77.8299V79.0399C246.14 79.8242 246.776 80.4599 247.56 80.4599H275.73C276.514 80.4599 277.15 79.8242 277.15 79.0399V77.8299C277.15 77.0457 276.514 76.4099 275.73 76.4099Z" fill="#FF6644"/>
<path d="M273.88 63.51C275.3 63.51 276.47 64.67 276.47 66.1V68.27C276.47 70.82 274.38 72.91 271.83 72.91H251.46C248.91 72.91 246.82 70.82 246.82 68.27V66.1C246.82 64.68 247.98 63.51 249.41 63.51H273.88ZM273.88 59.23H249.41C245.62 59.23 242.54 62.31 242.54 66.1V68.27C242.54 73.19 246.54 77.19 251.46 77.19H271.83C276.75 77.19 280.75 73.19 280.75 68.27V66.1C280.75 62.31 277.67 59.23 273.88 59.23Z" fill="#FFDE9E"/>
<path d="M261.64 58.01C264.346 58.01 266.54 55.8162 266.54 53.11C266.54 50.4038 264.346 48.21 261.64 48.21C258.934 48.21 256.74 50.4038 256.74 53.11C256.74 55.8162 258.934 58.01 261.64 58.01Z" fill="#418CFC"/>
<path d="M277.27 55.21H246.01C244.889 55.21 243.98 56.1166 243.98 57.235C243.98 58.3533 244.889 59.26 246.01 59.26H277.27C278.391 59.26 279.3 58.3533 279.3 57.235C279.3 56.1166 278.391 55.21 277.27 55.21Z" fill="#3ADC86"/>
<path d="M170.7 55.5999C169.59 55.5999 168.67 54.6899 168.67 53.5699C168.67 52.4499 169.58 51.5399 170.7 51.5399H178.24V51.0899C178.24 46.8499 174.77 43.3899 170.54 43.3899H158.63C154.39 43.3899 150.93 46.8599 150.93 51.0899V76.2699C150.93 80.5099 154.4 83.9699 158.63 83.9699H170.54C174.78 83.9699 178.24 80.4999 178.24 76.2699V55.5999H170.7Z" fill="#418CFC"/>
<path d="M344.16 143.71H301.34C300.556 143.71 299.92 144.346 299.92 145.13V146.34C299.92 147.124 300.556 147.76 301.34 147.76H344.16C344.944 147.76 345.58 147.124 345.58 146.34V145.13C345.58 144.346 344.944 143.71 344.16 143.71Z" fill="#FF6644"/>
<path d="M296.5 120.84H349C349.67 120.84 350.21 121.38 350.21 122.05V139.47C350.21 142.39 347.84 144.77 344.91 144.77H299.63C297.23 144.77 295.29 142.82 295.29 140.43V122.05C295.29 121.38 295.83 120.84 296.5 120.84Z" fill="#3ADC86"/>
<path d="M322.75 118.29C325.456 118.29 327.65 116.096 327.65 113.39C327.65 110.684 325.456 108.49 322.75 108.49C320.044 108.49 317.85 110.684 317.85 113.39C317.85 116.096 320.044 118.29 322.75 118.29Z" fill="#3ADC86"/>
<path d="M349.15 115.49H296.36C294.885 115.49 293.69 116.685 293.69 118.16V118.17C293.69 119.645 294.885 120.84 296.36 120.84H349.15C350.625 120.84 351.82 119.645 351.82 118.17V118.16C351.82 116.685 350.625 115.49 349.15 115.49Z" fill="#FF6644"/>
<path d="M233.56 143.71H193.11C192.325 143.71 191.69 144.346 191.69 145.13V146.34C191.69 147.124 192.325 147.76 193.11 147.76H233.56C234.344 147.76 234.98 147.124 234.98 146.34V145.13C234.98 144.346 234.344 143.71 233.56 143.71Z" fill="#418CFC"/>
<path d="M188.51 122.23H238.16C238.83 122.23 239.37 122.77 239.37 123.44V139.62C239.37 142.54 237 144.92 234.07 144.92H191.64C189.24 144.92 187.3 142.97 187.3 140.58V123.45C187.3 122.78 187.84 122.24 188.51 122.24V122.23Z" fill="#FF6644"/>
<path d="M213.34 119.82C215.908 119.82 217.99 117.738 217.99 115.17C217.99 112.602 215.908 110.52 213.34 110.52C210.772 110.52 208.69 112.602 208.69 115.17C208.69 117.738 210.772 119.82 213.34 119.82Z" fill="#FF6644"/>
<path d="M238.37 117.17H188.31C186.912 117.17 185.78 118.303 185.78 119.7V119.71C185.78 121.107 186.912 122.24 188.31 122.24H238.37C239.767 122.24 240.9 121.107 240.9 119.71V119.7C240.9 118.303 239.767 117.17 238.37 117.17Z" fill="#418CFC"/>
<path d="M126.5 143.71H90.1299C89.3457 143.71 88.71 144.346 88.71 145.13V146.34C88.71 147.124 89.3457 147.76 90.1299 147.76H126.5C127.284 147.76 127.92 147.124 127.92 146.34V145.13C127.92 144.346 127.284 143.71 126.5 143.71Z" fill="#3ADC86"/>
<path d="M85.9399 124.64H130.68C131.35 124.64 131.89 125.18 131.89 125.85V139.89C131.89 142.81 129.52 145.19 126.59 145.19H89.0699C86.6699 145.19 84.73 143.24 84.73 140.85V125.85C84.73 125.18 85.2699 124.64 85.9399 124.64Z" fill="#418CFC"/>
<path d="M108.32 122.46C110.645 122.46 112.53 120.575 112.53 118.25C112.53 115.925 110.645 114.04 108.32 114.04C105.995 114.04 104.11 115.925 104.11 118.25C104.11 120.575 105.995 122.46 108.32 122.46Z" fill="#418CFC"/>
<path d="M130.98 120.05H85.6599C84.3897 120.05 83.3599 121.078 83.3599 122.345C83.3599 123.613 84.3897 124.64 85.6599 124.64H130.98C132.25 124.64 133.28 123.613 133.28 122.345C133.28 121.078 132.25 120.05 130.98 120.05Z" fill="#3ADC86"/>
<path d="M403.21 69.6201H370.61C369.268 69.6201 368.18 70.7081 368.18 72.0501C368.18 73.3922 369.268 74.4801 370.61 74.4801H403.21C404.552 74.4801 405.64 73.3922 405.64 72.0501C405.64 70.7081 404.552 69.6201 403.21 69.6201Z" fill="#3ADC86"/>
<path d="M347.59 68.6301H381.45C382.36 68.6301 383.1 69.3701 383.1 70.2801V71.4701C383.1 76.0801 379.36 79.8201 374.75 79.8201H354.28C349.67 79.8201 345.93 76.0801 345.93 71.4701V70.2801C345.93 69.3701 346.67 68.6301 347.58 68.6301H347.59Z" fill="#FF6644"/>
<path d="M381.36 64.5801H347.97C346.849 64.5801 345.94 65.4867 345.94 66.6051C345.94 67.7235 346.849 68.6301 347.97 68.6301H381.36C382.481 68.6301 383.39 67.7235 383.39 66.6051C383.39 65.4867 382.481 64.5801 381.36 64.5801Z" fill="#FFDE9E"/>
<path d="M80.9299 200.39H48.3299C46.9878 200.39 45.8999 201.478 45.8999 202.82C45.8999 204.162 46.9878 205.25 48.3299 205.25H80.9299C82.2719 205.25 83.3599 204.162 83.3599 202.82C83.3599 201.478 82.2719 200.39 80.9299 200.39Z" fill="#3ADC86"/>
<path d="M25.3099 199.4H59.1699C60.0799 199.4 60.8199 200.14 60.8199 201.05V202.24C60.8199 206.85 57.0799 210.59 52.4699 210.59H31.9999C27.3899 210.59 23.6499 206.85 23.6499 202.24V201.05C23.6499 200.14 24.3899 199.4 25.2999 199.4H25.3099Z" fill="#FF6644"/>
<path d="M59.0799 195.35H25.6899C24.5687 195.35 23.6599 196.257 23.6599 197.375C23.6599 198.493 24.5687 199.4 25.6899 199.4H59.0799C60.201 199.4 61.1099 198.493 61.1099 197.375C61.1099 196.257 60.201 195.35 59.0799 195.35Z" fill="#FFDE9E"/>
<path d="M275.73 207.18H247.56C246.776 207.18 246.14 207.816 246.14 208.6V209.81C246.14 210.594 246.776 211.23 247.56 211.23H275.73C276.514 211.23 277.15 210.594 277.15 209.81V208.6C277.15 207.816 276.514 207.18 275.73 207.18Z" fill="#FF6644"/>
<path d="M273.88 194.29C275.3 194.29 276.47 195.45 276.47 196.88V199.05C276.47 201.6 274.38 203.69 271.83 203.69H251.46C248.91 203.69 246.82 201.6 246.82 199.05V196.88C246.82 195.46 247.98 194.29 249.41 194.29H273.88ZM273.88 190.01H249.41C245.62 190.01 242.54 193.09 242.54 196.88V199.05C242.54 203.97 246.54 207.97 251.46 207.97H271.83C276.75 207.97 280.75 203.97 280.75 199.05V196.88C280.75 193.09 277.67 190.01 273.88 190.01Z" fill="#FFDE9E"/>
<path d="M261.64 188.78C264.346 188.78 266.54 186.586 266.54 183.88C266.54 181.174 264.346 178.98 261.64 178.98C258.934 178.98 256.74 181.174 256.74 183.88C256.74 186.586 258.934 188.78 261.64 188.78Z" fill="#418CFC"/>
<path d="M277.27 185.98H246.01C244.889 185.98 243.98 186.887 243.98 188.005C243.98 189.123 244.889 190.03 246.01 190.03H277.27C278.391 190.03 279.3 189.123 279.3 188.005C279.3 186.887 278.391 185.98 277.27 185.98Z" fill="#3ADC86"/>
<path d="M171.48 164.77H157.69C156.215 164.77 155.02 165.965 155.02 167.44V167.45C155.02 168.925 156.215 170.12 157.69 170.12H171.48C172.955 170.12 174.15 168.925 174.15 167.45V167.44C174.15 165.965 172.955 164.77 171.48 164.77Z" fill="#FF6644"/>
<path d="M170.7 186.37C169.59 186.37 168.67 185.46 168.67 184.34C168.67 183.22 169.58 182.31 170.7 182.31H178.24V181.86C178.24 177.62 174.77 174.16 170.54 174.16H158.63C154.39 174.16 150.93 177.63 150.93 181.86V207.04C150.93 211.28 154.4 214.74 158.63 214.74H170.54C174.78 214.74 178.24 211.27 178.24 207.04V186.36H170.7V186.37Z" fill="#418CFC"/>
<path d="M344.16 274.49H301.34C300.556 274.49 299.92 275.126 299.92 275.91V277.12C299.92 277.904 300.556 278.54 301.34 278.54H344.16C344.944 278.54 345.58 277.904 345.58 277.12V275.91C345.58 275.126 344.944 274.49 344.16 274.49Z" fill="#FF6644"/>
<path d="M296.5 251.61H349C349.67 251.61 350.21 252.15 350.21 252.82V270.24C350.21 273.16 347.84 275.54 344.91 275.54H299.63C297.23 275.54 295.29 273.59 295.29 271.2V252.82C295.29 252.15 295.83 251.61 296.5 251.61Z" fill="#3ADC86"/>
<path d="M322.75 249.06C325.456 249.06 327.65 246.866 327.65 244.16C327.65 241.454 325.456 239.26 322.75 239.26C320.044 239.26 317.85 241.454 317.85 244.16C317.85 246.866 320.044 249.06 322.75 249.06Z" fill="#3ADC86"/>
<path d="M349.15 246.26H296.36C294.885 246.26 293.69 247.455 293.69 248.93V248.94C293.69 250.415 294.885 251.61 296.36 251.61H349.15C350.625 251.61 351.82 250.415 351.82 248.94V248.93C351.82 247.455 350.625 246.26 349.15 246.26Z" fill="#FF6644"/>
<path d="M233.56 274.49H193.11C192.325 274.49 191.69 275.126 191.69 275.91V277.12C191.69 277.904 192.325 278.54 193.11 278.54H233.56C234.344 278.54 234.98 277.904 234.98 277.12V275.91C234.98 275.126 234.344 274.49 233.56 274.49Z" fill="#418CFC"/>
<path d="M188.51 253.01H238.16C238.83 253.01 239.37 253.55 239.37 254.22V270.4C239.37 273.32 237 275.7 234.07 275.7H191.64C189.24 275.7 187.3 273.75 187.3 271.36V254.23C187.3 253.56 187.84 253.02 188.51 253.02V253.01Z" fill="#FF6644"/>
<path d="M213.34 250.6C215.908 250.6 217.99 248.518 217.99 245.95C217.99 243.382 215.908 241.3 213.34 241.3C210.772 241.3 208.69 243.382 208.69 245.95C208.69 248.518 210.772 250.6 213.34 250.6Z" fill="#FF6644"/>
<path d="M238.37 247.94H188.31C186.912 247.94 185.78 249.073 185.78 250.47V250.48C185.78 251.877 186.912 253.01 188.31 253.01H238.37C239.767 253.01 240.9 251.877 240.9 250.48V250.47C240.9 249.073 239.767 247.94 238.37 247.94Z" fill="#418CFC"/>
<path d="M126.5 274.49H90.1299C89.3457 274.49 88.71 275.126 88.71 275.91V277.12C88.71 277.904 89.3457 278.54 90.1299 278.54H126.5C127.284 278.54 127.92 277.904 127.92 277.12V275.91C127.92 275.126 127.284 274.49 126.5 274.49Z" fill="#3ADC86"/>
<path d="M85.9399 255.41H130.68C131.35 255.41 131.89 255.95 131.89 256.62V270.66C131.89 273.58 129.52 275.96 126.59 275.96H89.0699C86.6699 275.96 84.73 274.01 84.73 271.62V256.62C84.73 255.95 85.2699 255.41 85.9399 255.41Z" fill="#418CFC"/>
<path d="M108.32 253.23C110.645 253.23 112.53 251.345 112.53 249.02C112.53 246.695 110.645 244.81 108.32 244.81C105.995 244.81 104.11 246.695 104.11 249.02C104.11 251.345 105.995 253.23 108.32 253.23Z" fill="#418CFC"/>
<path d="M130.98 250.82H85.6599C84.3897 250.82 83.3599 251.848 83.3599 253.115C83.3599 254.383 84.3897 255.41 85.6599 255.41H130.98C132.25 255.41 133.28 254.383 133.28 253.115C133.28 251.848 132.25 250.82 130.98 250.82Z" fill="#3ADC86"/>
<path d="M403.21 200.39H370.61C369.268 200.39 368.18 201.478 368.18 202.82C368.18 204.162 369.268 205.25 370.61 205.25H403.21C404.552 205.25 405.64 204.162 405.64 202.82C405.64 201.478 404.552 200.39 403.21 200.39Z" fill="#3ADC86"/>
<path d="M347.59 199.4H381.45C382.36 199.4 383.1 200.14 383.1 201.05V202.24C383.1 206.85 379.36 210.59 374.75 210.59H354.28C349.67 210.59 345.93 206.85 345.93 202.24V201.05C345.93 200.14 346.67 199.4 347.58 199.4H347.59Z" fill="#FF6644"/>
<path d="M381.36 195.35H347.97C346.849 195.35 345.94 196.257 345.94 197.375C345.94 198.493 346.849 199.4 347.97 199.4H381.36C382.481 199.4 383.39 198.493 383.39 197.375C383.39 196.257 382.481 195.35 381.36 195.35Z" fill="#FFDE9E"/>
<path d="M80.9299 331.16H48.3299C46.9878 331.16 45.8999 332.248 45.8999 333.59C45.8999 334.932 46.9878 336.02 48.3299 336.02H80.9299C82.2719 336.02 83.3599 334.932 83.3599 333.59C83.3599 332.248 82.2719 331.16 80.9299 331.16Z" fill="#3ADC86"/>
<path d="M25.3099 330.17H59.1699C60.0799 330.17 60.8199 330.91 60.8199 331.82V333.01C60.8199 337.62 57.0799 341.36 52.4699 341.36H31.9999C27.3899 341.36 23.6499 337.62 23.6499 333.01V331.82C23.6499 330.91 24.3899 330.17 25.2999 330.17H25.3099Z" fill="#FF6644"/>
<path d="M59.0799 326.12H25.6899C24.5687 326.12 23.6599 327.027 23.6599 328.145C23.6599 329.263 24.5687 330.17 25.6899 330.17H59.0799C60.201 330.17 61.1099 329.263 61.1099 328.145C61.1099 327.027 60.201 326.12 59.0799 326.12Z" fill="#FFDE9E"/>
<path d="M275.73 337.95H247.56C246.776 337.95 246.14 338.586 246.14 339.37V340.58C246.14 341.364 246.776 342 247.56 342H275.73C276.514 342 277.15 341.364 277.15 340.58V339.37C277.15 338.586 276.514 337.95 275.73 337.95Z" fill="#FF6644"/>
<path d="M273.88 325.06C275.3 325.06 276.47 326.22 276.47 327.65V329.82C276.47 332.37 274.38 334.46 271.83 334.46H251.46C248.91 334.46 246.82 332.37 246.82 329.82V327.65C246.82 326.23 247.98 325.06 249.41 325.06H273.88ZM273.88 320.78H249.41C245.62 320.78 242.54 323.86 242.54 327.65V329.82C242.54 334.74 246.54 338.74 251.46 338.74H271.83C276.75 338.74 280.75 334.74 280.75 329.82V327.65C280.75 323.86 277.67 320.78 273.88 320.78Z" fill="#FFDE9E"/>
<path d="M261.64 319.55C264.346 319.55 266.54 317.356 266.54 314.65C266.54 311.944 264.346 309.75 261.64 309.75C258.934 309.75 256.74 311.944 256.74 314.65C256.74 317.356 258.934 319.55 261.64 319.55Z" fill="#418CFC"/>
<path d="M277.27 316.75H246.01C244.889 316.75 243.98 317.657 243.98 318.775C243.98 319.893 244.889 320.8 246.01 320.8H277.27C278.391 320.8 279.3 319.893 279.3 318.775C279.3 317.657 278.391 316.75 277.27 316.75Z" fill="#3ADC86"/>
<path d="M171.48 295.54H157.69C156.215 295.54 155.02 296.735 155.02 298.21V298.22C155.02 299.695 156.215 300.89 157.69 300.89H171.48C172.955 300.89 174.15 299.695 174.15 298.22V298.21C174.15 296.735 172.955 295.54 171.48 295.54Z" fill="#FF6644"/>
<path d="M170.7 317.14C169.59 317.14 168.67 316.23 168.67 315.11C168.67 313.99 169.58 313.08 170.7 313.08H178.24V312.63C178.24 308.39 174.77 304.93 170.54 304.93H158.63C154.39 304.93 150.93 308.4 150.93 312.63V337.81C150.93 342.05 154.4 345.51 158.63 345.51H170.54C174.78 345.51 178.24 342.04 178.24 337.81V317.13H170.7V317.14Z" fill="#418CFC"/>
<path d="M322.75 379.83C325.456 379.83 327.65 377.636 327.65 374.93C327.65 372.224 325.456 370.03 322.75 370.03C320.044 370.03 317.85 372.224 317.85 374.93C317.85 377.636 320.044 379.83 322.75 379.83Z" fill="#3ADC86"/>
<path d="M213.34 381.37C215.908 381.37 217.99 379.288 217.99 376.72C217.99 374.152 215.908 372.07 213.34 372.07C210.772 372.07 208.69 374.152 208.69 376.72C208.69 379.288 210.772 381.37 213.34 381.37Z" fill="#FF6644"/>
<path d="M108.32 384C110.645 384 112.53 382.115 112.53 379.79C112.53 377.465 110.645 375.58 108.32 375.58C105.995 375.58 104.11 377.465 104.11 379.79C104.11 382.115 105.995 384 108.32 384Z" fill="#418CFC"/>
<path d="M403.21 331.16H370.61C369.268 331.16 368.18 332.248 368.18 333.59C368.18 334.932 369.268 336.02 370.61 336.02H403.21C404.552 336.02 405.64 334.932 405.64 333.59C405.64 332.248 404.552 331.16 403.21 331.16Z" fill="#3ADC86"/>
<path d="M347.59 330.17H381.45C382.36 330.17 383.1 330.91 383.1 331.82V333.01C383.1 337.62 379.36 341.36 374.75 341.36H354.28C349.67 341.36 345.93 337.62 345.93 333.01V331.82C345.93 330.91 346.67 330.17 347.58 330.17H347.59Z" fill="#FF6644"/>
<path d="M381.36 326.12H347.97C346.849 326.12 345.94 327.027 345.94 328.145C345.94 329.263 346.849 330.17 347.97 330.17H381.36C382.481 330.17 383.39 329.263 383.39 328.145C383.39 327.027 382.481 326.12 381.36 326.12Z" fill="#FFDE9E"/>
</g>
</g>
<path d="M347.01 235.08L361.17 203.52C361.58 202.6 362.5 202.01 363.51 202.01H391.76C394.23 202.01 395.27 205.16 393.29 206.63L350.88 238.19C348.76 239.77 345.93 237.49 347.01 235.08Z" fill="#F2F5F8"/>
<path d="M353.01 183.01C353.01 202.892 369.128 219.01 389.01 219.01C408.892 219.01 425.01 202.892 425.01 183.01C425.01 163.128 408.892 147.01 389.01 147.01C369.128 147.01 353.01 163.128 353.01 183.01Z" fill="#F2F5F8"/>
<path d="M389 202C378.52 202 370 193.48 370 183C370 172.52 378.52 164 389 164C399.48 164 408 172.52 408 183C408 193.48 399.48 202 389 202ZM389 170C381.83 170 376 175.83 376 183C376 190.17 381.83 196 389 196C396.17 196 402 190.17 402 183C402 175.83 396.17 170 389 170Z" fill="#FF6644"/>
<path d="M144.21 169.08L130.05 137.52C129.64 136.6 128.72 136.01 127.71 136.01H99.4601C96.9901 136.01 95.95 139.16 97.93 140.63L140.34 172.19C142.46 173.77 145.29 171.49 144.21 169.08Z" fill="#F2F5F8"/>
<path d="M138 118C138 98.1178 121.882 82 102 82C82.1177 82 66 98.1178 66 118C66 137.882 82.1177 154 102 154C121.882 154 138 137.882 138 118Z" fill="#F2F5F8"/>
<path d="M102 137C91.52 137 83 128.48 83 118C83 107.52 91.52 99 102 99C112.48 99 121 107.52 121 118C121 128.48 112.48 137 102 137ZM102 105C94.83 105 89 110.83 89 118C89 125.17 94.83 131 102 131C109.17 131 115 125.17 115 118C115 110.83 109.17 105 102 105Z" fill="#FF6644"/>
</svg>
