<svg width="430" height="430" viewBox="0 0 430 430" fill="none" xmlns="http://www.w3.org/2000/svg">
<rect width="430" height="430" fill="white"/>
<path d="M215.5 374.675C305.246 374.675 378 301.921 378 212.175C378 122.429 305.246 49.6748 215.5 49.6748C125.754 49.6748 53 122.429 53 212.175C53 301.921 125.754 374.675 215.5 374.675Z" fill="#418CFC"/>
<path d="M387.577 411L286.293 274.248H182.55L283.834 411H387.577Z" fill="#FFECE8"/>
<path d="M291.763 315.613C291.763 339.425 262.004 340.454 238.192 340.454C214.379 340.454 178.046 320.894 178.046 297.082C178.046 273.27 214.379 254.212 238.192 254.212C262.004 254.212 291.763 291.8 291.763 315.613Z" fill="#FFECE8"/>
<path d="M253.736 132.479H178.46C170.145 132.479 163.405 139.219 163.405 147.534V298.086C163.405 306.401 170.145 313.141 178.46 313.141H253.736C262.051 313.141 268.791 306.401 268.791 298.086V147.534C268.791 139.219 262.051 132.479 253.736 132.479Z" fill="white"/>
<mask id="mask0_578_6817" style="mask-type:luminance" maskUnits="userSpaceOnUse" x="163" y="132" width="106" height="182">
<path d="M253.736 132.479H178.46C170.145 132.479 163.405 139.219 163.405 147.534V298.086C163.405 306.401 170.145 313.141 178.46 313.141H253.736C262.051 313.141 268.791 306.401 268.791 298.086V147.534C268.791 139.219 262.051 132.479 253.736 132.479Z" fill="white"/>
</mask>
<g mask="url(#mask0_578_6817)">
<path d="M247.313 211.518H184.884C181.336 211.518 178.46 214.394 178.46 217.942V236.46C178.46 240.007 181.336 242.883 184.884 242.883H247.313C250.86 242.883 253.736 240.007 253.736 236.46V217.942C253.736 214.394 250.86 211.518 247.313 211.518Z" fill="#CAD2DB"/>
<path d="M202.988 216.537H187.807C186.109 216.537 184.733 217.913 184.733 219.611V234.791C184.733 236.489 186.109 237.865 187.807 237.865H202.988C204.685 237.865 206.061 236.489 206.061 234.791V219.611C206.061 217.913 204.685 216.537 202.988 216.537Z" fill="#A7B4BE"/>
<path d="M241.027 217.791H209.988C209.205 217.791 208.571 218.426 208.571 219.209V221.392C208.571 222.175 209.205 222.81 209.988 222.81H241.027C241.81 222.81 242.445 222.175 242.445 221.392V219.209C242.445 218.426 241.81 217.791 241.027 217.791Z" fill="#A7B4BE"/>
<path d="M225.972 225.319H209.988C209.205 225.319 208.571 225.954 208.571 226.737V228.92C208.571 229.703 209.205 230.337 209.988 230.337H225.972C226.755 230.337 227.39 229.703 227.39 228.92V226.737C227.39 225.954 226.755 225.319 225.972 225.319Z" fill="#A7B4BE"/>
<path d="M247.313 251.666H184.884C181.336 251.666 178.46 254.542 178.46 258.089V276.607C178.46 280.155 181.336 283.031 184.884 283.031H247.313C250.86 283.031 253.736 280.155 253.736 276.607V258.089C253.736 254.542 250.86 251.666 247.313 251.666Z" fill="#CAD2DB"/>
<path d="M202.988 255.43H187.807C186.109 255.43 184.733 256.806 184.733 258.503V273.684C184.733 275.382 186.109 276.758 187.807 276.758H202.988C204.685 276.758 206.061 275.382 206.061 273.684V258.503C206.061 256.806 204.685 255.43 202.988 255.43Z" fill="#A7B4BE"/>
<path d="M241.027 257.939H209.988C209.205 257.939 208.571 258.574 208.571 259.357V261.54C208.571 262.323 209.205 262.957 209.988 262.957H241.027C241.81 262.957 242.445 262.323 242.445 261.54V259.357C242.445 258.574 241.81 257.939 241.027 257.939Z" fill="#A7B4BE"/>
<path d="M225.972 264.212H209.988C209.205 264.212 208.571 264.847 208.571 265.63V267.813C208.571 268.596 209.205 269.23 209.988 269.23H225.972C226.755 269.23 227.39 268.596 227.39 267.813V265.63C227.39 264.847 226.755 264.212 225.972 264.212Z" fill="#A7B4BE"/>
<path d="M247.313 290.558H184.884C181.336 290.558 178.46 293.434 178.46 296.982V315.5C178.46 319.047 181.336 321.923 184.884 321.923H247.313C250.86 321.923 253.736 319.047 253.736 315.5V296.982C253.736 293.434 250.86 290.558 247.313 290.558Z" fill="#CAD2DB"/>
<path d="M202.988 295.577H187.807C186.109 295.577 184.733 296.953 184.733 298.651V313.831C184.733 315.529 186.109 316.905 187.807 316.905H202.988C204.685 316.905 206.061 315.529 206.061 313.831V298.651C206.061 296.953 204.685 295.577 202.988 295.577Z" fill="#A7B4BE"/>
<path d="M241.027 296.831H209.988C209.205 296.831 208.571 297.466 208.571 298.249V300.432C208.571 301.215 209.205 301.85 209.988 301.85H241.027C241.81 301.85 242.445 301.215 242.445 300.432V298.249C242.445 297.466 241.81 296.831 241.027 296.831Z" fill="#A7B4BE"/>
<path d="M225.972 304.359H209.988C209.205 304.359 208.571 304.993 208.571 305.776V307.959C208.571 308.742 209.205 309.377 209.988 309.377H225.972C226.755 309.377 227.39 308.742 227.39 307.959V305.776C227.39 304.993 226.755 304.359 225.972 304.359Z" fill="#A7B4BE"/>
<path d="M245.368 155.062H186.828C182.207 155.062 178.46 158.808 178.46 163.43V190.604C178.46 195.226 182.207 198.973 186.828 198.973H245.368C249.99 198.973 253.736 195.226 253.736 190.604V163.43C253.736 158.808 249.99 155.062 245.368 155.062Z" fill="#DCE2EC"/>
<path d="M229.899 173.88H202.298V191.445H229.899V173.88Z" fill="#F2F5F8"/>
<mask id="mask1_578_6817" style="mask-type:luminance" maskUnits="userSpaceOnUse" x="199" y="163" width="34" height="13">
<path d="M203.138 163.844H229.058C230.903 163.844 232.408 165.349 232.408 167.193V175.135H199.788V167.193C199.788 165.349 201.294 163.844 203.138 163.844Z" fill="white"/>
</mask>
<g mask="url(#mask1_578_6817)">
<path d="M206.061 163.844H199.788V172.626H199.801C199.801 172.626 199.788 172.688 199.788 172.726C199.788 173.855 201.194 174.771 202.925 174.771C204.656 174.771 206.061 173.855 206.061 172.726C206.061 172.688 206.061 172.663 206.049 172.626H206.061V163.844Z" fill="#495056"/>
<path d="M232.408 163.844H226.135V172.626H226.148C226.148 172.626 226.135 172.688 226.135 172.726C226.135 173.855 227.54 174.771 229.272 174.771C231.003 174.771 232.408 173.855 232.408 172.726C232.408 172.688 232.408 172.663 232.395 172.626H232.408V163.844Z" fill="#495056"/>
<path d="M226.135 163.844H219.862V172.626H219.875C219.875 172.626 219.862 172.688 219.862 172.726C219.862 173.855 221.267 174.771 222.999 174.771C224.73 174.771 226.135 173.855 226.135 172.726C226.135 172.688 226.135 172.663 226.123 172.626H226.135V163.844Z" fill="#7E8A94"/>
<path d="M218.607 163.844H212.334V172.626H212.347C212.347 172.626 212.334 172.688 212.334 172.726C212.334 173.855 213.74 174.771 215.471 174.771C217.202 174.771 218.607 173.855 218.607 172.726C218.607 172.688 218.607 172.663 218.595 172.626H218.607V163.844Z" fill="#495056"/>
<path d="M212.335 163.844H206.062V172.626H206.074C206.074 172.626 206.062 172.688 206.062 172.726C206.062 173.855 207.467 174.771 209.198 174.771C210.929 174.771 212.335 173.855 212.335 172.726C212.335 172.688 212.335 172.663 212.322 172.626H212.335V163.844Z" fill="#7E8A94"/>
</g>
<path d="M209.913 178.899H213.501C214.931 178.899 216.098 180.065 216.098 181.496V191.445H207.316V181.496C207.316 180.065 208.483 178.899 209.913 178.899Z" fill="#495056"/>
<path d="M228.908 190.19H202.034C201.487 190.19 201.043 190.634 201.043 191.181V191.708C201.043 192.256 201.487 192.7 202.034 192.7H228.908C229.455 192.7 229.899 192.256 229.899 191.708V191.181C229.899 190.634 229.455 190.19 228.908 190.19Z" fill="#CAD2DB"/>
</g>
<path d="M215.471 237.865C229.675 237.865 241.19 226.35 241.19 212.146C241.19 197.941 229.675 186.427 215.471 186.427C201.267 186.427 189.752 197.941 189.752 212.146C189.752 226.35 201.267 237.865 215.471 237.865Z" fill="#FF6644"/>
<path d="M213.213 223.023C212.56 223.023 211.933 222.772 211.456 222.308L202.486 213.513C201.495 212.547 201.482 210.954 202.448 209.963C203.414 208.971 205.007 208.959 205.999 209.925L212.886 216.675L223.412 202.084C224.228 200.967 225.796 200.704 226.913 201.519C228.042 202.335 228.293 203.903 227.477 205.019L215.232 221.982C214.806 222.571 214.141 222.948 213.413 223.01C213.338 223.01 213.275 223.01 213.2 223.01L213.213 223.023Z" fill="#FFECE8"/>
<path d="M296.393 192.699H265.028V236.61H296.393V192.699Z" fill="#FFECE8"/>
<path d="M287.673 163.819C275.478 163.819 265.605 176.754 265.605 192.7H296.393V166.165C293.72 164.659 290.772 163.819 287.673 163.819Z" fill="#FFECE8"/>
<path d="M253.598 325.236C237.464 318.022 223.965 288.288 233.437 265.391C239.835 249.922 253.523 235.268 269.557 228.958C277.825 225.696 296.079 220.966 296.079 220.966C296.079 220.966 298.174 238.555 298.952 248.128C300.345 265.027 301.373 277.611 298.638 288.074C291.964 313.518 270.949 332.977 253.598 325.223V325.236Z" fill="#FFECE8"/>
<path d="M164.961 300.595H157.684C151.148 300.595 145.841 295.288 145.841 288.752V288.601C145.841 282.065 151.148 276.758 157.684 276.758H161.598C168.135 276.758 173.442 282.065 173.442 288.601V292.114C173.442 296.794 169.64 300.595 164.961 300.595Z" fill="#FFECE8"/>
<path d="M161.837 272.994H154.535C147.66 272.994 142.077 267.411 142.077 260.535V260.36C142.077 253.485 147.66 247.902 154.535 247.902H158.474C165.35 247.902 170.932 253.485 170.932 260.36V263.898C170.932 268.916 166.855 272.994 161.837 272.994Z" fill="#FFECE8"/>
<path d="M161.122 242.884H153.995C146.719 242.884 140.822 236.987 140.822 229.71C140.822 222.434 146.719 216.537 153.995 216.537H157.759C165.036 216.537 170.932 222.434 170.932 229.71V233.073C170.932 238.492 166.541 242.884 161.122 242.884Z" fill="#FFECE8"/>
<path d="M165.55 119.531L147.986 66.9255C147.547 65.6082 146.317 64.73 144.937 64.73H109.896C107.036 64.73 105.593 68.1927 107.625 70.2251L160.231 122.831C162.627 125.227 166.629 122.755 165.563 119.531H165.55Z" fill="#FFF8CC"/>
<path d="M173.467 2H90.6129C76.0759 2 64.2914 13.7846 64.2914 28.3215V66.0098C64.2914 80.5468 76.0759 92.3313 90.6129 92.3313H173.467C188.004 92.3313 199.788 80.5468 199.788 66.0098V28.3215C199.788 13.7846 188.004 2 173.467 2Z" fill="#FFF8CC"/>
<path d="M148.45 24.5828H88.0285C86.6981 24.5828 85.6196 25.6612 85.6196 26.9916V30.9561C85.6196 32.2865 86.6981 33.365 88.0285 33.365H148.45C149.78 33.365 150.859 32.2865 150.859 30.9561V26.9916C150.859 25.6612 149.78 24.5828 148.45 24.5828Z" fill="#FFDE9E"/>
<path d="M173.542 40.8928H88.0285C86.6981 40.8928 85.6196 41.9713 85.6196 43.3017V47.2662C85.6196 48.5966 86.6981 49.675 88.0285 49.675H173.542C174.872 49.675 175.951 48.5966 175.951 47.2662V43.3017C175.951 41.9713 174.872 40.8928 173.542 40.8928Z" fill="#FFDE9E"/>
<path d="M148.45 57.2024H88.0285C86.6981 57.2024 85.6196 58.2809 85.6196 59.6112V63.5758C85.6196 64.9061 86.6981 65.9846 88.0285 65.9846H148.45C149.78 65.9846 150.859 64.9061 150.859 63.5758V59.6112C150.859 58.2809 149.78 57.2024 148.45 57.2024Z" fill="#FFDE9E"/>
</svg>
