<svg width="430" height="430" viewBox="0 0 430 430" fill="none" xmlns="http://www.w3.org/2000/svg">
<rect width="430" height="430" fill="white"/>
<path d="M215.465 376.95C305.212 376.95 377.965 304.196 377.965 214.45C377.965 124.704 305.212 51.95 215.465 51.95C125.719 51.95 52.9655 124.704 52.9655 214.45C52.9655 304.196 125.719 376.95 215.465 376.95Z" fill="#F2F5F8"/>
<mask id="mask0_578_6797" style="mask-type:luminance" maskUnits="userSpaceOnUse" x="52" y="51" width="326" height="326">
<path d="M215.465 376.95C305.212 376.95 377.965 304.196 377.965 214.45C377.965 124.704 305.212 51.95 215.465 51.95C125.719 51.95 52.9655 124.704 52.9655 214.45C52.9655 304.196 125.719 376.95 215.465 376.95Z" fill="white"/>
</mask>
<g mask="url(#mask0_578_6797)">
<path d="M442.845 277.22H-15.6145V401.6H442.845V277.22Z" fill="#3ADC86"/>
</g>
<path d="M133.745 173.19L81.8754 198.06C78.6754 199.6 74.7954 198.23 73.2554 195.03L46.4254 139.08L104.115 111.42C107.315 109.88 111.195 111.25 112.735 114.45L136.765 164.57C138.305 167.77 136.935 171.65 133.735 173.19H133.745Z" fill="#495056"/>
<path d="M137.985 85.7799L58.0554 124.11C49.6154 128.16 44.4154 134.86 46.4354 139.08C48.4554 143.3 56.9454 143.44 65.3854 139.39L155.835 96.0199L153.555 91.2599C150.765 85.4499 143.795 82.9999 137.985 85.7799Z" fill="#21262A"/>
<path d="M78.7055 145.56C90.5741 145.56 100.195 135.939 100.195 124.07C100.195 112.201 90.5741 102.58 78.7055 102.58C66.8369 102.58 57.2155 112.201 57.2155 124.07C57.2155 135.939 66.8369 145.56 78.7055 145.56Z" fill="#FFDE9E"/>
<path d="M78.7055 139.26C87.0947 139.26 93.8955 132.459 93.8955 124.07C93.8955 115.681 87.0947 108.88 78.7055 108.88C70.3163 108.88 63.5155 115.681 63.5155 124.07C63.5155 132.459 70.3163 139.26 78.7055 139.26Z" fill="#FFF8CC"/>
<path d="M107.275 68.98C119.144 68.98 128.765 59.3586 128.765 47.49C128.765 35.6214 119.144 26 107.275 26C95.4068 26 85.7854 35.6214 85.7854 47.49C85.7854 59.3586 95.4068 68.98 107.275 68.98Z" fill="#FFDE9E"/>
<path d="M107.275 62.68C115.665 62.68 122.465 55.8793 122.465 47.49C122.465 39.1008 115.665 32.3 107.275 32.3C98.8862 32.3 92.0854 39.1008 92.0854 47.49C92.0854 55.8793 98.8862 62.68 107.275 62.68Z" fill="#FFF8CC"/>
<path d="M53.7296 144.965L153.6 97.0725C158.126 94.9019 163.569 96.8165 165.74 101.343L201.958 176.868C204.129 181.394 202.214 186.837 197.687 189.008L102.389 234.708C97.8622 236.879 92.4192 234.964 90.2485 230.438L51.8384 150.342C50.8785 148.34 51.7232 145.938 53.7249 144.979L53.7296 144.965Z" fill="#495056"/>
<path d="M158.75 132.127L179.092 122.372C182.5 120.738 186.596 122.179 188.23 125.587L196.61 143.062C198.245 146.47 196.804 150.566 193.396 152.2L173.054 161.955C168.167 164.299 162.288 162.238 159.94 157.342L154.133 145.232C151.789 140.345 153.849 134.466 158.746 132.118L158.75 132.127Z" fill="#418CFC"/>
<path d="M167.906 151.75C171.026 151.75 173.555 149.22 173.555 146.1C173.555 142.98 171.026 140.45 167.906 140.45C164.785 140.45 162.255 142.98 162.255 146.1C162.255 149.22 164.785 151.75 167.906 151.75Z" fill="#FFDE9E"/>
<path d="M256.326 175.31C258.866 166.95 259.896 158.42 266.736 154.9C274.526 150.89 287.286 154.7 296.656 161.33C304.366 166.78 314.656 166.86 322.566 161.71C325.326 159.92 327.676 157.56 329.446 154.79C331.476 151.61 333.686 148.05 336.066 144.03C346.046 127.2 344.686 125.34 353.636 122.05C361.766 119.06 365.666 133.65 377.016 151.09L396.916 181.65L259.516 271.09C248.756 278.09 234.366 275.05 227.356 264.29L220.336 253.5C214.106 243.93 215.786 231.28 224.226 223.58C243.336 206.17 252.576 187.67 256.326 175.3V175.31Z" fill="#FF6644"/>
<path d="M202.146 308.44C201.986 308.2 201.816 307.97 201.656 307.73C183.736 280.2 189.896 244.41 215.426 227.8C240.956 211.18 249.856 238.19 267.776 265.72C267.936 265.96 268.076 266.21 268.226 266.45L202.136 308.44H202.146Z" fill="#418CFC"/>
<path d="M279.296 198.41C279.466 198.3 279.626 198.17 279.776 198.02C280.956 196.85 280.965 194.94 279.785 193.76C278.025 191.99 272.005 187 265.435 185.24C254.885 182.41 249.416 185.95 247.616 187.11H247.606C246.216 188.02 245.776 189.91 246.676 191.3C247.576 192.7 249.406 193.13 250.806 192.23L250.896 192.17C252.266 191.28 255.915 188.92 263.875 191.06C269.125 192.47 274.166 196.66 275.516 198.01C276.536 199.04 278.126 199.17 279.296 198.41Z" fill="#FFDE9E"/>
<path d="M271.006 211.43C271.176 211.32 271.336 211.19 271.486 211.04C272.666 209.87 272.676 207.96 271.496 206.78C269.736 205.01 263.716 200.02 257.146 198.26C246.596 195.43 241.126 198.97 239.326 200.13H239.316C237.926 201.04 237.486 202.93 238.386 204.32C239.286 205.72 241.116 206.15 242.516 205.25L242.606 205.19C243.976 204.3 247.626 201.94 255.586 204.08C260.836 205.49 265.876 209.68 267.226 211.03C268.246 212.06 269.836 212.19 271.006 211.43Z" fill="#FFDE9E"/>
<path d="M262.306 223.8C262.476 223.69 262.636 223.56 262.786 223.41C263.966 222.24 263.976 220.33 262.796 219.15C261.036 217.38 255.016 212.39 248.446 210.63C237.896 207.8 232.426 211.34 230.626 212.5H230.616C229.226 213.41 228.786 215.3 229.686 216.69C230.586 218.09 232.416 218.52 233.816 217.62L233.906 217.56C235.276 216.67 238.926 214.31 246.886 216.45C252.136 217.86 257.176 222.05 258.526 223.4C259.546 224.43 261.136 224.56 262.306 223.8Z" fill="#FFDE9E"/>
<mask id="mask1_578_6797" style="mask-type:luminance" maskUnits="userSpaceOnUse" x="208" y="121" width="189" height="163">
<path d="M256.326 175.31C258.866 166.95 259.896 158.42 266.736 154.9C278.176 149.01 300.356 160 306.756 172L326.706 159.01C329.436 154.86 332.576 149.93 336.076 144.03C346.056 127.2 344.696 125.34 353.646 122.05C361.776 119.06 365.676 133.65 377.026 151.09L396.926 181.65L240.046 283.77L208.806 235.77C238.616 215.36 251.686 190.62 256.346 175.3L256.326 175.31Z" fill="white"/>
</mask>
<g mask="url(#mask1_578_6797)">
<path d="M358.686 212.81C344.086 190.38 351.096 159.94 374.336 144.81C374.666 144.59 375.006 144.4 375.346 144.19C377.686 148.55 380.336 154.03 384.076 159.77L401.156 186L359.086 213.39C358.956 213.19 358.816 213.01 358.686 212.81Z" fill="#3ADC86"/>
</g>
<path d="M209.827 316.12L403.747 189.898C405.927 188.479 406.544 185.561 405.125 183.381L402.784 179.786C401.365 177.606 398.448 176.989 396.268 178.408L202.348 304.629C200.168 306.049 199.551 308.966 200.97 311.146L203.31 314.742C204.729 316.922 207.647 317.539 209.827 316.12Z" fill="white"/>
</svg>
