<svg width="360" height="722" viewBox="0 0 360 722" fill="none" xmlns="http://www.w3.org/2000/svg">
<mask id="mask0_640_1620" style="mask-type:alpha" maskUnits="userSpaceOnUse" x="0" y="0" width="360" height="722">
<rect width="360" height="722" fill="#D9D9D9"/>
</mask>
<g mask="url(#mask0_640_1620)">
<rect width="360" height="735" fill="#F1F9FF"/>
<path fill-rule="evenodd" clip-rule="evenodd" d="M45 239C44.9974 239 44.9953 238.998 44.9953 238.995C44.9984 238.83 45 238.665 45 238.5C45 238.665 45.0015 238.83 45.0046 238.995C45.0047 238.998 45.0026 239 45 239ZM-22.9976 239C-22.9963 239 -22.9952 238.999 -22.9953 238.998C-22.9984 238.832 -23 238.666 -23 238.5C-23 222.208 -7.77768 209 11 209C29.7777 209 45 222.208 45 238.5C45 222.208 59.9985 209 78.5 209C97.0015 209 112 222.208 112 238.5C112 238.665 111.998 238.83 111.995 238.995C111.995 238.998 111.997 239 112 239C112.003 239 112.005 238.998 112.005 238.995C112.002 238.83 112 238.665 112 238.5C112 222.208 127.222 209 146 209C164.778 209 180 222.208 180 238.5C180 238.665 179.998 238.83 179.995 238.995C179.995 238.998 179.997 239 180 239C180.003 239 180.005 238.998 180.005 238.995C180.002 238.83 180 238.665 180 238.5C180 222.208 195.222 209 214 209C232.778 209 248 222.208 248 238.5C248 238.665 247.998 238.83 247.995 238.995C247.995 238.998 247.997 239 248 239C248.003 239 248.005 238.998 248.005 238.995C248.002 238.83 248 238.665 248 238.5C248 222.208 262.998 209 281.5 209C300.002 209 315 222.208 315 238.5C315 238.665 314.998 238.83 314.995 238.995C314.995 238.998 314.997 239 315 239C315.003 239 315.005 238.998 315.005 238.995C315.002 238.83 315 238.665 315 238.5C315 222.208 330.222 209 349 209C367.778 209 383 222.208 383 238.5C383 238.666 382.998 238.832 382.995 238.998C382.995 238.999 382.996 239 382.998 239C382.999 239 383 239.001 383 239.002V307.5C383 345.331 352.332 376 314.5 376H180H45.5C7.66849 376 -23 345.331 -23 307.5V239.002C-23 239.001 -22.9989 239 -22.9976 239Z" fill="#3ADC86"/>
<path fill-rule="evenodd" clip-rule="evenodd" d="M45 294C44.9974 294 44.9953 293.998 44.9953 293.995C44.9984 293.83 45 293.665 45 293.5C45 293.665 45.0015 293.83 45.0046 293.995C45.0047 293.998 45.0026 294 45 294ZM-22.9976 294C-22.9963 294 -22.9952 293.999 -22.9953 293.998C-22.9984 293.832 -23 293.666 -23 293.5C-23 277.208 -7.77768 264 11 264C29.7777 264 45 277.208 45 293.5C45 277.208 59.9985 264 78.5 264C97.0015 264 112 277.208 112 293.5C112 293.665 111.998 293.83 111.995 293.995C111.995 293.998 111.997 294 112 294C112.003 294 112.005 293.998 112.005 293.995C112.002 293.83 112 293.665 112 293.5C112 277.208 127.222 264 146 264C164.778 264 180 277.208 180 293.5C180 293.665 179.998 293.83 179.995 293.995C179.995 293.998 179.997 294 180 294C180.003 294 180.005 293.998 180.005 293.995C180.002 293.83 180 293.665 180 293.5C180 277.208 195.222 264 214 264C232.778 264 248 277.208 248 293.5C248 293.665 247.998 293.83 247.995 293.995C247.995 293.998 247.997 294 248 294C248.003 294 248.005 293.998 248.005 293.995C248.002 293.83 248 293.665 248 293.5C248 277.208 262.998 264 281.5 264C300.002 264 315 277.208 315 293.5C315 293.665 314.998 293.83 314.995 293.995C314.995 293.998 314.997 294 315 294C315.003 294 315.005 293.998 315.005 293.995C315.002 293.83 315 293.665 315 293.5C315 277.208 330.222 264 349 264C367.778 264 383 277.208 383 293.5C383 293.666 382.998 293.832 382.995 293.998C382.995 293.999 382.996 294 382.998 294C382.999 294 383 294.001 383 294.002V362.5C383 400.331 352.332 431 314.5 431H180H45.5C7.66849 431 -23 400.331 -23 362.5V294.002C-23 294.001 -22.9989 294 -22.9976 294Z" fill="#0CAB68"/>
<path fill-rule="evenodd" clip-rule="evenodd" d="M45 349C44.9974 349 44.9953 348.998 44.9953 348.995C44.9984 348.83 45 348.665 45 348.5C45 348.665 45.0015 348.83 45.0046 348.995C45.0047 348.998 45.0026 349 45 349V349ZM-22.9976 349C-22.9963 349 -22.9952 348.999 -22.9953 348.998C-22.9984 348.832 -23 348.666 -23 348.5C-23 332.208 -7.77768 319 11 319C29.7777 319 45 332.208 45 348.5C45 332.208 59.9985 319 78.5 319C97.0015 319 112 332.208 112 348.5C112 348.665 111.998 348.83 111.995 348.995C111.995 348.998 111.997 349 112 349V349C112.003 349 112.005 348.998 112.005 348.995C112.002 348.83 112 348.665 112 348.5C112 332.208 127.222 319 146 319C164.778 319 180 332.208 180 348.5C180 348.665 179.998 348.83 179.995 348.995C179.995 348.998 179.997 349 180 349V349V349C180.003 349 180.005 348.998 180.005 348.995C180.002 348.83 180 348.665 180 348.5C180 332.208 195.222 319 214 319C232.778 319 248 332.208 248 348.5C248 348.665 247.998 348.83 247.995 348.995C247.995 348.998 247.997 349 248 349V349C248.003 349 248.005 348.998 248.005 348.995C248.002 348.83 248 348.665 248 348.5C248 332.208 262.998 319 281.5 319C300.002 319 315 332.208 315 348.5C315 348.665 314.998 348.83 314.995 348.995C314.995 348.998 314.997 349 315 349V349C315.003 349 315.005 348.998 315.005 348.995C315.002 348.83 315 348.665 315 348.5C315 332.208 330.222 319 349 319C367.778 319 383 332.208 383 348.5C383 348.666 382.998 348.832 382.995 348.998C382.995 348.999 382.996 349 382.998 349V349C382.999 349 383 349.001 383 349.002V417.5C383 455.332 352.332 486 314.5 486H180H45.5C7.66849 486 -23 455.332 -23 417.5V349.002C-23 349.001 -22.9989 349 -22.9976 349V349Z" fill="#1A593E"/>
<rect y="353" width="360" height="369" fill="#1A593E"/>
<path fill-rule="evenodd" clip-rule="evenodd" d="M374.434 51.3231C366.709 35.1632 350.21 24 331.103 24C311.938 24 295.397 35.232 287.702 51.4723C286.597 51.3652 285.477 51.3103 284.345 51.3103C265.377 51.3103 250 66.687 250 85.6552C250 104.208 264.71 119.325 283.103 119.978V120H284.345H331.103H375.379H379.103V119.8C396.32 117.944 409.724 103.365 409.724 85.6552C409.724 66.687 394.347 51.3103 375.379 51.3103C375.063 51.3103 374.748 51.3146 374.434 51.3231Z" fill="white"/>
<path fill-rule="evenodd" clip-rule="evenodd" d="M88.9808 134.006C82.8531 114.861 64.9116 101 43.7328 101C27.3795 101 12.9565 109.264 4.41187 121.844C-1.75725 117.977 -9.0529 115.741 -16.8707 115.741C-39.0335 115.741 -57 133.708 -57 155.871C-57 178.033 -39.0335 196 -16.8707 196C-16.3221 196 -15.776 195.989 -15.2328 195.967V196H43.7328H112.935H113.345V195.998C132.831 195.778 148.56 179.913 148.56 160.375C148.56 140.7 132.61 124.75 112.935 124.75C103.712 124.75 95.3074 128.255 88.9808 134.006Z" fill="white"/>
</g>
</svg>
