<svg width="24" height="24" viewBox="0 0 24 24" fill="none" xmlns="http://www.w3.org/2000/svg">
<mask id="mask0_108_2874" style="mask-type:alpha" maskUnits="userSpaceOnUse" x="0" y="0" width="24" height="24">
<rect width="24" height="24" fill="#D9D9D9"/>
</mask>
<g mask="url(#mask0_108_2874)">
<path d="M9.42498 14C8.97498 14 8.66248 13.7959 8.48748 13.3875C8.31248 12.9792 8.38331 12.6167 8.69998 12.3L11.3 9.70002C11.4 9.60002 11.5083 9.52502 11.625 9.47502C11.7416 9.42502 11.8666 9.40002 12 9.40002C12.1333 9.40002 12.2583 9.42502 12.375 9.47502C12.4916 9.52502 12.6 9.60002 12.7 9.70002L15.3 12.3C15.6166 12.6167 15.6875 12.9792 15.5125 13.3875C15.3375 13.7959 15.025 14 14.575 14H9.42498Z" fill="#FF6644"/>
</g>
</svg>
