<svg width="24" height="24" viewBox="0 0 24 24" fill="none" xmlns="http://www.w3.org/2000/svg">
<mask id="mask0_477_3394" style="mask-type:alpha" maskUnits="userSpaceOnUse" x="0" y="0" width="24" height="24">
<rect width="24" height="24" fill="#D9D9D9"/>
</mask>
<g mask="url(#mask0_477_3394)">
<path d="M7.30773 20.5C6.8026 20.5 6.37503 20.325 6.02503 19.975C5.67503 19.625 5.50003 19.1975 5.50003 18.6923V6.00005H5.25003C5.03721 6.00005 4.85901 5.92826 4.71543 5.78468C4.57183 5.6411 4.50003 5.4629 4.50003 5.25008C4.50003 5.03726 4.57183 4.85906 4.71543 4.71548C4.85901 4.57188 5.03721 4.50008 5.25003 4.50008H9.00001C9.00001 4.24881 9.08782 4.03856 9.26346 3.86933C9.43911 3.70009 9.65257 3.61548 9.90386 3.61548H14.0962C14.3474 3.61548 14.5609 3.70009 14.7366 3.86933C14.9122 4.03856 15 4.24881 15 4.50008H18.75C18.9628 4.50008 19.141 4.57188 19.2846 4.71548C19.4282 4.85906 19.5 5.03726 19.5 5.25008C19.5 5.4629 19.4282 5.6411 19.2846 5.78468C19.141 5.92826 18.9628 6.00005 18.75 6.00005H18.5V18.6923C18.5 19.1975 18.325 19.625 17.975 19.975C17.625 20.325 17.1974 20.5 16.6923 20.5H7.30773ZM7.00001 6.00005V18.6923C7.00001 18.7821 7.02886 18.8558 7.08656 18.9135C7.14426 18.9712 7.21798 19.0001 7.30773 19.0001H16.6923C16.782 19.0001 16.8558 18.9712 16.9135 18.9135C16.9712 18.8558 17 18.7821 17 18.6923V6.00005H7.00001ZM9.40388 16.2501C9.40388 16.4629 9.47567 16.6411 9.61926 16.7847C9.76284 16.9283 9.94104 17.0001 10.1539 17.0001C10.3667 17.0001 10.5449 16.9283 10.6885 16.7847C10.8321 16.6411 10.9039 16.4629 10.9039 16.2501V8.75003C10.9039 8.53721 10.8321 8.35901 10.6885 8.21543C10.5449 8.07184 10.3667 8.00005 10.1539 8.00005C9.94104 8.00005 9.76284 8.07184 9.61926 8.21543C9.47567 8.35901 9.40388 8.53721 9.40388 8.75003V16.2501ZM13.0962 16.2501C13.0962 16.4629 13.168 16.6411 13.3116 16.7847C13.4551 16.9283 13.6333 17.0001 13.8462 17.0001C14.059 17.0001 14.2372 16.9283 14.3808 16.7847C14.5243 16.6411 14.5961 16.4629 14.5961 16.2501V8.75003C14.5961 8.53721 14.5243 8.35901 14.3808 8.21543C14.2372 8.07184 14.059 8.00005 13.8462 8.00005C13.6333 8.00005 13.4551 8.07184 13.3116 8.21543C13.168 8.35901 13.0962 8.53721 13.0962 8.75003V16.2501ZM7.00001 6.00005V18.6923C7.00001 18.7821 7.02886 18.8558 7.08656 18.9135C7.14426 18.9712 7.21798 19.0001 7.30773 19.0001H7.00001V6.00005Z" fill="#7E8B95"/>
</g>
</svg>
