<svg width="16" height="16" viewBox="0 0 16 16" fill="none" xmlns="http://www.w3.org/2000/svg">
<mask id="mask0_220_1755" style="mask-type:alpha" maskUnits="userSpaceOnUse" x="0" y="0" width="16" height="16">
<rect width="16" height="16" fill="#D9D9D9"/>
</mask>
<g mask="url(#mask0_220_1755)">
<path d="M7.99998 11.7664C8.19998 11.7664 8.36665 11.6971 8.49998 11.5584C8.63332 11.4197 8.69998 11.2501 8.69998 11.0496C8.69998 10.8501 8.63065 10.6808 8.49198 10.5416C8.35278 10.4029 8.18318 10.3336 7.98318 10.3336C7.78318 10.3336 7.61652 10.4029 7.48318 10.5416C7.34985 10.6808 7.28318 10.8501 7.28318 11.0496C7.28318 11.2501 7.35278 11.4197 7.49198 11.5584C7.63065 11.6971 7.79998 11.7664 7.99998 11.7664ZM8.03358 5.18319C8.37812 5.18319 8.65572 5.27226 8.86638 5.45039C9.07758 5.62799 9.18318 5.86133 9.18318 6.15039C9.18318 6.33919 9.12772 6.53359 9.01678 6.73359C8.90531 6.93359 8.73865 7.12799 8.51678 7.31679C8.17225 7.61653 7.92505 7.88879 7.77518 8.13359C7.62532 8.37786 7.54478 8.62773 7.53358 8.88319C7.52238 9.00533 7.55838 9.11093 7.64158 9.19999C7.72478 9.28906 7.83865 9.33359 7.98318 9.33359C8.11652 9.33359 8.23331 9.29173 8.33358 9.20799C8.43331 9.12479 8.49438 9.01093 8.51678 8.86639C8.54985 8.68879 8.62212 8.51946 8.73358 8.35839C8.84451 8.19733 9.02212 7.99466 9.26638 7.75039C9.62212 7.41653 9.86105 7.12746 9.98318 6.88319C10.1053 6.63893 10.1664 6.36666 10.1664 6.06639C10.1664 5.52186 9.97491 5.08319 9.59198 4.75039C9.20852 4.41653 8.70558 4.24959 8.08318 4.24959C7.67198 4.24959 7.29972 4.33866 6.96638 4.51679C6.63305 4.69439 6.33865 4.95546 6.08318 5.29999C6.01652 5.38906 5.99998 5.48906 6.03358 5.59999C6.06665 5.71093 6.13332 5.80533 6.23358 5.88319C6.33331 5.97226 6.45812 6.00293 6.60798 5.97519C6.75838 5.94746 6.88345 5.86693 6.98318 5.73359C7.11652 5.56666 7.26372 5.43333 7.42478 5.33359C7.58585 5.23333 7.78878 5.18319 8.03358 5.18319ZM7.99998 14.3336C7.12212 14.3336 6.29998 14.1669 5.53358 13.8336C4.76665 13.5003 4.09705 13.0501 3.52478 12.4832C2.95252 11.9168 2.49972 11.2475 2.16638 10.4752C1.83305 9.70293 1.66638 8.87786 1.66638 7.99999C1.66638 7.12213 1.83305 6.29706 2.16638 5.52479C2.49972 4.75253 2.95252 4.08319 3.52478 3.51679C4.09705 2.94986 4.76665 2.49973 5.53358 2.16639C6.29998 1.83306 7.12212 1.66639 7.99998 1.66639C8.88905 1.66639 9.71678 1.83306 10.4832 2.16639C11.2501 2.49973 11.9197 2.94986 12.492 3.51679C13.0642 4.08319 13.5141 4.75253 13.8416 5.52479C14.1696 6.29706 14.3336 7.12213 14.3336 7.99999C14.3336 8.87786 14.1696 9.70293 13.8416 10.4752C13.5141 11.2475 13.0642 11.9168 12.492 12.4832C11.9197 13.0501 11.2501 13.5003 10.4832 13.8336C9.71678 14.1669 8.88905 14.3336 7.99998 14.3336Z" fill="#DDE3ED"/>
</g>
</svg>
