<svg width="70" height="70" viewBox="0 0 70 70" fill="none" xmlns="http://www.w3.org/2000/svg">
<path d="M49.19 57.2H21.02C20.2357 57.2 19.6 57.8357 19.6 58.62V59.83C19.6 60.6142 20.2357 61.25 21.02 61.25H49.19C49.9742 61.25 50.61 60.6142 50.61 59.83V58.62C50.61 57.8357 49.9742 57.2 49.19 57.2Z" fill="#FF6644"/>
<path d="M47.34 44.3C48.76 44.3 49.93 45.46 49.93 46.89V49.06C49.93 51.61 47.84 53.7 45.29 53.7H24.92C22.37 53.7 20.28 51.61 20.28 49.06V46.89C20.28 45.47 21.44 44.3 22.87 44.3H47.34ZM47.34 40.02H22.87C19.08 40.02 16 43.1 16 46.89V49.06C16 53.98 20 57.98 24.92 57.98H45.29C50.21 57.98 54.21 53.98 54.21 49.06V46.89C54.21 43.1 51.13 40.02 47.34 40.02Z" fill="#FFDE9E"/>
<path d="M35.11 38.8C37.8162 38.8 40.01 36.6062 40.01 33.9C40.01 31.1938 37.8162 29 35.11 29C32.4038 29 30.21 31.1938 30.21 33.9C30.21 36.6062 32.4038 38.8 35.11 38.8Z" fill="#418CFC"/>
<path d="M50.7299 36H19.4699C18.3488 36 17.4399 36.9066 17.4399 38.025C17.4399 39.1434 18.3488 40.05 19.4699 40.05H50.7299C51.8511 40.05 52.7599 39.1434 52.7599 38.025C52.7599 36.9066 51.8511 36 50.7299 36Z" fill="#3ADC86"/>
</svg>
