<svg width="360" height="473" viewBox="0 0 360 473" fill="none" xmlns="http://www.w3.org/2000/svg">
<circle cx="221.5" cy="236.5" r="236.5" fill="#FFC773"/>
<circle cx="221.5" cy="236.5" r="180.5" fill="#FFDE9E"/>
<path d="M221.835 336.218C276.972 336.218 321.67 291.701 321.67 236.786C321.67 181.87 276.972 137.353 221.835 137.353C166.698 137.353 122 181.87 122 236.786C122 291.701 166.698 336.218 221.835 336.218Z" fill="#418CFC"/>
<path d="M196.337 256.544C207.389 256.544 216.348 247.092 216.348 235.433C216.348 223.773 207.389 214.322 196.337 214.322C185.286 214.322 176.327 223.773 176.327 235.433C176.327 247.092 185.286 256.544 196.337 256.544Z" fill="#FEF8F8"/>
<path d="M196.338 244.541C201.108 244.541 204.976 240.463 204.976 235.433C204.976 230.403 201.108 226.325 196.338 226.325C191.567 226.325 187.7 230.403 187.7 235.433C187.7 240.463 191.567 244.541 196.338 244.541Z" fill="#040000"/>
<path d="M236.358 256.544C247.41 256.544 256.369 247.092 256.369 235.433C256.369 223.773 247.41 214.322 236.358 214.322C225.307 214.322 216.348 223.773 216.348 235.433C216.348 247.092 225.307 256.544 236.358 256.544Z" fill="#FEF8F8"/>
<path d="M234.991 244.541C239.762 244.541 243.629 240.463 243.629 235.433C243.629 230.403 239.762 226.325 234.991 226.325C230.221 226.325 226.353 230.403 226.353 235.433C226.353 240.463 230.221 244.541 234.991 244.541Z" fill="#040000"/>
<mask id="mask0_640_1594" style="mask-type:luminance" maskUnits="userSpaceOnUse" x="122" y="137" width="200" height="199">
<path d="M221.835 335.866C276.972 335.866 321.67 291.348 321.67 236.433C321.67 181.518 276.972 137 221.835 137C166.698 137 122 181.518 122 236.433C122 291.348 166.698 335.866 221.835 335.866Z" fill="white"/>
</mask>
<g mask="url(#mask0_640_1594)">
<path d="M352.972 196.826C331.992 185.733 299.215 188.484 292.297 201.542C286.792 211.931 299.948 224.574 293.157 235.396C285.57 247.489 281.722 242.881 278.725 250.294C273.31 263.721 325.926 289.351 321.552 312.969C318.592 328.994 266.021 268.447 268.004 294.536C269.733 317.27 242.597 309.749 238.269 314.313C230.736 322.239 215.56 332.331 232.474 356.679C255.862 390.362 332.164 394.492 370.601 356.246C416.272 310.814 394.966 219.028 352.963 196.817L352.972 196.826Z" fill="#3ADC86"/>
<path d="M105.059 184.146C106.743 210.353 139.149 233.98 154.759 227.866C171.492 221.31 161.84 183.371 180.574 175.146C197.985 167.508 214.8 196.555 238.993 192.181C265.46 187.393 288.884 144.755 278.045 124.041C264.889 98.8897 200.168 103.958 157.014 126.287C142.21 133.952 103.13 154.179 105.059 184.146Z" fill="#3ADC86"/>
<path d="M178.609 280.45C180.347 286.158 185.726 287.267 185.517 292.579C185.255 299.433 176.128 302.445 177.097 305.926C178.382 310.534 194.744 306.656 197.243 311.905C199.787 317.234 188.188 332.267 173.294 335.297C152.595 339.509 134.703 318.659 132.286 315.846C110.809 290.821 112.964 251.953 121.013 249.274C129.452 246.461 132.802 268.194 145.397 268.826C154.967 269.303 151.599 263.766 165.154 255.515C171.012 251.953 177.45 255.127 179.125 257.463C182.24 261.81 174.824 268.059 178.6 280.441L178.609 280.45Z" fill="#3ADC86"/>
</g>
<path d="M199.209 263.999C198.702 265.972 206.881 271.507 215.925 271.634C227.711 271.803 237.839 262.729 236.977 260.712C236.402 259.347 231.071 261.768 217.285 262.793C204.964 263.708 199.593 262.485 199.209 263.999Z" fill="#353A40"/>
<path fill-rule="evenodd" clip-rule="evenodd" d="M230.435 267.348C227.246 266.49 223.564 266 219.642 266C213.783 266 208.459 267.093 204.516 268.875C207.555 270.36 211.552 271.576 215.734 271.634C221.346 271.715 226.582 269.699 230.435 267.348Z" fill="#FF6644"/>
<rect x="74.4351" y="219" width="19" height="19" rx="3" transform="rotate(45 74.4351 219)" fill="#3ADC86"/>
<rect x="311.954" y="305" width="12.6624" height="12.6624" rx="6.3312" transform="rotate(45 311.954 305)" fill="#3ADC86"/>
<rect x="183.687" y="80.1661" width="24.3427" height="6.67155" rx="3.33578" transform="rotate(59.9303 183.687 80.1661)" fill="#FFC773"/>
<rect x="110.306" y="285.18" width="24.3427" height="6.67155" rx="3.33578" transform="rotate(148.867 110.306 285.18)" fill="#FF6644"/>
<rect x="266.218" y="56.2175" width="7.37866" height="7.37866" rx="3" transform="rotate(45 266.218 56.2175)" fill="#418CFC"/>
<rect x="127.218" y="300" width="7.37866" height="7.37866" rx="3" transform="rotate(45 127.218 300)" fill="#418CFC"/>
<rect x="293.891" y="99" width="12.5741" height="12.5741" rx="3" transform="rotate(45 293.891 99)" fill="#FF6644"/>
</svg>
