<svg width="44" height="44" viewBox="0 0 44 44" fill="none" xmlns="http://www.w3.org/2000/svg">
<path d="M22 17.875C24.2782 17.875 26.125 16.0282 26.125 13.75C26.125 11.4718 24.2782 9.625 22 9.625C19.7218 9.625 17.875 11.4718 17.875 13.75C17.875 16.0282 19.7218 17.875 22 17.875Z" fill="#7E8B95"/>
<path d="M37.125 28.875H35.75C35.1175 21.175 29.2325 15.125 22.0687 15.125C14.905 15.125 8.95125 21.175 8.31875 28.875H6.875C6.51033 28.875 6.16059 29.0199 5.90273 29.2777C5.64487 29.5356 5.5 29.8853 5.5 30.25C5.5 30.6147 5.64487 30.9644 5.90273 31.2223C6.16059 31.4801 6.51033 31.625 6.875 31.625H37.125C37.4897 31.625 37.8394 31.4801 38.0973 31.2223C38.3551 30.9644 38.5 30.6147 38.5 30.25C38.5 29.8853 38.3551 29.5356 38.0973 29.2777C37.8394 29.0199 37.4897 28.875 37.125 28.875Z" fill="#495056"/>
<path d="M34.375 35.75H9.625C9.26033 35.75 8.91059 35.6051 8.65273 35.3473C8.39487 35.0894 8.25 34.7397 8.25 34.375C8.25 34.0103 8.39487 33.6606 8.65273 33.4027C8.91059 33.1449 9.26033 33 9.625 33H34.375C34.7397 33 35.0894 33.1449 35.3473 33.4027C35.6051 33.6606 35.75 34.0103 35.75 34.375C35.75 34.7397 35.6051 35.0894 35.3473 35.3473C35.0894 35.6051 34.7397 35.75 34.375 35.75Z" fill="#7E8B95"/>
</svg>
