<svg width="24" height="25" viewBox="0 0 24 25" fill="none" xmlns="http://www.w3.org/2000/svg">
<mask id="mask0_220_1504" style="mask-type:alpha" maskUnits="userSpaceOnUse" x="0" y="0" width="24" height="25">
<rect y="0.5" width="24" height="24" fill="#D9D9D9"/>
</mask>
<g mask="url(#mask0_220_1504)">
<path d="M12 19.5C11.7167 19.5 11.4793 19.404 11.288 19.212C11.096 19.0207 11 18.7833 11 18.5V13.5H6C5.71667 13.5 5.479 13.404 5.287 13.212C5.09567 13.0207 5 12.7833 5 12.5C5 12.2167 5.09567 11.979 5.287 11.787C5.479 11.5957 5.71667 11.5 6 11.5H11V6.5C11 6.21667 11.096 5.979 11.288 5.787C11.4793 5.59567 11.7167 5.5 12 5.5C12.2833 5.5 12.521 5.59567 12.713 5.787C12.9043 5.979 13 6.21667 13 6.5V11.5H18C18.2833 11.5 18.5207 11.5957 18.712 11.787C18.904 11.979 19 12.2167 19 12.5C19 12.7833 18.904 13.0207 18.712 13.212C18.5207 13.404 18.2833 13.5 18 13.5H13V18.5C13 18.7833 12.9043 19.0207 12.713 19.212C12.521 19.404 12.2833 19.5 12 19.5Z" fill="#7E8B95"/>
</g>
</svg>
