<svg width="48" height="48" viewBox="0 0 48 48" fill="none" xmlns="http://www.w3.org/2000/svg">
<mask id="mask0_178_1019" style="mask-type:alpha" maskUnits="userSpaceOnUse" x="0" y="0" width="48" height="48">
<rect width="48" height="48" fill="#D9D9D9"/>
</mask>
<g mask="url(#mask0_178_1019)">
<path d="M5.39999 43.2C4.63332 43.2 3.96665 42.9166 3.39999 42.3499C2.83332 41.7833 2.54999 41.1166 2.54999 40.3499V16.35C2.54999 15.5833 2.83332 14.9166 3.39999 14.35C3.96665 13.7833 4.63332 13.5 5.39999 13.5H12.3L15.1 10.2C15.3333 9.86662 15.6417 9.61662 16.025 9.44995C16.4083 9.28328 16.8167 9.19995 17.25 9.19995H28.05C28.45 9.19995 28.7917 9.34162 29.075 9.62495C29.3583 9.90828 29.5 10.25 29.5 10.65V14.3C29.5 14.7 29.6417 15.0416 29.925 15.325C30.2083 15.6083 30.55 15.75 30.95 15.75H35V19.8C35 20.2 35.1417 20.5416 35.425 20.825C35.7083 21.1083 36.05 21.25 36.45 21.25H39.1C39.5333 21.25 39.8833 21.4 40.15 21.7C40.4167 22 40.55 22.3333 40.55 22.7V40.3499C40.55 41.1166 40.2583 41.7833 39.675 42.3499C39.0917 42.9166 38.4167 43.2 37.65 43.2H5.39999ZM21.5 36.25C23.7333 36.25 25.6083 35.4916 27.125 33.9749C28.6417 32.4583 29.4 30.5833 29.4 28.35C29.4 26.1166 28.6417 24.25 27.125 22.75C25.6083 21.25 23.7333 20.5 21.5 20.5C19.2667 20.5 17.4 21.25 15.9 22.75C14.4 24.25 13.65 26.1166 13.65 28.35C13.65 30.5833 14.4 32.4583 15.9 33.9749C17.4 35.4916 19.2667 36.25 21.5 36.25ZM38.3 12.5H35.2C34.9 12.5 34.6333 12.3833 34.4 12.15C34.1667 11.9166 34.05 11.65 34.05 11.35C34.05 11.0166 34.1583 10.7416 34.375 10.525C34.5917 10.3083 34.8667 10.2 35.2 10.2H38.3V7.09995C38.3 6.76662 38.4083 6.49162 38.625 6.27495C38.8417 6.05828 39.1 5.94995 39.4 5.94995C39.7333 5.94995 40.0083 6.05828 40.225 6.27495C40.4417 6.49162 40.55 6.76662 40.55 7.09995V10.2H43.65C43.9833 10.2 44.2583 10.3083 44.475 10.525C44.6917 10.7416 44.8 11.0166 44.8 11.35C44.8 11.6833 44.6917 11.9583 44.475 12.175C44.2583 12.3916 43.9833 12.5 43.65 12.5H40.55V15.55C40.55 15.85 40.4417 16.1166 40.225 16.35C40.0083 16.5833 39.7333 16.7 39.4 16.7C39.0667 16.7 38.8 16.5916 38.6 16.375C38.4 16.1583 38.3 15.8833 38.3 15.55V12.5Z" fill="#DDE3ED"/>
</g>
</svg>
