<svg width="16" height="16" viewBox="0 0 16 16" fill="none" xmlns="http://www.w3.org/2000/svg">
<mask id="mask0_220_1674" style="mask-type:alpha" maskUnits="userSpaceOnUse" x="0" y="0" width="16" height="16">
<rect width="16" height="16" fill="#D9D9D9"/>
</mask>
<g mask="url(#mask0_220_1674)">
<path d="M7.98323 14.3336C7.20563 14.3336 6.47523 14.1835 5.79203 13.8832C5.1083 13.5835 4.5083 13.1752 3.99203 12.6584C3.47523 12.1416 3.0667 11.5416 2.76643 10.8584C2.4667 10.1752 2.31683 9.43893 2.31683 8.6496C2.31683 7.872 2.4667 7.1416 2.76643 6.4584C3.0667 5.7752 3.47523 5.1752 3.99203 4.6584C4.5083 4.1416 5.1083 3.736 5.79203 3.4416C6.47523 3.1472 7.20563 3 7.98323 3C8.77203 3 9.5083 3.1472 10.192 3.4416C10.8752 3.736 11.4723 4.1416 11.9832 4.6584C12.4947 5.1752 12.9003 5.7752 13.2 6.4584C13.4998 7.1416 13.6496 7.872 13.6496 8.6496C13.6496 9.43893 13.4998 10.1752 13.2 10.8584C12.9003 11.5416 12.4947 12.1416 11.9832 12.6584C11.4723 13.1752 10.8752 13.5835 10.192 13.8832C9.5083 14.1835 8.77203 14.3336 7.98323 14.3336ZM7.44963 5.9168V8.6496C7.44963 8.72747 7.46376 8.79973 7.49203 8.8664C7.51976 8.93307 7.56696 8.99973 7.63363 9.0664L9.53363 10.9664C9.63336 11.0667 9.7555 11.1195 9.90003 11.1248C10.0446 11.1307 10.1723 11.0779 10.2832 10.9664C10.3942 10.8555 10.4496 10.736 10.4496 10.608C10.4496 10.4805 10.3942 10.3557 10.2832 10.2336L8.51683 8.4664V5.9C8.51683 5.76667 8.4667 5.6472 8.36643 5.5416C8.2667 5.436 8.13896 5.3832 7.98323 5.3832C7.8387 5.3832 7.71363 5.436 7.60803 5.5416C7.50243 5.6472 7.44963 5.77227 7.44963 5.9168ZM2.36643 4.9168C2.2555 5.01653 2.1307 5.06933 1.99203 5.0752C1.85283 5.08053 1.73336 5.02773 1.63363 4.9168C1.52216 4.81653 1.46643 4.69707 1.46643 4.5584C1.46643 4.41973 1.52216 4.28907 1.63363 4.1664L3.48323 2.3168C3.5835 2.20587 3.70563 2.14747 3.84963 2.1416C3.99416 2.13627 4.12216 2.19467 4.23363 2.3168C4.34456 2.41653 4.39736 2.536 4.39203 2.6752C4.38616 2.81387 4.32776 2.94427 4.21683 3.0664L2.36643 4.9168ZM13.6 4.9168L11.7504 3.0664C11.639 2.95547 11.5806 2.83067 11.5752 2.692C11.5694 2.5528 11.6278 2.42773 11.7504 2.3168C11.8502 2.20587 11.975 2.14747 12.1248 2.1416C12.2752 2.13627 12.4059 2.19467 12.5168 2.3168L14.3664 4.1664C14.4779 4.25547 14.5363 4.37227 14.5416 4.5168C14.5475 4.66133 14.4891 4.78907 14.3664 4.9C14.2667 5.01093 14.1419 5.072 13.992 5.0832C13.8416 5.0944 13.711 5.03893 13.6 4.9168ZM7.98323 13.2664C9.2611 13.2664 10.3472 12.8192 11.2416 11.9248C12.136 11.0304 12.5832 9.94427 12.5832 8.6664C12.5832 7.37787 12.136 6.28907 11.2416 5.4C10.3472 4.51093 9.2611 4.0664 7.98323 4.0664C6.70536 4.0664 5.61923 4.51093 4.72483 5.4C3.83043 6.28907 3.38323 7.37787 3.38323 8.6664C3.38323 9.94427 3.83043 11.0304 4.72483 11.9248C5.61923 12.8192 6.70536 13.2664 7.98323 13.2664Z" fill="#7E8B95"/>
</g>
</svg>
