<svg width="16" height="16" viewBox="0 0 16 16" fill="none" xmlns="http://www.w3.org/2000/svg">
<mask id="mask0_220_1686" style="mask-type:alpha" maskUnits="userSpaceOnUse" x="0" y="0" width="16" height="16">
<rect width="16" height="16" fill="#D9D9D9"/>
</mask>
<g mask="url(#mask0_220_1686)">
<path d="M8.00002 9.41679C7.83362 9.41679 7.68909 9.35279 7.56642 9.22479C7.44428 9.09732 7.38322 8.95572 7.38322 8.79999C7.38322 8.63359 7.44428 8.48639 7.56642 8.35839C7.68909 8.23039 7.83362 8.16639 8.00002 8.16639C8.16642 8.16639 8.31095 8.23039 8.43362 8.35839C8.55575 8.48639 8.61682 8.63359 8.61682 8.79999C8.61682 8.95572 8.55575 9.09732 8.43362 9.22479C8.31095 9.35279 8.16642 9.41679 8.00002 9.41679ZM5.33362 9.41679C5.16668 9.41679 5.02215 9.35279 4.90002 9.22479C4.77788 9.09732 4.71682 8.95572 4.71682 8.79999C4.71682 8.63359 4.77788 8.48639 4.90002 8.35839C5.02215 8.23039 5.16668 8.16639 5.33362 8.16639C5.50002 8.16639 5.64428 8.23039 5.76642 8.35839C5.88908 8.48639 5.95042 8.63359 5.95042 8.79999C5.95042 8.95572 5.88908 9.09732 5.76642 9.22479C5.64428 9.35279 5.50002 9.41679 5.33362 9.41679ZM10.6664 9.41679C10.5 9.41679 10.3558 9.35279 10.2336 9.22479C10.111 9.09732 10.0496 8.95572 10.0496 8.79999C10.0496 8.63359 10.111 8.48639 10.2336 8.35839C10.3558 8.23039 10.5 8.16639 10.6664 8.16639C10.8334 8.16639 10.9779 8.23039 11.1 8.35839C11.2222 8.48639 11.2832 8.63359 11.2832 8.79999C11.2832 8.95572 11.2222 9.09732 11.1 9.22479C10.9779 9.35279 10.8334 9.41679 10.6664 9.41679ZM8.00002 12.0336C7.83362 12.0336 7.68909 11.9696 7.56642 11.8416C7.44428 11.7136 7.38322 11.572 7.38322 11.4168C7.38322 11.2499 7.44428 11.1027 7.56642 10.9752C7.68909 10.8472 7.83362 10.7832 8.00002 10.7832C8.16642 10.7832 8.31095 10.8472 8.43362 10.9752C8.55575 11.1027 8.61682 11.2499 8.61682 11.4168C8.61682 11.572 8.55575 11.7136 8.43362 11.8416C8.31095 11.9696 8.16642 12.0336 8.00002 12.0336ZM5.33362 12.0336C5.16668 12.0336 5.02215 11.9696 4.90002 11.8416C4.77788 11.7136 4.71682 11.572 4.71682 11.4168C4.71682 11.2499 4.77788 11.1027 4.90002 10.9752C5.02215 10.8472 5.16668 10.7832 5.33362 10.7832C5.50002 10.7832 5.64428 10.8472 5.76642 10.9752C5.88908 11.1027 5.95042 11.2499 5.95042 11.4168C5.95042 11.572 5.88908 11.7136 5.76642 11.8416C5.64428 11.9696 5.50002 12.0336 5.33362 12.0336ZM10.6664 12.0336C10.5 12.0336 10.3558 11.9696 10.2336 11.8416C10.111 11.7136 10.0496 11.572 10.0496 11.4168C10.0496 11.2499 10.111 11.1027 10.2336 10.9752C10.3558 10.8472 10.5 10.7832 10.6664 10.7832C10.8334 10.7832 10.9779 10.8472 11.1 10.9752C11.2222 11.1027 11.2832 11.2499 11.2832 11.4168C11.2832 11.572 11.2222 11.7136 11.1 11.8416C10.9779 11.9696 10.8334 12.0336 10.6664 12.0336ZM3.60002 14.3336C3.24428 14.3336 2.94428 14.2112 2.70002 13.9664C2.45575 13.7221 2.33362 13.4221 2.33362 13.0664V4.33359C2.33362 3.97786 2.45575 3.67786 2.70002 3.43359C2.94428 3.18879 3.24428 3.06639 3.60002 3.06639H4.40002V2.13359C4.40002 1.98906 4.45282 1.86132 4.55842 1.75039C4.66402 1.63892 4.78908 1.58319 4.93362 1.58319C5.08882 1.58319 5.21922 1.63892 5.32482 1.75039C5.43042 1.86132 5.48322 1.98906 5.48322 2.13359V3.06639H10.5336V2.11679C10.5336 1.98346 10.5891 1.86132 10.7 1.75039C10.811 1.63892 10.9331 1.58319 11.0664 1.58319C11.211 1.58319 11.336 1.63892 11.4416 1.75039C11.5472 1.86132 11.6 1.98346 11.6 2.11679V3.06639H12.4C12.7558 3.06639 13.0558 3.18879 13.3 3.43359C13.5443 3.67786 13.6664 3.97786 13.6664 4.33359V13.0664C13.6664 13.4221 13.5443 13.7221 13.3 13.9664C13.0558 14.2112 12.7558 14.3336 12.4 14.3336H3.60002ZM3.60002 13.2664H12.4C12.4555 13.2664 12.5027 13.2469 12.5416 13.208C12.5806 13.1696 12.6 13.1224 12.6 13.0664V6.89999H3.40002V13.0664C3.40002 13.1224 3.41948 13.1696 3.45842 13.208C3.49735 13.2469 3.54455 13.2664 3.60002 13.2664ZM3.40002 5.83359H12.6V4.33359C12.6 4.27759 12.5806 4.23039 12.5416 4.19199C12.5027 4.15306 12.4555 4.13359 12.4 4.13359H3.60002C3.54455 4.13359 3.49735 4.15306 3.45842 4.19199C3.41948 4.23039 3.40002 4.27759 3.40002 4.33359V5.83359Z" fill="#7E8B95"/>
</g>
</svg>
