<svg width="20" height="20" viewBox="0 0 20 20" fill="none" xmlns="http://www.w3.org/2000/svg">
<mask id="mask0_108_2400" style="mask-type:alpha" maskUnits="userSpaceOnUse" x="0" y="0" width="20" height="20">
<rect width="20" height="20" fill="#D9D9D9"/>
</mask>
<g mask="url(#mask0_108_2400)">
<path d="M5.58977 11.8816H10.3118C10.4731 11.8816 10.615 11.8211 10.7375 11.7002C10.8599 11.5793 10.9212 11.4292 10.9212 11.25C10.9212 11.082 10.8579 10.9347 10.7314 10.8082C10.6049 10.6817 10.4584 10.6184 10.292 10.6184H5.57003C5.40872 10.6184 5.26682 10.6789 5.14435 10.7998C5.02189 10.9207 4.96066 11.0708 4.96066 11.25C4.96066 11.418 5.02391 11.5653 5.15043 11.6918C5.27694 11.8183 5.42339 11.8816 5.58977 11.8816ZM5.58914 9.55261H13.4308C13.5917 9.55261 13.7334 9.49215 13.8559 9.37123C13.9784 9.25031 14.0396 9.10025 14.0396 8.92105C14.0396 8.75303 13.9763 8.60577 13.8498 8.47926C13.7233 8.35274 13.5771 8.28949 13.4111 8.28949H5.5694C5.40851 8.28949 5.26682 8.34995 5.14435 8.47087C5.02189 8.59179 4.96066 8.74185 4.96066 8.92105C4.96066 9.08906 5.02391 9.23632 5.15043 9.36284C5.27694 9.48935 5.42318 9.55261 5.58914 9.55261ZM5.58914 7.22366H13.4308C13.5917 7.22366 13.7334 7.1632 13.8559 7.04227C13.9784 6.92135 14.0396 6.77129 14.0396 6.59209C14.0396 6.42408 13.9763 6.27682 13.8498 6.1503C13.7233 6.02379 13.5771 5.96053 13.4111 5.96053H5.5694C5.40851 5.96053 5.26682 6.02099 5.14435 6.14192C5.02189 6.26284 4.96066 6.4129 4.96066 6.59209C4.96066 6.76011 5.02391 6.90737 5.15043 7.03389C5.27694 7.1604 5.42318 7.22366 5.58914 7.22366ZM2.00012 15.832V4.50608C2.00012 4.08558 2.14601 3.72944 2.43779 3.43767C2.72956 3.14589 3.0857 3 3.5062 3H15.494C15.9145 3 16.2707 3.14589 16.5625 3.43767C16.8542 3.72944 17.0001 4.08558 17.0001 4.50608V13.336C17.0001 13.7565 16.8542 14.1127 16.5625 14.4044C16.2707 14.6962 15.9145 14.8421 15.494 14.8421H4.79364L3.29214 16.3436C3.05428 16.5814 2.77949 16.6374 2.46775 16.5116C2.156 16.3857 2.00012 16.1592 2.00012 15.832Z" fill="#FF6644"/>
</g>
</svg>
