<svg width="70" height="70" viewBox="0 0 70 70" fill="none" xmlns="http://www.w3.org/2000/svg">
<path d="M54.7799 57.1899H14.3299C13.5457 57.1899 12.9099 57.8257 12.9099 58.6099V59.8199C12.9099 60.6042 13.5457 61.2399 14.3299 61.2399H54.7799C55.5642 61.2399 56.1999 60.6042 56.1999 59.8199V58.6099C56.1999 57.8257 55.5642 57.1899 54.7799 57.1899Z" fill="#418CFC"/>
<path d="M9.73002 35.71H59.38C60.05 35.71 60.59 36.25 60.59 36.92V53.1C60.59 56.02 58.22 58.4 55.29 58.4H12.86C10.46 58.4 8.52002 56.45 8.52002 54.06V36.92C8.52002 36.25 9.06002 35.71 9.73002 35.71Z" fill="#FF6644"/>
<path d="M34.5599 33.3C37.128 33.3 39.2099 31.2181 39.2099 28.65C39.2099 26.0819 37.128 24 34.5599 24C31.9918 24 29.9099 26.0819 29.9099 28.65C29.9099 31.2181 31.9918 33.3 34.5599 33.3Z" fill="#FF6644"/>
<path d="M59.59 30.6399H9.53C8.13272 30.6399 7 31.7726 7 33.1699V33.1799C7 34.5772 8.13272 35.7099 9.53 35.7099H59.59C60.9873 35.7099 62.12 34.5772 62.12 33.1799V33.1699C62.12 31.7726 60.9873 30.6399 59.59 30.6399Z" fill="#418CFC"/>
<path d="M57.86 64.72C61.6487 64.72 64.72 61.6487 64.72 57.86C64.72 54.0713 61.6487 51 57.86 51C54.0713 51 51 54.0713 51 57.86C51 61.6487 54.0713 64.72 57.86 64.72Z" fill="#7E8B95"/>
<path d="M54.3101 61.1501V54.5701H55.5401V61.1501H54.3101ZM57.2401 61.1501L54.7701 54.5701H55.9901L58.4501 61.1501H57.2401ZM57.2801 61.1501L59.7401 54.5701H60.9601L58.4901 61.1501H57.2801ZM60.1801 61.1501V54.5701H61.4101V61.1501H60.1801Z" fill="#F3F6F9"/>
</svg>
