<svg width="70" height="70" viewBox="0 0 70 70" fill="none" xmlns="http://www.w3.org/2000/svg">
<path d="M64.28 51.04H31.68C30.3379 51.04 29.25 52.128 29.25 53.47C29.25 54.8121 30.3379 55.9 31.68 55.9H64.28C65.6221 55.9 66.71 54.8121 66.71 53.47C66.71 52.128 65.6221 51.04 64.28 51.04Z" fill="#3ADC86"/>
<path d="M8.66 50.05H42.52C43.43 50.05 44.17 50.79 44.17 51.7V52.89C44.17 57.5 40.43 61.24 35.82 61.24H15.35C10.74 61.24 7 57.5 7 52.89V51.7C7 50.79 7.73999 50.05 8.64999 50.05H8.66Z" fill="#FF6644"/>
<path d="M42.43 46H9.04001C7.91887 46 7.01001 46.9066 7.01001 48.025C7.01001 49.1434 7.91887 50.05 9.04001 50.05H42.43C43.5511 50.05 44.46 49.1434 44.46 48.025C44.46 46.9066 43.5511 46 42.43 46Z" fill="#FFDE9E"/>
</svg>
