<svg width="40" height="40" viewBox="0 0 40 40" fill="none" xmlns="http://www.w3.org/2000/svg">
<mask id="mask0_340_372" style="mask-type:alpha" maskUnits="userSpaceOnUse" x="0" y="0" width="40" height="40">
<rect width="40" height="40" fill="#D9D9D9"/>
</mask>
<g mask="url(#mask0_340_372)">
<path d="M5.83301 35.708V4.292H5.93801C6.00734 4.292 6.09734 4.34733 6.20801 4.458L7.75001 6C7.88867 6.13867 8.02067 6.208 8.14601 6.208C8.27067 6.208 8.40267 6.15267 8.54201 6.042L10.125 4.458C10.2363 4.34733 10.3613 4.292 10.5 4.292C10.6387 4.292 10.7777 4.34733 10.917 4.458L12.5 6.042C12.6113 6.15267 12.7363 6.208 12.875 6.208C13.0137 6.208 13.1527 6.15267 13.292 6.042L14.875 4.458C14.9863 4.34733 15.1113 4.292 15.25 4.292C15.3887 4.292 15.5277 4.34733 15.667 4.458L17.25 6.042C17.3613 6.15267 17.4863 6.208 17.625 6.208C17.7637 6.208 17.8887 6.15267 18 6.042L19.625 4.458C19.7363 4.34733 19.8613 4.292 20 4.292C20.1387 4.292 20.2637 4.34733 20.375 4.458L22 6.042C22.1113 6.15267 22.2363 6.208 22.375 6.208C22.5137 6.208 22.6387 6.15267 22.75 6.042L24.333 4.458C24.4723 4.34733 24.6113 4.292 24.75 4.292C24.8887 4.292 25.0137 4.34733 25.125 4.458L26.708 6.042C26.8473 6.15267 26.9863 6.208 27.125 6.208C27.2637 6.208 27.3887 6.15267 27.5 6.042L29.083 4.458C29.2223 4.34733 29.3613 4.292 29.5 4.292C29.6387 4.292 29.7637 4.34733 29.875 4.458L31.458 6.042C31.5973 6.15267 31.7363 6.208 31.875 6.208C32.0137 6.208 32.1387 6.13867 32.25 6L33.792 4.458C33.9027 4.34733 33.9927 4.292 34.062 4.292H34.167V35.708H34.062C33.9927 35.708 33.9027 35.6527 33.792 35.542L32.25 33.958C32.1387 33.8473 32.0137 33.792 31.875 33.792C31.7363 33.792 31.5973 33.8473 31.458 33.958L29.875 35.542C29.7637 35.6527 29.6387 35.708 29.5 35.708C29.3613 35.708 29.2223 35.6527 29.083 35.542L27.5 33.958C27.3887 33.8473 27.2637 33.792 27.125 33.792C26.9863 33.792 26.8473 33.8473 26.708 33.958L25.125 35.542C25.0137 35.6527 24.8887 35.708 24.75 35.708C24.6113 35.708 24.4723 35.6527 24.333 35.542L22.75 33.958C22.6387 33.8473 22.5137 33.792 22.375 33.792C22.2363 33.792 22.1113 33.8473 22 33.958L20.375 35.542C20.2637 35.6527 20.1387 35.708 20 35.708C19.8613 35.708 19.7363 35.6527 19.625 35.542L18 33.958C17.8887 33.8473 17.7637 33.792 17.625 33.792C17.4863 33.792 17.3613 33.8473 17.25 33.958L15.667 35.542C15.5277 35.6527 15.3887 35.708 15.25 35.708C15.1113 35.708 14.9863 35.6527 14.875 35.542L13.292 33.958C13.1527 33.8473 13.0137 33.792 12.875 33.792C12.7363 33.792 12.6113 33.8473 12.5 33.958L10.917 35.542C10.7777 35.6527 10.6387 35.708 10.5 35.708C10.3613 35.708 10.2363 35.6527 10.125 35.542L8.54201 33.958C8.40267 33.8473 8.26367 33.792 8.12501 33.792C7.98634 33.792 7.86134 33.8473 7.75001 33.958L6.20801 35.542C6.09734 35.6527 6.00734 35.708 5.93801 35.708H5.83301ZM11.417 27.083H28.667C28.9723 27.083 29.2223 26.986 29.417 26.792C29.611 26.5973 29.708 26.3473 29.708 26.042C29.708 25.736 29.611 25.486 29.417 25.292C29.2223 25.0973 28.9723 25 28.667 25H11.417C11.111 25 10.861 25.0973 10.667 25.292C10.4723 25.486 10.375 25.736 10.375 26.042C10.375 26.3473 10.4723 26.5973 10.667 26.792C10.861 26.986 11.111 27.083 11.417 27.083ZM11.417 21.042H28.667C28.9723 21.042 29.2223 20.9447 29.417 20.75C29.611 20.5553 29.708 20.3053 29.708 20C29.708 19.6947 29.611 19.4447 29.417 19.25C29.2223 19.0553 28.9723 18.958 28.667 18.958H11.417C11.111 18.958 10.861 19.0553 10.667 19.25C10.4723 19.4447 10.375 19.6947 10.375 20C10.375 20.3053 10.4723 20.5553 10.667 20.75C10.861 20.9447 11.111 21.042 11.417 21.042ZM11.417 15H28.667C28.9723 15 29.2223 14.896 29.417 14.688C29.611 14.4793 29.708 14.236 29.708 13.958C29.708 13.6527 29.611 13.396 29.417 13.188C29.2223 12.9793 28.9723 12.875 28.667 12.875H11.417C11.111 12.875 10.861 12.9793 10.667 13.188C10.4723 13.396 10.375 13.6527 10.375 13.958C10.375 14.236 10.4723 14.4793 10.667 14.688C10.861 14.896 11.111 15 11.417 15Z" fill="#FFECE8"/>
</g>
</svg>
