<svg width="24" height="24" viewBox="0 0 24 24" fill="none" xmlns="http://www.w3.org/2000/svg">
<mask id="mask0_82_719" style="mask-type:alpha" maskUnits="userSpaceOnUse" x="0" y="0" width="24" height="24">
<rect width="24" height="24" fill="#D9D9D9"/>
</mask>
<g mask="url(#mask0_82_719)">
<path d="M5.3 20.5C4.8 20.5 4.375 20.325 4.025 19.975C3.675 19.625 3.5 19.2 3.5 18.7V5.3C3.5 4.8 3.675 4.375 4.025 4.025C4.375 3.675 4.8 3.5 5.3 3.5H18.7C19.2 3.5 19.625 3.675 19.975 4.025C20.325 4.375 20.5 4.8 20.5 5.3V18.7C20.5 19.2 20.325 19.625 19.975 19.975C19.625 20.325 19.2 20.5 18.7 20.5H5.3ZM5.3 19H18.7C18.7833 19 18.8543 18.971 18.913 18.913C18.971 18.8543 19 18.7833 19 18.7V5.3C19 5.21667 18.971 5.146 18.913 5.088C18.8543 5.02933 18.7833 5 18.7 5H5.3C5.21667 5 5.146 5.02933 5.088 5.088C5.02933 5.146 5 5.21667 5 5.3V18.7C5 18.7833 5.02933 18.8543 5.088 18.913C5.146 18.971 5.21667 19 5.3 19ZM8.125 16.75C8.325 16.75 8.5 16.6793 8.65 16.538C8.8 16.396 8.875 16.2167 8.875 16V12.75C8.875 12.5333 8.8 12.354 8.65 12.212C8.5 12.0707 8.325 12 8.125 12C7.90833 12 7.72933 12.0707 7.588 12.212C7.446 12.354 7.375 12.5333 7.375 12.75V16C7.375 16.2167 7.446 16.396 7.588 16.538C7.72933 16.6793 7.90833 16.75 8.125 16.75ZM15.875 16.75C16.0917 16.75 16.271 16.6793 16.413 16.538C16.5543 16.396 16.625 16.2167 16.625 16V7.75C16.625 7.53333 16.5543 7.35433 16.413 7.213C16.271 7.071 16.0917 7 15.875 7C15.675 7 15.5 7.071 15.35 7.213C15.2 7.35433 15.125 7.53333 15.125 7.75V16C15.125 16.2167 15.2 16.396 15.35 16.538C15.5 16.6793 15.675 16.75 15.875 16.75ZM12 16.75C12.2167 16.75 12.396 16.6793 12.538 16.538C12.6793 16.396 12.75 16.2167 12.75 16V14.75C12.75 14.5333 12.6793 14.354 12.538 14.212C12.396 14.0707 12.2167 14 12 14C11.7833 14 11.6043 14.0707 11.463 14.212C11.321 14.354 11.25 14.5333 11.25 14.75V16C11.25 16.2167 11.321 16.396 11.463 16.538C11.6043 16.6793 11.7833 16.75 12 16.75ZM12 12C12.2167 12 12.396 11.929 12.538 11.787C12.6793 11.6457 12.75 11.4667 12.75 11.25V10.75C12.75 10.5333 12.6793 10.354 12.538 10.212C12.396 10.0707 12.2167 10 12 10C11.7833 10 11.6043 10.0707 11.463 10.212C11.321 10.354 11.25 10.5333 11.25 10.75V11.25C11.25 11.4667 11.321 11.6457 11.463 11.787C11.6043 11.929 11.7833 12 12 12Z" fill="#7E8B95"/>
</g>
</svg>
