<svg width="24" height="24" viewBox="0 0 24 24" fill="none" xmlns="http://www.w3.org/2000/svg">
<mask id="mask0_82_1421" style="mask-type:alpha" maskUnits="userSpaceOnUse" x="0" y="0" width="24" height="24">
<rect width="24" height="24" fill="#D9D9D9"/>
</mask>
<g mask="url(#mask0_82_1421)">
<path d="M17.3231 18.3558L16.7827 17.8154C16.6647 17.6974 16.524 17.6384 16.3606 17.6384C16.1971 17.6384 16.0564 17.6974 15.9385 17.8154C15.8205 17.9333 15.7615 18.0715 15.7615 18.2298C15.7615 18.3881 15.8205 18.5262 15.9385 18.6442L16.8558 19.5615C16.9929 19.6987 17.1503 19.7673 17.3279 19.7673C17.5054 19.7673 17.6628 19.6987 17.8 19.5615L20.0615 17.3404C20.1795 17.2224 20.24 17.0833 20.2432 16.923C20.2464 16.7628 20.1859 16.6205 20.0615 16.4961C19.9436 16.3782 19.8012 16.3192 19.6346 16.3192C19.4679 16.3192 19.3256 16.3782 19.2077 16.4961L17.3231 18.3558ZM16.8654 8.86535C17.0782 8.86535 17.2564 8.79356 17.4 8.64997C17.5435 8.50639 17.6153 8.32819 17.6153 8.11538C17.6153 7.90256 17.5435 7.72436 17.4 7.58077C17.2564 7.43717 17.0782 7.36537 16.8654 7.36537H7.1346C6.92178 7.36537 6.74358 7.43717 6.6 7.58077C6.45642 7.72436 6.38463 7.90256 6.38463 8.11538C6.38463 8.32819 6.45642 8.50639 6.6 8.64997C6.74358 8.79356 6.92178 8.86535 7.1346 8.86535H16.8654ZM18 22.5576C16.7513 22.5576 15.6891 22.1198 14.8135 21.2442C13.9378 20.3685 13.5 19.3064 13.5 18.0577C13.5 16.809 13.9378 15.7468 14.8135 14.8712C15.6891 13.9955 16.7513 13.5577 18 13.5577C19.2487 13.5577 20.3109 13.9955 21.1865 14.8712C22.0621 15.7468 22.5 16.809 22.5 18.0577C22.5 19.3064 22.0621 20.3685 21.1865 21.2442C20.3109 22.1198 19.2487 22.5576 18 22.5576ZM5.3077 3.5H18.6923C19.191 3.5 19.6169 3.67661 19.9701 4.02982C20.3233 4.38302 20.5 4.80898 20.5 5.3077V11.6173C19.9692 11.4032 19.4208 11.2676 18.8547 11.2105C18.2887 11.1535 17.7249 11.1666 17.1634 11.25H7.1346C6.92178 11.25 6.74358 11.3218 6.6 11.4654C6.45642 11.609 6.38463 11.7872 6.38463 12C6.38463 12.2128 6.45642 12.391 6.6 12.5346C6.74358 12.6782 6.92178 12.75 7.1346 12.75H13.5904C13.1981 13.0653 12.8458 13.4234 12.5337 13.824C12.2215 14.2247 11.9577 14.6615 11.7423 15.1346H7.1346C6.92178 15.1346 6.74358 15.2064 6.6 15.35C6.45642 15.4936 6.38463 15.6718 6.38463 15.8846C6.38463 16.0974 6.45642 16.2756 6.6 16.4192C6.74358 16.5628 6.92178 16.6346 7.1346 16.6346H11.2769C11.2244 16.8525 11.1859 17.0695 11.1615 17.2855C11.1372 17.5016 11.125 17.7301 11.125 17.9711C11.125 18.5493 11.1968 19.1112 11.3404 19.6567C11.484 20.2022 11.6993 20.7249 11.9865 21.2249C11.9352 21.2352 11.8814 21.2275 11.825 21.2018C11.7686 21.1762 11.7198 21.1429 11.6788 21.1019L10.8692 20.4172C10.782 20.3429 10.6846 20.3057 10.5769 20.3057C10.4692 20.3057 10.3718 20.3429 10.2846 20.4172L9.44613 21.1211C9.35896 21.1954 9.26153 21.2326 9.15383 21.2326C9.04614 21.2326 8.94871 21.1954 8.86153 21.1211L8.02308 20.4172C7.93589 20.3429 7.83845 20.3057 7.73075 20.3057C7.62307 20.3057 7.52563 20.3429 7.43845 20.4172L6.6 21.1211C6.51282 21.1954 6.41538 21.2326 6.3077 21.2326C6.2 21.2326 6.10256 21.1954 6.01537 21.1211L5.17693 20.4172C5.08974 20.3429 4.99231 20.3057 4.88462 20.3057C4.77692 20.3057 4.67949 20.3429 4.59232 20.4172L3.80192 21.1211C3.78269 21.1339 3.68205 21.1929 3.5 21.298V5.3077C3.5 4.80898 3.67661 4.38302 4.02982 4.02982C4.38302 3.67661 4.80898 3.5 5.3077 3.5Z" fill="#FF6644"/>
</g>
</svg>
