<svg width="24" height="24" viewBox="0 0 24 24" fill="none" xmlns="http://www.w3.org/2000/svg">
<mask id="mask0_82_712" style="mask-type:alpha" maskUnits="userSpaceOnUse" x="0" y="0" width="24" height="24">
<rect width="24" height="24" fill="#D9D9D9"/>
</mask>
<g mask="url(#mask0_82_712)">
<path d="M17.325 18.35L16.775 17.825C16.6583 17.7083 16.521 17.65 16.363 17.65C16.2043 17.65 16.0667 17.7083 15.95 17.825C15.8167 17.9417 15.75 18.0793 15.75 18.238C15.75 18.396 15.8167 18.5333 15.95 18.65L16.85 19.55C16.9833 19.7 17.1417 19.775 17.325 19.775C17.5083 19.775 17.6667 19.7 17.8 19.55L20.05 17.35C20.1833 17.2333 20.25 17.0917 20.25 16.925C20.25 16.7583 20.1833 16.6167 20.05 16.5C19.9333 16.3833 19.7917 16.325 19.625 16.325C19.4583 16.325 19.3167 16.3833 19.2 16.5L17.325 18.35ZM7.125 8.875H16.875C17.075 8.875 17.25 8.8 17.4 8.65C17.55 8.5 17.625 8.325 17.625 8.125C17.625 7.90833 17.4873 7.72933 17.212 7.588C16.9373 7.446 16.7167 7.375 16.55 7.375H7.125C6.925 7.375 6.75 7.446 6.6 7.588C6.45 7.72933 6.375 7.90833 6.375 8.125C6.375 8.325 6.45 8.5 6.6 8.65C6.75 8.8 6.925 8.875 7.125 8.875ZM18 22.55C16.75 22.55 15.6873 22.1127 14.812 21.238C13.9373 20.3627 13.5 19.3 13.5 18.05C13.5 16.8 13.9373 15.7377 14.812 14.863C15.6873 13.9877 16.75 13.55 18 13.55C19.25 13.55 20.3127 13.9877 21.188 14.863C22.0627 15.7377 22.5 16.8 22.5 18.05C22.5 19.3 22.0627 20.3627 21.188 21.238C20.3127 22.1127 19.25 22.55 18 22.55ZM3.5 21.3V5.3C3.5 4.8 3.675 4.375 4.025 4.025C4.375 3.675 4.8 3.5 5.3 3.5H18.7C19.2 3.5 19.625 3.675 19.975 4.025C20.325 4.375 20.5 4.8 20.5 5.3V11.625C20.2667 11.5083 20.025 11.4167 19.775 11.35C19.525 11.2833 19.2667 11.2333 19 11.2V5.3C19 5.23333 18.9667 5.16667 18.9 5.1C18.8333 5.03333 18.7667 5 18.7 5H5.3C5.23333 5 5.16667 5.03333 5.1 5.1C5.03333 5.16667 5 5.23333 5 5.3V19.05H11.2C11.2667 19.45 11.3627 19.8293 11.488 20.188C11.6127 20.546 11.775 20.8917 11.975 21.225C11.925 21.2417 11.875 21.2373 11.825 21.212C11.775 21.1873 11.725 21.15 11.675 21.1L10.875 20.425C10.7917 20.3417 10.696 20.3 10.588 20.3C10.4793 20.3 10.375 20.3417 10.275 20.425L9.45 21.125C9.36667 21.1917 9.271 21.225 9.163 21.225C9.05433 21.225 8.95 21.1917 8.85 21.125L8.025 20.425C7.94167 20.3417 7.846 20.3 7.738 20.3C7.62933 20.3 7.53333 20.3417 7.45 20.425L6.6 21.125C6.51667 21.1917 6.42067 21.225 6.312 21.225C6.204 21.225 6.10833 21.1917 6.025 21.125L5.175 20.425C5.09167 20.3417 4.996 20.3 4.888 20.3C4.77933 20.3 4.68333 20.3417 4.6 20.425L3.8 21.125C3.78333 21.1417 3.68333 21.2 3.5 21.3ZM7.125 16.625H11.275C11.325 16.3583 11.3877 16.1043 11.463 15.863C11.5377 15.621 11.6333 15.375 11.75 15.125H7.125C6.925 15.125 6.75 15.2 6.6 15.35C6.45 15.5 6.375 15.675 6.375 15.875C6.375 16.0917 6.45 16.271 6.6 16.413C6.75 16.5543 6.925 16.625 7.125 16.625ZM7.125 12.75H13.6C14.0667 12.3167 14.6043 11.9667 15.213 11.7C15.821 11.4333 16.475 11.2833 17.175 11.25H7.125C6.925 11.25 6.75 11.3207 6.6 11.462C6.45 11.604 6.375 11.7833 6.375 12C6.375 12.2167 6.45 12.3957 6.6 12.537C6.75 12.679 6.925 12.75 7.125 12.75Z" fill="#7E8B95"/>
</g>
</svg>
