<svg width="24" height="24" viewBox="0 0 24 24" fill="none" xmlns="http://www.w3.org/2000/svg">
<mask id="mask0_82_1427" style="mask-type:alpha" maskUnits="userSpaceOnUse" x="0" y="0" width="24" height="24">
<rect width="24" height="24" fill="#D9D9D9"/>
</mask>
<g mask="url(#mask0_82_1427)">
<path d="M5.3077 20.5C4.80257 20.5 4.375 20.325 4.025 19.975C3.675 19.625 3.5 19.1974 3.5 18.6923V5.3077C3.5 4.80257 3.675 4.375 4.025 4.025C4.375 3.675 4.80257 3.5 5.3077 3.5H18.6923C19.1974 3.5 19.625 3.675 19.975 4.025C20.325 4.375 20.5 4.80257 20.5 5.3077V18.6923C20.5 19.1974 20.325 19.625 19.975 19.975C19.625 20.325 19.1974 20.5 18.6923 20.5H5.3077ZM8.1157 16.75C8.3283 16.75 8.50639 16.6781 8.64998 16.5344C8.79356 16.3906 8.86535 16.2125 8.86535 16V12.75C8.86535 12.5375 8.79344 12.3594 8.64963 12.2156C8.50583 12.0719 8.32763 12 8.11503 12C7.90244 12 7.72436 12.0719 7.58078 12.2156C7.43718 12.3594 7.36538 12.5375 7.36538 12.75V16C7.36538 16.2125 7.43728 16.3906 7.5811 16.5344C7.72492 16.6781 7.90312 16.75 8.1157 16.75ZM15.8849 16.75C16.0975 16.75 16.2756 16.6781 16.4192 16.5344C16.5628 16.3906 16.6346 16.2125 16.6346 16V7.74995C16.6346 7.53747 16.5627 7.35935 16.4189 7.2156C16.275 7.07185 16.0968 6.99998 15.8843 6.99998C15.6717 6.99998 15.4936 7.07185 15.35 7.2156C15.2064 7.35935 15.1346 7.53747 15.1346 7.74995V16C15.1346 16.2125 15.2065 16.3906 15.3503 16.5344C15.4941 16.6781 15.6723 16.75 15.8849 16.75ZM12.0003 16.75C12.2129 16.75 12.391 16.6781 12.5346 16.5344C12.6782 16.3906 12.75 16.2125 12.75 16V14.75C12.75 14.5375 12.6781 14.3594 12.5343 14.2156C12.3904 14.0719 12.2122 14 11.9997 14C11.7871 14 11.609 14.0719 11.4654 14.2156C11.3218 14.3594 11.25 14.5375 11.25 14.75V16C11.25 16.2125 11.3219 16.3906 11.4657 16.5344C11.6095 16.6781 11.7877 16.75 12.0003 16.75ZM12.0003 12C12.2129 12 12.391 11.9281 12.5346 11.7844C12.6782 11.6406 12.75 11.4625 12.75 11.25V10.725C12.75 10.5186 12.6781 10.3461 12.5343 10.2077C12.3904 10.0692 12.2122 9.99998 11.9997 9.99998C11.7871 9.99998 11.609 10.0719 11.4654 10.2156C11.3218 10.3594 11.25 10.5375 11.25 10.75V11.275C11.25 11.4814 11.3219 11.6538 11.4657 11.7923C11.6095 11.9307 11.7877 12 12.0003 12Z" fill="#FF6644"/>
</g>
</svg>
