<svg width="24" height="24" viewBox="0 0 24 24" fill="none" xmlns="http://www.w3.org/2000/svg">
<mask id="mask0_82_1403" style="mask-type:alpha" maskUnits="userSpaceOnUse" x="0" y="0" width="24" height="24">
<rect width="24" height="24" fill="#D9D9D9"/>
</mask>
<g mask="url(#mask0_82_1403)">
<path d="M5.99997 19.0001H9.34615V13.0578H14.6538V19.0001H18V10.0001L12 5.48083L5.99997 10.0001V19.0001ZM5.99997 20.5C5.59101 20.5 5.23877 20.3523 4.94327 20.0568C4.64776 19.7613 4.5 19.409 4.5 19.0001V10.0001C4.5 9.76332 4.55296 9.53904 4.65887 9.32723C4.76477 9.11541 4.91117 8.94098 5.09807 8.80393L11.0981 4.2847C11.2365 4.18342 11.3808 4.10906 11.5309 4.06163C11.681 4.0142 11.8374 3.99048 12 3.99048C12.1626 3.99048 12.3189 4.0142 12.469 4.06163C12.6192 4.10906 12.7634 4.18342 12.9019 4.2847L18.9019 8.80393C19.0888 8.94098 19.2352 9.11541 19.3411 9.32723C19.447 9.53904 19.5 9.76332 19.5 10.0001V19.0001C19.5 19.409 19.3522 19.7613 19.0567 20.0568C18.7612 20.3523 18.4089 20.5 18 20.5H13.1538V14.5577H10.8461V20.5H5.99997Z" fill="#7E8B95"/>
</g>
</svg>
