<svg width="24" height="24" viewBox="0 0 24 24" fill="none" xmlns="http://www.w3.org/2000/svg">
<mask id="mask0_82_726" style="mask-type:alpha" maskUnits="userSpaceOnUse" x="0" y="0" width="24" height="24">
<rect width="24" height="24" fill="#D9D9D9"/>
</mask>
<g mask="url(#mask0_82_726)">
<path d="M12 11.7C11.0333 11.7 10.2083 11.354 9.525 10.662C8.84167 9.97062 8.5 9.14995 8.5 8.19995C8.5 7.23328 8.84167 6.40828 9.525 5.72495C10.2083 5.04162 11.0333 4.69995 12 4.69995C12.9667 4.69995 13.7917 5.04162 14.475 5.72495C15.1583 6.40828 15.5 7.23328 15.5 8.19995C15.5 9.14995 15.1583 9.97062 14.475 10.662C13.7917 11.354 12.9667 11.7 12 11.7ZM17.975 19.3H6.025C5.59167 19.3 5.22933 19.1543 4.938 18.863C4.646 18.571 4.5 18.2166 4.5 17.8V17.075C4.5 16.5916 4.63333 16.1416 4.9 15.725C5.16667 15.3083 5.525 14.9833 5.975 14.75C6.95833 14.2666 7.95433 13.904 8.963 13.662C9.971 13.4206 10.9833 13.3 12 13.3C13.0167 13.3 14.0293 13.4206 15.038 13.662C16.046 13.904 17.0417 14.2666 18.025 14.75C18.475 14.9833 18.8333 15.3083 19.1 15.725C19.3667 16.1416 19.5 16.5916 19.5 17.075V17.8C19.5 18.2166 19.354 18.571 19.062 18.863C18.7707 19.1543 18.4083 19.3 17.975 19.3ZM6 17.8H18V17.075C18 16.875 17.9417 16.6916 17.825 16.525C17.7083 16.3583 17.55 16.2166 17.35 16.1C16.4833 15.6833 15.6043 15.3623 14.713 15.137C13.821 14.9123 12.9167 14.8 12 14.8C11.0833 14.8 10.179 14.9123 9.287 15.137C8.39567 15.3623 7.51667 15.6833 6.65 16.1C6.45 16.2166 6.29167 16.3583 6.175 16.525C6.05833 16.6916 6 16.875 6 17.075V17.8ZM12 10.2C12.55 10.2 13.021 10.004 13.413 9.61195C13.8043 9.22062 14 8.74995 14 8.19995C14 7.64995 13.8043 7.17895 13.413 6.78695C13.021 6.39562 12.55 6.19995 12 6.19995C11.45 6.19995 10.9793 6.39562 10.588 6.78695C10.196 7.17895 10 7.64995 10 8.19995C10 8.74995 10.196 9.22062 10.588 9.61195C10.9793 10.004 11.45 10.2 12 10.2Z" fill="#7E8B95"/>
</g>
</svg>
