<svg width="24" height="24" viewBox="0 0 24 24" fill="none" xmlns="http://www.w3.org/2000/svg">
<mask id="mask0_1_93512" style="mask-type:alpha" maskUnits="userSpaceOnUse" x="0" y="0" width="24" height="24">
<rect width="24" height="24" fill="#D9D9D9"/>
</mask>
<g mask="url(#mask0_1_93512)">
<path d="M6 22C5.16667 22 4.45833 21.7083 3.875 21.125C3.29167 20.5416 3 19.8333 3 19V17C3 16.7166 3.09583 16.4791 3.2875 16.2875C3.47917 16.0958 3.71667 16 4 16H6V2.72495C6 2.57495 6.06667 2.48328 6.2 2.44995C6.33333 2.41662 6.46667 2.46662 6.6 2.59995L7.5 3.49995L8.65 2.34995C8.75 2.24995 8.86667 2.19995 9 2.19995C9.13333 2.19995 9.25 2.24995 9.35 2.34995L10.5 3.49995L11.65 2.34995C11.75 2.24995 11.8667 2.19995 12 2.19995C12.1333 2.19995 12.25 2.24995 12.35 2.34995L13.5 3.49995L14.65 2.34995C14.75 2.24995 14.8667 2.19995 15 2.19995C15.1333 2.19995 15.25 2.24995 15.35 2.34995L16.5 3.49995L17.65 2.34995C17.75 2.24995 17.8667 2.19995 18 2.19995C18.1333 2.19995 18.25 2.24995 18.35 2.34995L19.5 3.49995L20.4 2.59995C20.5333 2.46662 20.6667 2.41245 20.8 2.43745C20.9333 2.46245 21 2.55828 21 2.72495V19C21 19.8333 20.7083 20.5416 20.125 21.125C19.5417 21.7083 18.8333 22 18 22H6ZM18 20C18.2833 20 18.5208 19.9041 18.7125 19.7125C18.9042 19.5208 19 19.2833 19 19V4.99995H8V16H16C16.2833 16 16.5208 16.0958 16.7125 16.2875C16.9042 16.4791 17 16.7166 17 17V19C17 19.2833 17.0958 19.5208 17.2875 19.7125C17.4792 19.9041 17.7167 20 18 20ZM9.975 8.99995C9.69167 8.99995 9.45833 8.90412 9.275 8.71245C9.09167 8.52079 9 8.28329 9 7.99995C9 7.71662 9.09583 7.47912 9.2875 7.28745C9.47917 7.09579 9.71667 6.99995 10 6.99995H14C14.2833 6.99995 14.5208 7.09579 14.7125 7.28745C14.9042 7.47912 15 7.71662 15 7.99995C15 8.28329 14.9042 8.52079 14.7125 8.71245C14.5208 8.90412 14.2833 8.99995 14 8.99995H9.975ZM9.975 12C9.69167 12 9.45833 11.9041 9.275 11.7125C9.09167 11.5208 9 11.2833 9 11C9 10.7166 9.09583 10.4791 9.2875 10.2875C9.47917 10.0958 9.71667 9.99995 10 9.99995H14C14.2833 9.99995 14.5208 10.0958 14.7125 10.2875C14.9042 10.4791 15 10.7166 15 11C15 11.2833 14.9042 11.5208 14.7125 11.7125C14.5208 11.9041 14.2833 12 14 12H9.975ZM17 8.99995C16.7167 8.99995 16.4792 8.90412 16.2875 8.71245C16.0958 8.52079 16 8.28329 16 7.99995C16 7.71662 16.0958 7.47912 16.2875 7.28745C16.4792 7.09579 16.7167 6.99995 17 6.99995C17.2833 6.99995 17.5208 7.09579 17.7125 7.28745C17.9042 7.47912 18 7.71662 18 7.99995C18 8.28329 17.9042 8.52079 17.7125 8.71245C17.5208 8.90412 17.2833 8.99995 17 8.99995ZM17 12C16.7167 12 16.4792 11.9041 16.2875 11.7125C16.0958 11.5208 16 11.2833 16 11C16 10.7166 16.0958 10.4791 16.2875 10.2875C16.4792 10.0958 16.7167 9.99995 17 9.99995C17.2833 9.99995 17.5208 10.0958 17.7125 10.2875C17.9042 10.4791 18 10.7166 18 11C18 11.2833 17.9042 11.5208 17.7125 11.7125C17.5208 11.9041 17.2833 12 17 12ZM6 20H15V18H5V19C5 19.2833 5.09583 19.5208 5.2875 19.7125C5.47917 19.9041 5.71667 20 6 20Z" fill="#FF6644"/>
</g>
</svg>
