<svg width="534" height="534" viewBox="0 0 534 534" fill="none" xmlns="http://www.w3.org/2000/svg">
<path d="M218.518 378.717C217.162 383.994 239.034 398.799 263.222 399.138C294.743 399.589 321.83 375.321 319.525 369.928C317.985 366.276 303.73 372.751 266.86 375.494C233.908 377.94 219.544 374.669 218.518 378.717Z" fill="#353A40"/>
<path fill-rule="evenodd" clip-rule="evenodd" d="M302.026 387.676C293.499 385.38 283.651 384.07 273.162 384.07C257.492 384.07 243.253 386.993 232.709 391.76C240.836 395.731 251.526 398.981 262.711 399.138C277.719 399.353 291.723 393.963 302.026 387.676Z" fill="#FF6644"/>
<path d="M214.516 356.92C244.072 356.92 268.032 331.642 268.032 300.46C268.032 269.278 244.072 244 214.516 244C184.96 244 161 269.278 161 300.46C161 331.642 184.96 356.92 214.516 356.92Z" fill="#FEF8F8"/>
<path d="M321.549 356.92C351.105 356.92 375.065 331.642 375.065 300.46C375.065 269.278 351.105 244 321.549 244C291.993 244 268.033 269.278 268.033 300.46C268.033 331.642 291.993 356.92 321.549 356.92Z" fill="#FEF8F8"/>
<path d="M215.102 324.718C227.86 324.718 238.203 313.812 238.203 300.359C238.203 286.906 227.86 276 215.102 276C202.343 276 192 286.906 192 300.359C192 313.812 202.343 324.718 215.102 324.718Z" fill="#040000"/>
<path d="M318.305 324.718C331.063 324.718 341.406 313.812 341.406 300.359C341.406 286.906 331.063 276 318.305 276C305.546 276 295.203 286.906 295.203 300.359C295.203 313.812 305.546 324.718 318.305 324.718Z" fill="#040000"/>
</svg>
