<svg width="534" height="534" viewBox="0 0 534 534" fill="none" xmlns="http://www.w3.org/2000/svg">
<path d="M267 534C414.46 534 534 414.672 534 267.473C534 120.274 414.46 0.945435 267 0.945435C119.54 0.945435 0 120.274 0 267.473C0 414.672 119.54 534 267 534Z" fill="#418CFC"/>
<mask id="mask0_660_1623" style="mask-type:luminance" maskUnits="userSpaceOnUse" x="0" y="0" width="534" height="534">
<path d="M267 533.055C414.46 533.055 534 413.726 534 266.527C534 119.328 414.46 0 267 0C119.54 0 0 119.328 0 266.527C0 413.726 119.54 533.055 267 533.055Z" fill="white"/>
</mask>
<g mask="url(#mask0_660_1623)">
<path d="M617.713 160.361C561.606 130.629 473.946 138.001 455.445 173.003C440.722 200.85 475.907 234.74 457.746 263.747C437.453 296.163 427.162 283.811 419.146 303.681C404.665 339.674 545.382 408.372 533.685 471.68C525.767 514.635 385.172 352.34 390.475 422.271C395.1 483.211 322.526 463.051 310.951 475.282C290.804 496.53 250.219 523.579 295.454 588.845C358.002 679.13 562.066 690.201 664.861 587.685C787.004 465.903 730.025 219.874 617.689 160.337L617.713 160.361Z" fill="#3ADC86"/>
<path d="M-45.3069 126.374C-40.8029 196.62 45.8644 259.952 87.6119 243.563C132.362 225.99 106.548 124.296 156.65 102.25C203.217 81.7759 248.185 159.636 312.889 147.912C383.67 135.076 446.316 20.7883 417.33 -34.7362C382.145 -102.154 209.053 -88.5686 93.6415 -28.7172C54.0492 -8.17046 -50.4648 46.0487 -45.3069 126.374Z" fill="#3ADC86"/>
<path d="M151.396 384.513C156.045 399.815 170.429 402.788 169.872 417.026C169.17 435.397 144.761 443.47 147.352 452.801C150.79 465.153 194.548 454.759 201.231 468.828C208.036 483.114 177.016 523.409 137.181 531.531C81.8247 542.82 33.9749 486.933 27.5094 479.391C-29.9298 412.312 -24.1665 308.128 -2.63891 300.949C19.9299 293.407 28.8897 351.663 62.5734 353.355C88.1692 354.636 79.161 339.794 115.412 317.676C131.079 308.128 148.296 316.637 152.776 322.897C161.106 334.549 141.274 351.3 151.372 384.489L151.396 384.513Z" fill="#3ADC86"/>
</g>
</svg>
